SeanSlab-NarrowThin.ufo
<glyph name="exclam" format="1">
  <advance width="219"/>
  <unicode hex="0021"/>
  <outline>
    <contour>
      <point x="123" y="229" type="line"/>
      <point x="126" y="722" type="line"/>
      <point x="94" y="722" type="line"/>
      <point x="97" y="229" type="line"/>
    </contour>
    <contour>
      <point x="129" y="13" type="curve"/>
      <point x="129" y="24"/>
      <point x="122" y="30"/>
      <point x="110" y="30" type="curve"/>
      <point x="99" y="30"/>
      <point x="92" y="23"/>
      <point x="92" y="13" type="curve"/>
      <point x="123" y="13"/>
      <point x="98" y="13"/>
      <point x="129" y="13" type="curve"/>
      <point x="129" y="1"/>
      <point x="122" y="-5"/>
      <point x="110" y="-5" type="curve"/>
      <point x="99" y="-5"/>
      <point x="92" y="1"/>
      <point x="92" y="13" type="curve"/>
      <point x="123" y="13"/>
      <point x="98" y="13"/>
    </contour>
  </outline>
</glyph>
<glyph name="quotedbl" format="1">
  <advance width="374"/>
  <unicode hex="0022"/>
  <outline>
    <contour>
      <point x="121" y="567" type="line"/>
      <point x="124" y="756" type="line"/>
      <point x="93" y="756" type="line"/>
      <point x="96" y="567" type="line"/>
    </contour>
    <contour>
      <point x="278" y="567" type="line"/>
      <point x="282" y="756" type="line"/>
      <point x="250" y="756" type="line"/>
      <point x="253" y="567" type="line"/>
    </contour>
  </outline>
</glyph>
<glyph name="numbersign" format="1">
  <advance width="599"/>
  <unicode hex="0023"/>
  <outline>
    <contour>
      <point x="49" y="247" type="curve"/>
      <point x="480" y="247" type="curve"/>
      <point x="486" y="270" type="curve"/>
      <point x="55" y="270" type="curve"/>
    </contour>
    <contour>
      <point x="112" y="491" type="curve"/>
      <point x="544" y="491" type="curve"/>
      <point x="550" y="513" type="curve"/>
      <point x="118" y="513" type="curve"/>
    </contour>
    <contour>
      <point x="340" y="39" type="curve"/>
      <point x="529" y="722" type="curve"/>
      <point x="504" y="722" type="curve"/>
      <point x="315" y="39" type="curve"/>
    </contour>
    <contour>
      <point x="110" y="46" type="curve"/>
      <point x="296" y="722" type="curve"/>
      <point x="271" y="722" type="curve"/>
      <point x="86" y="46" type="curve"/>
    </contour>
  </outline>
</glyph>
<glyph name="dollar" format="1">
  <advance width="492"/>
  <unicode hex="0024"/>
  <outline>
    <contour>
      <point x="84" y="99" type="curve"/>
      <point x="84" y="219"/>
      <point x="84" y="99"/>
      <point x="84" y="219" type="curve"/>
      <point x="61" y="219"/>
      <point x="84" y="219"/>
      <point x="61" y="219" type="curve"/>
      <point x="61" y="99"/>
      <point x="61" y="219"/>
      <point x="61" y="99" type="curve"/>
      <point x="84" y="99"/>
      <point x="61" y="99"/>
    </contour>
    <contour>
      <point x="394" y="631" type="curve"/>
      <point x="394" y="511"/>
      <point x="394" y="631"/>
      <point x="394" y="511" type="curve"/>
      <point x="417" y="511"/>
      <point x="394" y="511"/>
      <point x="417" y="511" type="curve"/>
      <point x="417" y="631"/>
      <point x="417" y="511"/>
      <point x="417" y="631" type="curve"/>
      <point x="394" y="631"/>
      <point x="417" y="631"/>
    </contour>
    <contour>
      <point x="245" y="-43" type="curve"/>
      <point x="245" y="-9"/>
      <point x="245" y="25"/>
      <point x="245" y="59" type="curve"/>
      <point x="220" y="59"/>
      <point x="245" y="59"/>
      <point x="220" y="59" type="curve"/>
      <point x="220" y="25"/>
      <point x="220" y="-9"/>
      <point x="220" y="-43" type="curve"/>
      <point x="245" y="-43"/>
      <point x="220" y="-43"/>
    </contour>
    <contour>
      <point x="256" y="671" type="curve"/>
      <point x="256" y="705"/>
      <point x="256" y="739"/>
      <point x="256" y="773" type="curve"/>
      <point x="230" y="773"/>
      <point x="256" y="773"/>
      <point x="230" y="773" type="curve"/>
      <point x="230" y="739"/>
      <point x="230" y="705"/>
      <point x="230" y="671" type="curve"/>
      <point x="256" y="671"/>
      <point x="230" y="671"/>
    </contour>
    <contour>
      <point x="61" y="99" type="curve"/>
      <point x="107" y="72"/>
      <point x="164" y="48"/>
      <point x="231" y="48" type="curve"/>
      <point x="347" y="48"/>
      <point x="433" y="102"/>
      <point x="433" y="198" type="curve"/>
      <point x="433" y="292"/>
      <point x="347" y="338"/>
      <point x="253" y="385" type="curve"/>
      <point x="169" y="427"/>
      <point x="107" y="463"/>
      <point x="107" y="543" type="curve"/>
      <point x="107" y="615"/>
      <point x="164" y="661"/>
      <point x="247" y="661" type="curve"/>
      <point x="310" y="661"/>
      <point x="353" y="643"/>
      <point x="405" y="612" type="curve"/>
      <point x="417" y="631"/>
      <point x="405" y="612"/>
      <point x="417" y="631" type="curve"/>
      <point x="362" y="665"/>
      <point x="315" y="683"/>
      <point x="249" y="683" type="curve"/>
      <point x="149" y="683"/>
      <point x="81" y="630"/>
      <point x="81" y="543" type="curve"/>
      <point x="81" y="453"/>
      <point x="148" y="410"/>
      <point x="238" y="365" type="curve"/>
      <point x="326" y="323"/>
      <point x="407" y="281"/>
      <point x="407" y="197" type="curve"/>
      <point x="407" y="116"/>
      <point x="333" y="70"/>
      <point x="234" y="70" type="curve"/>
      <point x="171" y="70"/>
      <point x="118" y="95"/>
      <point x="74" y="119" type="curve"/>
      <point x="61" y="99"/>
      <point x="74" y="119"/>
    </contour>
  </outline>
</glyph>
<glyph name="percent" format="1">
  <advance width="880"/>
  <unicode hex="0025"/>
  <outline>
    <contour>
      <point x="278" y="-92" type="line"/>
      <point x="651" y="756" type="line"/>
      <point x="622" y="756" type="line"/>
      <point x="250" y="-92" type="line"/>
    </contour>
    <contour>
      <point x="66" y="555" type="curve"/>
      <point x="66" y="660"/>
      <point x="96" y="740"/>
      <point x="192" y="740" type="curve"/>
      <point x="287" y="741"/>
      <point x="317" y="661"/>
      <point x="317" y="556" type="curve"/>
      <point x="317" y="451"/>
      <point x="289" y="369"/>
      <point x="194" y="369" type="curve"/>
      <point x="97" y="369"/>
      <point x="66" y="449"/>
      <point x="66" y="555" type="curve"/>
      <point x="56" y="555"/>
      <point x="51" y="555"/>
      <point x="41" y="555" type="curve"/>
      <point x="41" y="436"/>
      <point x="83" y="347"/>
      <point x="193" y="347" type="curve"/>
      <point x="302" y="347"/>
      <point x="342" y="437"/>
      <point x="342" y="557" type="curve"/>
      <point x="342" y="675"/>
      <point x="301" y="763"/>
      <point x="193" y="763" type="curve"/>
      <point x="83" y="763"/>
      <point x="41" y="674"/>
      <point x="41" y="555" type="curve"/>
      <point x="51" y="555"/>
      <point x="56" y="555"/>
    </contour>
    <contour>
      <point x="562" y="110" type="curve"/>
      <point x="562" y="214"/>
      <point x="592" y="295"/>
      <point x="688" y="295" type="curve"/>
      <point x="783" y="296"/>
      <point x="813" y="215"/>
      <point x="813" y="111" type="curve"/>
      <point x="813" y="6"/>
      <point x="785" y="-77"/>
      <point x="690" y="-77" type="curve"/>
      <point x="593" y="-77"/>
      <point x="562" y="4"/>
      <point x="562" y="110" type="curve"/>
      <point x="552" y="110"/>
      <point x="547" y="110"/>
      <point x="538" y="110" type="curve"/>
      <point x="538" y="-9"/>
      <point x="579" y="-99"/>
      <point x="689" y="-99" type="curve"/>
      <point x="798" y="-99"/>
      <point x="838" y="-8"/>
      <point x="838" y="112" type="curve"/>
      <point x="838" y="229"/>
      <point x="797" y="318"/>
      <point x="689" y="318" type="curve"/>
      <point x="579" y="318"/>
      <point x="538" y="228"/>
      <point x="538" y="110" type="curve"/>
      <point x="547" y="110"/>
      <point x="552" y="110"/>
    </contour>
  </outline>
</glyph>
<glyph name="ampersand" format="1">
  <advance width="589"/>
  <unicode hex="0026"/>
  <outline>
    <contour>
      <point x="565" y="7" type="line"/>
      <point x="467" y="122"/>
      <point x="374" y="234"/>
      <point x="274" y="349" type="curve"/>
      <point x="217" y="422"/>
      <point x="149" y="481"/>
      <point x="149" y="577" type="curve"/>
      <point x="149" y="648"/>
      <point x="184" y="703"/>
      <point x="249" y="703" type="curve"/>
      <point x="318" y="703"/>
      <point x="359" y="652"/>
      <point x="359" y="579" type="curve"/>
      <point x="359" y="487"/>
      <point x="295" y="439"/>
      <point x="218" y="389" type="curve"/>
      <point x="133" y="330"/>
      <point x="64" y="279"/>
      <point x="64" y="177" type="curve"/>
      <point x="64" y="68"/>
      <point x="134" y="-5"/>
      <point x="243" y="-5" type="curve"/>
      <point x="416" y="-5"/>
      <point x="485" y="141"/>
      <point x="534" y="318" type="curve"/>
      <point x="512" y="323"/>
      <point x="534" y="318"/>
      <point x="512" y="323" type="curve"/>
      <point x="466" y="158"/>
      <point x="399" y="18"/>
      <point x="244" y="18" type="curve"/>
      <point x="150" y="18"/>
      <point x="89" y="81"/>
      <point x="89" y="177" type="curve"/>
      <point x="89" y="270"/>
      <point x="155" y="317"/>
      <point x="232" y="369" type="curve"/>
      <point x="315" y="426"/>
      <point x="384" y="479"/>
      <point x="384" y="579" type="curve"/>
      <point x="384" y="667"/>
      <point x="335" y="727"/>
      <point x="250" y="727" type="curve"/>
      <point x="168" y="727"/>
      <point x="123" y="663"/>
      <point x="123" y="577" type="curve"/>
      <point x="123" y="476"/>
      <point x="192" y="412"/>
      <point x="256" y="336" type="curve"/>
      <point x="352" y="222"/>
      <point x="450" y="106"/>
      <point x="547" y="-7" type="curve"/>
    </contour>
  </outline>
</glyph>
<glyph name="quotesingle" format="1">
  <advance width="217"/>
  <unicode hex="0027"/>
  <outline>
    <contour>
      <point x="121" y="567" type="line"/>
      <point x="124" y="756" type="line"/>
      <point x="93" y="756" type="line"/>
      <point x="96" y="567" type="line"/>
    </contour>
  </outline>
</glyph>
<glyph name="parenleft" format="1">
  <advance width="306"/>
  <unicode hex="0028"/>
  <outline>
    <contour>
      <point x="290" y="-236" type="curve"/>
      <point x="140" y="-62"/>
      <point x="85" y="96"/>
      <point x="85" y="326" type="curve"/>
      <point x="85" y="556"/>
      <point x="142" y="713"/>
      <point x="289" y="889" type="curve"/>
      <point x="273" y="903"/>
      <point x="289" y="889"/>
      <point x="273" y="903" type="curve"/>
      <point x="119" y="726"/>
      <point x="59" y="563"/>
      <point x="59" y="326" type="curve"/>
      <point x="59" y="89"/>
      <point x="120" y="-73"/>
      <point x="274" y="-251" type="curve"/>
      <point x="290" y="-236"/>
      <point x="274" y="-251"/>
    </contour>
  </outline>
</glyph>
<glyph name="parenright" format="1">
  <advance width="316"/>
  <unicode hex="0029"/>
  <outline>
    <contour>
      <point x="31" y="-267" type="curve"/>
      <point x="187" y="-81"/>
      <point x="259" y="81"/>
      <point x="259" y="327" type="curve"/>
      <point x="259" y="566"/>
      <point x="194" y="727"/>
      <point x="35" y="903" type="curve"/>
      <point x="18" y="889"/>
      <point x="35" y="903"/>
      <point x="18" y="889" type="curve"/>
      <point x="171" y="714"/>
      <point x="231" y="558"/>
      <point x="231" y="326" type="curve"/>
      <point x="231" y="89"/>
      <point x="161" y="-68"/>
      <point x="13" y="-252" type="curve"/>
      <point x="31" y="-267"/>
      <point x="13" y="-252"/>
    </contour>
  </outline>
</glyph>
<glyph name="asterisk" format="1">
  <advance width="603"/>
  <unicode hex="002A"/>
  <outline>
    <contour>
      <point x="313" y="561" type="line"/>
      <point x="316" y="749" type="line"/>
      <point x="285" y="749" type="line"/>
      <point x="288" y="561" type="line"/>
    </contour>
    <contour>
      <point x="337" y="529" type="line"/>
      <point x="517" y="584" type="line"/>
      <point x="508" y="613" type="line"/>
      <point x="330" y="552" type="line"/>
    </contour>
    <contour>
      <point x="314" y="496" type="line"/>
      <point x="423" y="342" type="line"/>
      <point x="447" y="360" type="line"/>
      <point x="334" y="511" type="line"/>
    </contour>
    <contour>
      <point x="275" y="508" type="line"/>
      <point x="162" y="358" type="line"/>
      <point x="187" y="339" type="line"/>
      <point x="295" y="493" type="line"/>
    </contour>
    <contour>
      <point x="274" y="548" type="line"/>
      <point x="96" y="609" type="line"/>
      <point x="87" y="580" type="line"/>
      <point x="267" y="525" type="line"/>
    </contour>
  </outline>
</glyph>
<glyph name="comma" format="1">
  <advance width="187"/>
  <unicode hex="002C"/>
  <outline>
    <contour>
      <point x="47" y="-107" type="line"/>
      <point x="74" y="-83"/>
      <point x="96" y="-54"/>
      <point x="96" y="-4" type="curve"/>
      <point x="96" y="17"/>
      <point x="93" y="35"/>
      <point x="74" y="35" type="curve"/>
      <point x="61" y="35"/>
      <point x="54" y="28"/>
      <point x="54" y="16" type="curve"/>
      <point x="54" y="6"/>
      <point x="58" y="0"/>
      <point x="69" y="-5" type="curve"/>
      <point x="69" y="-28"/>
      <point x="58" y="-65"/>
      <point x="32" y="-89" type="curve"/>
    </contour>
  </outline>
</glyph>
<glyph name="hyphen" format="1">
  <advance width="429"/>
  <unicode hex="002D"/>
  <outline>
    <contour>
      <point x="88" y="260" type="curve"/>
      <point x="173" y="260"/>
      <point x="257" y="260"/>
      <point x="341" y="260" type="curve"/>
      <point x="341" y="285"/>
      <point x="341" y="260"/>
      <point x="341" y="285" type="curve"/>
      <point x="257" y="285"/>
      <point x="173" y="285"/>
      <point x="88" y="285" type="curve"/>
      <point x="88" y="260"/>
      <point x="88" y="285"/>
    </contour>
  </outline>
</glyph>
<glyph name="period" format="1">
  <advance width="207"/>
  <unicode hex="002E"/>
  <outline>
    <contour>
      <point x="122" y="13" type="curve"/>
      <point x="122" y="24"/>
      <point x="114" y="30"/>
      <point x="103" y="30" type="curve"/>
      <point x="91" y="30"/>
      <point x="85" y="23"/>
      <point x="85" y="13" type="curve"/>
      <point x="116" y="13"/>
      <point x="91" y="13"/>
      <point x="122" y="13" type="curve"/>
      <point x="122" y="1"/>
      <point x="114" y="-5"/>
      <point x="103" y="-5" type="curve"/>
      <point x="91" y="-5"/>
      <point x="85" y="1"/>
      <point x="85" y="13" type="curve"/>
      <point x="116" y="13"/>
      <point x="91" y="13"/>
    </contour>
  </outline>
</glyph>
<glyph name="slash" format="1">
  <advance width="475"/>
  <unicode hex="002F"/>
  <outline>
    <contour>
      <point x="64" y="-66" type="curve"/>
      <point x="188" y="236"/>
      <point x="312" y="540"/>
      <point x="436" y="842" type="curve"/>
      <point x="411" y="842"/>
      <point x="436" y="842"/>
      <point x="411" y="842" type="curve"/>
      <point x="286" y="540"/>
      <point x="163" y="236"/>
      <point x="38" y="-66" type="curve"/>
      <point x="64" y="-66"/>
      <point x="38" y="-66"/>
    </contour>
  </outline>
</glyph>
<glyph name="one" format="1">
  <advance width="392"/>
  <unicode hex="0031"/>
  <outline>
    <contour>
      <point x="236" y="0" type="curve"/>
      <point x="279" y="0"/>
      <point x="321" y="0"/>
      <point x="365" y="0" type="curve"/>
      <point x="365" y="23"/>
      <point x="365" y="0"/>
      <point x="365" y="23" type="curve"/>
      <point x="236" y="23"/>
      <point x="365" y="23"/>
      <point x="236" y="23" type="curve"/>
      <point x="236" y="0"/>
      <point x="236" y="23"/>
    </contour>
    <contour>
      <point x="236" y="23" type="curve"/>
      <point x="101" y="23"/>
      <point x="236" y="23"/>
      <point x="101" y="23" type="curve"/>
      <point x="101" y="0"/>
      <point x="101" y="23"/>
      <point x="101" y="0" type="curve"/>
      <point x="146" y="0"/>
      <point x="191" y="0"/>
      <point x="236" y="0" type="curve"/>
      <point x="236" y="23"/>
      <point x="236" y="0"/>
    </contour>
    <contour>
      <point x="63" y="538" type="curve"/>
      <point x="244" y="711"/>
      <point x="63" y="538"/>
      <point x="244" y="711" type="curve"/>
      <point x="222" y="722"/>
      <point x="244" y="711"/>
      <point x="222" y="722" type="curve"/>
      <point x="46" y="555"/>
      <point x="222" y="722"/>
      <point x="46" y="555" type="curve"/>
      <point x="63" y="538"/>
      <point x="46" y="555"/>
    </contour>
    <contour>
      <point x="247" y="0" type="curve"/>
      <point x="247" y="241"/>
      <point x="247" y="481"/>
      <point x="247" y="722" type="curve"/>
      <point x="222" y="722"/>
      <point x="247" y="722"/>
      <point x="222" y="722" type="curve"/>
      <point x="222" y="481"/>
      <point x="222" y="241"/>
      <point x="222" y="0" type="curve"/>
      <point x="247" y="0"/>
      <point x="222" y="0"/>
    </contour>
  </outline>
</glyph>
<glyph name="two" format="1">
  <advance width="506"/>
  <unicode hex="0032"/>
  <outline>
    <contour>
      <point x="432" y="23" type="curve"/>
      <point x="432" y="143"/>
      <point x="432" y="23"/>
      <point x="432" y="143" type="curve"/>
      <point x="410" y="143"/>
      <point x="432" y="143"/>
      <point x="410" y="143" type="curve"/>
      <point x="410" y="23"/>
      <point x="410" y="143"/>
      <point x="410" y="23" type="curve"/>
      <point x="432" y="23"/>
      <point x="410" y="23"/>
    </contour>
    <contour>
      <point x="51" y="0" type="curve"/>
      <point x="190" y="0"/>
      <point x="302" y="0"/>
      <point x="432" y="0" type="curve"/>
      <point x="432" y="23"/>
      <point x="432" y="0"/>
      <point x="432" y="23" type="curve"/>
      <point x="297" y="23"/>
      <point x="185" y="23"/>
      <point x="51" y="23" type="curve"/>
      <point x="51" y="0"/>
      <point x="51" y="23"/>
    </contour>
    <contour>
      <point x="89" y="563" type="curve"/>
      <point x="127" y="641"/>
      <point x="166" y="703"/>
      <point x="252" y="703" type="curve"/>
      <point x="349" y="703"/>
      <point x="394" y="633"/>
      <point x="394" y="526" type="curve"/>
      <point x="394" y="402"/>
      <point x="310" y="299"/>
      <point x="249" y="237" type="curve"/>
      <point x="183" y="166"/>
      <point x="117" y="94"/>
      <point x="51" y="23" type="curve"/>
      <point x="62" y="0"/>
      <point x="51" y="23"/>
      <point x="62" y="0" type="curve"/>
      <point x="130" y="73"/>
      <point x="198" y="146"/>
      <point x="265" y="220" type="curve"/>
      <point x="332" y="286"/>
      <point x="420" y="392"/>
      <point x="420" y="527" type="curve"/>
      <point x="420" y="648"/>
      <point x="366" y="727"/>
      <point x="253" y="727" type="curve"/>
      <point x="158" y="727"/>
      <point x="105" y="662"/>
      <point x="67" y="574" type="curve"/>
      <point x="89" y="563"/>
      <point x="67" y="574"/>
    </contour>
  </outline>
</glyph>
<glyph name="three" format="1">
  <advance width="485"/>
  <unicode hex="0033"/>
  <outline>
    <contour>
      <point x="61" y="56" type="curve"/>
      <point x="113" y="19"/>
      <point x="156" y="-5"/>
      <point x="221" y="-5" type="curve"/>
      <point x="348" y="-5"/>
      <point x="420" y="64"/>
      <point x="420" y="195" type="curve"/>
      <point x="420" y="325"/>
      <point x="304" y="391"/>
      <point x="144" y="391" type="curve"/>
      <point x="144" y="380"/>
      <point x="144" y="382"/>
      <point x="144" y="371" type="curve"/>
      <point x="282" y="371"/>
      <point x="395" y="311"/>
      <point x="395" y="194" type="curve"/>
      <point x="395" y="79"/>
      <point x="320" y="20"/>
      <point x="222" y="20" type="curve"/>
      <point x="163" y="20"/>
      <point x="125" y="41"/>
      <point x="74" y="74" type="curve"/>
      <point x="61" y="56"/>
      <point x="74" y="74"/>
    </contour>
    <contour>
      <point x="84" y="627" type="curve"/>
      <point x="112" y="663"/>
      <point x="159" y="702"/>
      <point x="219" y="702" type="curve"/>
      <point x="313" y="702"/>
      <point x="366" y="648"/>
      <point x="366" y="552" type="curve"/>
      <point x="366" y="449"/>
      <point x="266" y="394"/>
      <point x="144" y="394" type="curve"/>
      <point x="144" y="383"/>
      <point x="144" y="386"/>
      <point x="144" y="375" type="curve"/>
      <point x="285" y="375"/>
      <point x="391" y="434"/>
      <point x="391" y="553" type="curve"/>
      <point x="391" y="662"/>
      <point x="330" y="727"/>
      <point x="221" y="727" type="curve"/>
      <point x="152" y="727"/>
      <point x="97" y="682"/>
      <point x="67" y="640" type="curve"/>
      <point x="84" y="627"/>
      <point x="67" y="640"/>
    </contour>
  </outline>
</glyph>
<glyph name="four" format="1">
  <advance width="552"/>
  <unicode hex="0034"/>
  <outline>
    <contour>
      <point x="329" y="23" type="line"/>
      <point x="202" y="23" type="line"/>
      <point x="202" y="0" type="line"/>
      <point x="329" y="0" type="line"/>
    </contour>
    <contour>
      <point x="329" y="0" type="line"/>
      <point x="450" y="0" type="line"/>
      <point x="450" y="23" type="line"/>
      <point x="329" y="23" type="line"/>
    </contour>
    <contour>
      <point x="51" y="274" type="line"/>
      <point x="340" y="717" type="line"/>
      <point x="317" y="722" type="line"/>
      <point x="32" y="288" type="line"/>
    </contour>
    <contour>
      <point x="500" y="288" type="line"/>
      <point x="32" y="288" type="line"/>
      <point x="32" y="264" type="line"/>
      <point x="500" y="264" type="line"/>
    </contour>
    <contour>
      <point x="343" y="1" type="line"/>
      <point x="343" y="722" type="line"/>
      <point x="317" y="722" type="line"/>
      <point x="317" y="1" type="line"/>
    </contour>
  </outline>
</glyph>
<glyph name="five" format="1">
  <advance width="467"/>
  <unicode hex="0035"/>
  <outline>
    <contour>
      <point x="100" y="722" type="curve"/>
      <point x="100" y="619"/>
      <point x="100" y="513"/>
      <point x="100" y="404" type="curve"/>
      <point x="124" y="395"/>
      <point x="100" y="404"/>
      <point x="124" y="395" type="curve"/>
      <point x="124" y="497"/>
      <point x="124" y="598"/>
      <point x="124" y="699" type="curve"/>
      <point x="100" y="722"/>
      <point x="124" y="699"/>
    </contour>
    <contour>
      <point x="124" y="395" type="curve"/>
      <point x="144" y="408"/>
      <point x="188" y="422"/>
      <point x="221" y="422" type="curve"/>
      <point x="328" y="422"/>
      <point x="381" y="336"/>
      <point x="381" y="224" type="curve"/>
      <point x="381" y="110"/>
      <point x="320" y="20"/>
      <point x="212" y="20" type="curve"/>
      <point x="157" y="20"/>
      <point x="120" y="36"/>
      <point x="70" y="64" type="curve"/>
      <point x="57" y="44"/>
      <point x="70" y="64"/>
      <point x="57" y="44" type="curve"/>
      <point x="105" y="13"/>
      <point x="152" y="-5"/>
      <point x="211" y="-5" type="curve"/>
      <point x="336" y="-5"/>
      <point x="408" y="94"/>
      <point x="408" y="224" type="curve"/>
      <point x="408" y="350"/>
      <point x="344" y="446"/>
      <point x="223" y="446" type="curve"/>
      <point x="179" y="446"/>
      <point x="127" y="431"/>
      <point x="100" y="407" type="curve"/>
      <point x="124" y="395"/>
      <point x="100" y="407"/>
    </contour>
    <contour>
      <point x="388" y="722" type="curve"/>
      <point x="288" y="722"/>
      <point x="200" y="722"/>
      <point x="100" y="722" type="curve"/>
      <point x="124" y="699"/>
      <point x="100" y="722"/>
      <point x="124" y="699" type="curve"/>
      <point x="215" y="699"/>
      <point x="296" y="699"/>
      <point x="388" y="699" type="curve"/>
      <point x="388" y="722"/>
      <point x="388" y="699"/>
    </contour>
  </outline>
</glyph>
<glyph name="six" format="1">
  <advance width="516"/>
  <unicode hex="0036"/>
  <outline>
    <contour>
      <point x="84" y="230" type="curve"/>
      <point x="109" y="312"/>
      <point x="170" y="385"/>
      <point x="263" y="385" type="curve"/>
      <point x="369" y="385"/>
      <point x="420" y="313"/>
      <point x="420" y="202" type="curve"/>
      <point x="420" y="102"/>
      <point x="369" y="20"/>
      <point x="268" y="20" type="curve"/>
      <point x="145" y="20"/>
      <point x="88" y="111"/>
      <point x="88" y="242" type="curve"/>
      <point x="88" y="485"/>
      <point x="229" y="636"/>
      <point x="455" y="714" type="curve"/>
      <point x="447" y="735"/>
      <point x="455" y="714"/>
      <point x="447" y="735" type="curve"/>
      <point x="210" y="657"/>
      <point x="62" y="500"/>
      <point x="62" y="241" type="curve"/>
      <point x="62" y="96"/>
      <point x="129" y="-5"/>
      <point x="267" y="-5" type="curve"/>
      <point x="386" y="-5"/>
      <point x="447" y="79"/>
      <point x="447" y="203" type="curve"/>
      <point x="447" y="328"/>
      <point x="384" y="409"/>
      <point x="266" y="409" type="curve"/>
      <point x="159" y="409"/>
      <point x="93" y="337"/>
      <point x="65" y="241" type="curve"/>
      <point x="82" y="230"/>
      <point x="67" y="241"/>
    </contour>
  </outline>
</glyph>
<glyph name="seven" format="1">
  <advance width="488"/>
  <unicode hex="0037"/>
  <outline>
    <contour>
      <point x="74" y="595" type="line"/>
      <point x="74" y="715" type="line"/>
      <point x="52" y="715" type="line"/>
      <point x="52" y="595" type="line"/>
    </contour>
    <contour>
      <point x="52" y="699" type="line"/>
      <point x="469" y="699" type="line"/>
      <point x="469" y="722" type="line"/>
      <point x="52" y="722" type="line"/>
    </contour>
    <contour>
      <point x="453" y="722" type="line"/>
      <point x="91" y="0" type="line"/>
      <point x="120" y="0" type="line"/>
      <point x="469" y="699" type="line"/>
    </contour>
  </outline>
</glyph>
<glyph name="eight" format="1">
  <advance width="495"/>
  <unicode hex="0038"/>
  <outline>
    <contour>
      <point x="84" y="564" type="curve"/>
      <point x="84" y="461"/>
      <point x="150" y="421"/>
      <point x="240" y="369" type="curve"/>
      <point x="333" y="315"/>
      <point x="402" y="270"/>
      <point x="402" y="169" type="curve"/>
      <point x="402" y="72"/>
      <point x="345" y="19"/>
      <point x="246" y="19" type="curve"/>
      <point x="148" y="19"/>
      <point x="93" y="72"/>
      <point x="93" y="169" type="curve"/>
      <point x="93" y="272"/>
      <point x="163" y="314"/>
      <point x="257" y="369" type="curve"/>
      <point x="344" y="422"/>
      <point x="411" y="461"/>
      <point x="411" y="562" type="curve"/>
      <point x="411" y="668"/>
      <point x="354" y="727"/>
      <point x="246" y="727" type="curve"/>
      <point x="142" y="727"/>
      <point x="84" y="667"/>
      <point x="84" y="564" type="curve"/>
      <point x="109" y="564"/>
      <point x="84" y="564"/>
      <point x="109" y="564" type="curve"/>
      <point x="109" y="650"/>
      <point x="158" y="703"/>
      <point x="245" y="703" type="curve"/>
      <point x="337" y="703"/>
      <point x="386" y="653"/>
      <point x="386" y="562" type="curve"/>
      <point x="386" y="472"/>
      <point x="323" y="434"/>
      <point x="240" y="387" type="curve"/>
      <point x="140" y="328"/>
      <point x="67" y="284"/>
      <point x="67" y="169" type="curve"/>
      <point x="67" y="57"/>
      <point x="131" y="-5"/>
      <point x="245" y="-5" type="curve"/>
      <point x="359" y="-5"/>
      <point x="428" y="55"/>
      <point x="428" y="169" type="curve"/>
      <point x="428" y="282"/>
      <point x="355" y="329"/>
      <point x="257" y="387" type="curve"/>
      <point x="174" y="437"/>
      <point x="109" y="472"/>
      <point x="109" y="564" type="curve"/>
      <point x="84" y="564"/>
      <point x="109" y="564"/>
    </contour>
  </outline>
</glyph>
<glyph name="nine" format="1">
  <advance width="515"/>
  <unicode hex="0039"/>
  <outline>
    <contour>
      <point x="432" y="490" type="curve"/>
      <point x="399" y="409"/>
      <point x="349" y="337"/>
      <point x="251" y="337" type="curve"/>
      <point x="146" y="337"/>
      <point x="94" y="409"/>
      <point x="94" y="520" type="curve"/>
      <point x="94" y="627"/>
      <point x="145" y="702"/>
      <point x="246" y="702" type="curve"/>
      <point x="369" y="702"/>
      <point x="426" y="609"/>
      <point x="426" y="480" type="curve"/>
      <point x="426" y="237"/>
      <point x="297" y="87"/>
      <point x="63" y="9" type="curve"/>
      <point x="72" y="-15"/>
      <point x="63" y="9"/>
      <point x="72" y="-15" type="curve"/>
      <point x="317" y="64"/>
      <point x="452" y="222"/>
      <point x="452" y="481" type="curve"/>
      <point x="452" y="626"/>
      <point x="387" y="727"/>
      <point x="247" y="727" type="curve"/>
      <point x="128" y="727"/>
      <point x="68" y="643"/>
      <point x="68" y="519" type="curve"/>
      <point x="68" y="394"/>
      <point x="129" y="313"/>
      <point x="249" y="313" type="curve"/>
      <point x="356" y="313"/>
      <point x="413" y="379"/>
      <point x="447" y="482" type="curve"/>
      <point x="432" y="490"/>
      <point x="447" y="482"/>
    </contour>
  </outline>
</glyph>
<glyph name="colon" format="1">
  <advance width="213"/>
  <unicode hex="003A"/>
  <outline>
    <contour>
      <point x="125" y="414" type="curve"/>
      <point x="125" y="425"/>
      <point x="117" y="432"/>
      <point x="106" y="432" type="curve"/>
      <point x="94" y="432"/>
      <point x="88" y="424"/>
      <point x="88" y="414" type="curve"/>
      <point x="119" y="414"/>
      <point x="94" y="414"/>
      <point x="125" y="414" type="curve"/>
      <point x="125" y="402"/>
      <point x="117" y="396"/>
      <point x="106" y="396" type="curve"/>
      <point x="94" y="396"/>
      <point x="88" y="402"/>
      <point x="88" y="414" type="curve"/>
      <point x="119" y="414"/>
      <point x="94" y="414"/>
    </contour>
    <contour>
      <point x="125" y="13" type="curve"/>
      <point x="125" y="25"/>
      <point x="117" y="31"/>
      <point x="106" y="31" type="curve"/>
      <point x="94" y="31"/>
      <point x="88" y="24"/>
      <point x="88" y="13" type="curve"/>
      <point x="119" y="13"/>
      <point x="94" y="13"/>
      <point x="125" y="13" type="curve"/>
      <point x="125" y="2"/>
      <point x="117" y="-5"/>
      <point x="106" y="-5" type="curve"/>
      <point x="94" y="-5"/>
      <point x="88" y="2"/>
      <point x="88" y="13" type="curve"/>
      <point x="119" y="13"/>
      <point x="94" y="13"/>
    </contour>
  </outline>
</glyph>
<glyph name="semicolon" format="1">
  <advance width="253"/>
  <unicode hex="003B"/>
  <outline>
    <contour>
      <point x="95" y="-95" type="line"/>
      <point x="121" y="-71"/>
      <point x="144" y="-41"/>
      <point x="144" y="9" type="curve"/>
      <point x="144" y="30"/>
      <point x="140" y="47"/>
      <point x="121" y="47" type="curve"/>
      <point x="108" y="47"/>
      <point x="101" y="41"/>
      <point x="101" y="29" type="curve"/>
      <point x="101" y="18"/>
      <point x="105" y="12"/>
      <point x="116" y="7" type="curve"/>
      <point x="116" y="-15"/>
      <point x="106" y="-53"/>
      <point x="79" y="-77" type="curve"/>
    </contour>
    <contour>
      <point x="145" y="427" type="curve"/>
      <point x="145" y="439"/>
      <point x="137" y="445"/>
      <point x="125" y="445" type="curve"/>
      <point x="114" y="445"/>
      <point x="108" y="438"/>
      <point x="108" y="427" type="curve"/>
      <point x="138" y="427"/>
      <point x="114" y="427"/>
      <point x="145" y="427" type="curve"/>
      <point x="145" y="416"/>
      <point x="137" y="410"/>
      <point x="125" y="410" type="curve"/>
      <point x="114" y="410"/>
      <point x="108" y="416"/>
      <point x="108" y="427" type="curve"/>
      <point x="138" y="427"/>
      <point x="114" y="427"/>
    </contour>
  </outline>
</glyph>
<glyph name="equal" format="1">
  <advance width="727"/>
  <unicode hex="003D"/>
  <outline>
    <contour>
      <point x="89" y="206" type="curve"/>
      <point x="271" y="206"/>
      <point x="454" y="206"/>
      <point x="637" y="206" type="curve"/>
      <point x="637" y="229"/>
      <point x="637" y="206"/>
      <point x="637" y="229" type="curve"/>
      <point x="454" y="229"/>
      <point x="271" y="229"/>
      <point x="89" y="229" type="curve"/>
      <point x="89" y="206"/>
      <point x="89" y="229"/>
    </contour>
    <contour>
      <point x="89" y="428" type="curve"/>
      <point x="271" y="428"/>
      <point x="454" y="428"/>
      <point x="637" y="428" type="curve"/>
      <point x="637" y="451"/>
      <point x="637" y="428"/>
      <point x="637" y="451" type="curve"/>
      <point x="454" y="451"/>
      <point x="271" y="451"/>
      <point x="89" y="451" type="curve"/>
      <point x="89" y="428"/>
      <point x="89" y="451"/>
    </contour>
  </outline>
</glyph>
<glyph name="question" format="1">
  <advance width="447"/>
  <unicode hex="003F"/>
  <outline>
    <contour>
      <point x="186" y="334" type="curve"/>
      <point x="186" y="297"/>
      <point x="186" y="258"/>
      <point x="186" y="221" type="curve"/>
      <point x="212" y="221"/>
      <point x="186" y="221"/>
      <point x="212" y="221" type="curve"/>
      <point x="212" y="258"/>
      <point x="212" y="297"/>
      <point x="212" y="334" type="curve"/>
      <point x="186" y="334"/>
      <point x="212" y="334"/>
    </contour>
    <contour>
      <point x="82" y="623" type="line"/>
      <point x="108" y="658"/>
      <point x="148" y="687"/>
      <point x="204" y="687" type="curve"/>
      <point x="302" y="687"/>
      <point x="356" y="619"/>
      <point x="356" y="519" type="curve"/>
      <point x="356" y="410"/>
      <point x="296" y="334"/>
      <point x="190" y="334" type="curve"/>
      <point x="190" y="315"/>
      <point x="190" y="330"/>
      <point x="190" y="311" type="curve"/>
      <point x="311" y="311"/>
      <point x="382" y="396"/>
      <point x="382" y="519" type="curve"/>
      <point x="382" y="632"/>
      <point x="316" y="710"/>
      <point x="206" y="710" type="curve"/>
      <point x="138" y="710"/>
      <point x="95" y="678"/>
      <point x="64" y="637" type="curve"/>
    </contour>
    <contour>
      <point x="216" y="12" type="curve"/>
      <point x="216" y="23"/>
      <point x="209" y="29"/>
      <point x="198" y="29" type="curve"/>
      <point x="188" y="29"/>
      <point x="182" y="22"/>
      <point x="182" y="12" type="curve"/>
      <point x="216" y="12"/>
      <point x="182" y="12"/>
      <point x="216" y="12" type="curve"/>
      <point x="216" y="1"/>
      <point x="209" y="-4"/>
      <point x="198" y="-4" type="curve"/>
      <point x="188" y="-4"/>
      <point x="182" y="2"/>
      <point x="182" y="12" type="curve"/>
      <point x="216" y="12"/>
      <point x="182" y="12"/>
    </contour>
  </outline>
</glyph>
<glyph name="at" format="1">
  <advance width="721"/>
  <unicode hex="0040"/>
  <outline>
    <contour>
      <point x="509" y="-95" type="curve"/>
      <point x="462" y="-124"/>
      <point x="426" y="-132"/>
      <point x="371" y="-132" type="curve"/>
      <point x="178" y="-132"/>
      <point x="86" y="-3"/>
      <point x="86" y="197" type="curve"/>
      <point x="86" y="393"/>
      <point x="180" y="522"/>
      <point x="369" y="522" type="curve"/>
      <point x="547" y="522"/>
      <point x="632" y="396"/>
      <point x="632" y="212" type="curve"/>
      <point x="632" y="126"/>
      <point x="622" y="52"/>
      <point x="563" y="52" type="curve"/>
      <point x="498" y="52"/>
      <point x="488" y="121"/>
      <point x="488" y="202" type="curve"/>
      <point x="488" y="303"/>
      <point x="450" y="375"/>
      <point x="357" y="375" type="curve"/>
      <point x="260" y="375"/>
      <point x="217" y="305"/>
      <point x="217" y="203" type="curve"/>
      <point x="217" y="95"/>
      <point x="255" y="19"/>
      <point x="354" y="19" type="curve"/>
      <point x="444" y="19"/>
      <point x="471" y="94"/>
      <point x="483" y="192" type="curve"/>
      <point x="468" y="195"/>
      <point x="483" y="192"/>
      <point x="468" y="195" type="curve"/>
      <point x="451" y="114"/>
      <point x="429" y="42"/>
      <point x="357" y="42" type="curve"/>
      <point x="270" y="42"/>
      <point x="241" y="110"/>
      <point x="241" y="204" type="curve"/>
      <point x="241" y="292"/>
      <point x="273" y="352"/>
      <point x="354" y="352" type="curve"/>
      <point x="436" y="352"/>
      <point x="465" y="289"/>
      <point x="465" y="201" type="curve"/>
      <point x="465" y="108"/>
      <point x="478" y="31"/>
      <point x="561" y="31" type="curve"/>
      <point x="647" y="31"/>
      <point x="657" y="113"/>
      <point x="657" y="213" type="curve"/>
      <point x="657" y="414"/>
      <point x="566" y="546"/>
      <point x="371" y="546" type="curve"/>
      <point x="164" y="546"/>
      <point x="61" y="410"/>
      <point x="61" y="196" type="curve"/>
      <point x="61" y="-18"/>
      <point x="163" y="-155"/>
      <point x="369" y="-155" type="curve"/>
      <point x="430" y="-155"/>
      <point x="470" y="-146"/>
      <point x="520" y="-116" type="curve"/>
      <point x="509" y="-95"/>
      <point x="520" y="-116"/>
    </contour>
  </outline>
</glyph>
<glyph name="B" format="1">
  <advance width="591"/>
  <unicode hex="0042"/>
  <outline>
    <contour>
      <point x="168" y="722" type="curve"/>
      <point x="121" y="722"/>
      <point x="88" y="722"/>
      <point x="41" y="722" type="curve"/>
      <point x="41" y="699"/>
      <point x="41" y="722"/>
      <point x="41" y="699" type="curve"/>
      <point x="183" y="699"/>
      <point x="26" y="699"/>
      <point x="168" y="699" type="curve"/>
      <point x="168" y="722"/>
      <point x="168" y="699"/>
    </contour>
    <contour>
      <point x="167" y="23" type="curve"/>
      <point x="25" y="23"/>
      <point x="182" y="23"/>
      <point x="40" y="23" type="curve"/>
      <point x="40" y="0"/>
      <point x="40" y="23"/>
      <point x="40" y="0" type="curve"/>
      <point x="87" y="0"/>
      <point x="120" y="0"/>
      <point x="167" y="0" type="curve"/>
      <point x="167" y="23"/>
      <point x="167" y="0"/>
    </contour>
    <contour>
      <point x="158" y="699" type="curve"/>
      <point x="217" y="699"/>
      <point x="264" y="699"/>
      <point x="322" y="699" type="curve"/>
      <point x="410" y="699"/>
      <point x="462" y="645"/>
      <point x="462" y="555" type="curve"/>
      <point x="462" y="467"/>
      <point x="400" y="421"/>
      <point x="312" y="421" type="curve"/>
      <point x="256" y="421"/>
      <point x="213" y="421"/>
      <point x="158" y="421" type="curve"/>
      <point x="158" y="409"/>
      <point x="158" y="411"/>
      <point x="158" y="398" type="curve"/>
      <point x="209" y="398"/>
      <point x="251" y="398"/>
      <point x="301" y="398" type="curve"/>
      <point x="410" y="398"/>
      <point x="488" y="450"/>
      <point x="488" y="555" type="curve"/>
      <point x="488" y="659"/>
      <point x="426" y="722"/>
      <point x="322" y="722" type="curve"/>
      <point x="264" y="722"/>
      <point x="217" y="722"/>
      <point x="158" y="722" type="curve"/>
      <point x="158" y="710"/>
      <point x="158" y="711"/>
    </contour>
    <contour>
      <point x="180" y="0" type="curve"/>
      <point x="180" y="241"/>
      <point x="180" y="481"/>
      <point x="180" y="722" type="curve"/>
      <point x="153" y="722"/>
      <point x="180" y="722"/>
      <point x="153" y="722" type="curve"/>
      <point x="153" y="481"/>
      <point x="154" y="241"/>
      <point x="153" y="0" type="curve"/>
      <point x="180" y="0"/>
      <point x="153" y="0"/>
    </contour>
    <contour>
      <point x="158" y="398" type="curve"/>
      <point x="213" y="398"/>
      <point x="256" y="398"/>
      <point x="312" y="398" type="curve"/>
      <point x="432" y="398"/>
      <point x="503" y="328"/>
      <point x="503" y="204" type="curve"/>
      <point x="503" y="90"/>
      <point x="437" y="23"/>
      <point x="322" y="23" type="curve"/>
      <point x="263" y="23"/>
      <point x="217" y="23"/>
      <point x="158" y="23" type="curve"/>
      <point x="158" y="11"/>
      <point x="158" y="12"/>
      <point x="158" y="0" type="curve"/>
      <point x="217" y="0"/>
      <point x="263" y="0"/>
      <point x="322" y="0" type="curve"/>
      <point x="452" y="0"/>
      <point x="529" y="75"/>
      <point x="529" y="204" type="curve"/>
      <point x="529" y="345"/>
      <point x="442" y="421"/>
      <point x="302" y="421" type="curve"/>
      <point x="252" y="421"/>
      <point x="209" y="421"/>
      <point x="158" y="421" type="curve"/>
      <point x="158" y="409"/>
      <point x="158" y="411"/>
    </contour>
  </outline>
</glyph>
<glyph name="C" format="1">
  <advance width="612"/>
  <unicode hex="0043"/>
  <outline>
    <contour>
      <point x="526" y="655" type="curve"/>
      <point x="526" y="535"/>
      <point x="526" y="655"/>
      <point x="526" y="535" type="curve"/>
      <point x="549" y="535"/>
      <point x="526" y="535"/>
      <point x="549" y="535" type="curve"/>
      <point x="549" y="655"/>
      <point x="549" y="535"/>
      <point x="549" y="655" type="curve"/>
      <point x="526" y="655"/>
      <point x="549" y="655"/>
    </contour>
    <contour>
      <point x="549" y="655" type="curve"/>
      <point x="492" y="695"/>
      <point x="427" y="727"/>
      <point x="351" y="727" type="curve"/>
      <point x="147" y="727"/>
      <point x="68" y="568"/>
      <point x="68" y="344" type="curve"/>
      <point x="68" y="139"/>
      <point x="143" y="-5"/>
      <point x="332" y="-5" type="curve"/>
      <point x="433" y="-5"/>
      <point x="495" y="32"/>
      <point x="566" y="96" type="curve"/>
      <point x="549" y="114"/>
      <point x="565" y="96"/>
      <point x="549" y="114" type="curve"/>
      <point x="484" y="54"/>
      <point x="425" y="21"/>
      <point x="334" y="21" type="curve"/>
      <point x="160" y="21"/>
      <point x="93" y="156"/>
      <point x="93" y="345" type="curve"/>
      <point x="93" y="551"/>
      <point x="165" y="702"/>
      <point x="350" y="702" type="curve"/>
      <point x="421" y="702"/>
      <point x="483" y="675"/>
      <point x="535" y="637" type="curve"/>
      <point x="549" y="655"/>
      <point x="535" y="637"/>
    </contour>
    <contour>
      <point x="348" y="825" type="move" name="top"/>
    </contour>
    <contour>
      <point x="331" y="-1" type="move" name="bottom"/>
    </contour>
  </outline>
</glyph>
<glyph name="F" format="1">
  <advance width="567"/>
  <unicode hex="0046"/>
  <outline>
    <contour>
      <point x="168" y="0" type="curve"/>
      <point x="215" y="0"/>
      <point x="168" y="0"/>
      <point x="310" y="0" type="curve"/>
      <point x="310" y="23"/>
      <point x="310" y="0"/>
      <point x="310" y="23" type="curve"/>
      <point x="168" y="23"/>
      <point x="310" y="23"/>
      <point x="168" y="23" type="curve"/>
      <point x="168" y="0"/>
      <point x="168" y="23"/>
    </contour>
    <contour>
      <point x="168" y="722" type="curve"/>
      <point x="121" y="722"/>
      <point x="88" y="722"/>
      <point x="41" y="722" type="curve"/>
      <point x="41" y="699"/>
      <point x="41" y="722"/>
      <point x="41" y="699" type="curve"/>
      <point x="183" y="699"/>
      <point x="26" y="699"/>
      <point x="168" y="699" type="curve"/>
      <point x="168" y="722"/>
      <point x="168" y="699"/>
    </contour>
    <contour>
      <point x="168" y="23" type="curve"/>
      <point x="26" y="23"/>
      <point x="183" y="23"/>
      <point x="41" y="23" type="curve"/>
      <point x="41" y="0"/>
      <point x="41" y="23"/>
      <point x="41" y="0" type="curve"/>
      <point x="88" y="0"/>
      <point x="121" y="0"/>
      <point x="168" y="0" type="curve"/>
      <point x="168" y="23"/>
      <point x="168" y="0"/>
    </contour>
    <contour>
      <point x="493" y="711" type="curve"/>
      <point x="493" y="591"/>
      <point x="493" y="718"/>
      <point x="493" y="598" type="curve"/>
      <point x="516" y="598"/>
      <point x="493" y="598"/>
      <point x="516" y="598" type="curve"/>
      <point x="516" y="718"/>
      <point x="516" y="591"/>
      <point x="516" y="711" type="curve"/>
      <point x="493" y="711"/>
      <point x="516" y="711"/>
    </contour>
    <contour>
      <point x="172" y="363" type="curve"/>
      <point x="265" y="363"/>
      <point x="359" y="363"/>
      <point x="452" y="363" type="curve"/>
      <point x="452" y="385"/>
      <point x="452" y="363"/>
      <point x="452" y="385" type="curve"/>
      <point x="359" y="385"/>
      <point x="265" y="385"/>
      <point x="172" y="385" type="curve"/>
      <point x="172" y="363"/>
      <point x="172" y="385"/>
    </contour>
    <contour>
      <point x="181" y="0" type="curve"/>
      <point x="181" y="722" type="line"/>
      <point x="155" y="722"/>
      <point x="181" y="722"/>
      <point x="155" y="722" type="curve"/>
      <point x="155" y="481"/>
      <point x="155" y="241"/>
      <point x="155" y="0" type="curve"/>
      <point x="181" y="0"/>
      <point x="155" y="0"/>
    </contour>
    <contour>
      <point x="158" y="699" type="curve"/>
      <point x="278" y="699"/>
      <point x="396" y="699"/>
      <point x="516" y="699" type="curve"/>
      <point x="516" y="722"/>
      <point x="516" y="699"/>
      <point x="516" y="722" type="curve"/>
      <point x="396" y="722"/>
      <point x="278" y="722"/>
      <point x="158" y="722" type="curve"/>
      <point x="158" y="699"/>
      <point x="158" y="722"/>
    </contour>
  </outline>
</glyph>
<glyph name="G" format="1">
  <advance width="683"/>
  <unicode hex="0047"/>
  <outline>
    <contour>
      <point x="574" y="642" type="curve"/>
      <point x="574" y="522"/>
      <point x="574" y="649"/>
      <point x="574" y="529" type="curve"/>
      <point x="597" y="529"/>
      <point x="574" y="529"/>
      <point x="597" y="529" type="curve"/>
      <point x="597" y="649"/>
      <point x="597" y="522"/>
      <point x="597" y="642" type="curve"/>
      <point x="574" y="642"/>
      <point x="597" y="642"/>
    </contour>
    <contour>
      <point x="603" y="320" type="curve"/>
      <point x="540" y="320"/>
      <point x="475" y="320"/>
      <point x="412" y="320" type="curve"/>
      <point x="412" y="297"/>
      <point x="412" y="320"/>
      <point x="412" y="297" type="curve"/>
      <point x="475" y="297"/>
      <point x="540" y="297"/>
      <point x="603" y="297" type="curve"/>
      <point x="603" y="320"/>
      <point x="603" y="297"/>
    </contour>
    <contour>
      <point x="612" y="77" type="curve"/>
      <point x="612" y="158"/>
      <point x="612" y="238"/>
      <point x="612" y="320" type="curve"/>
      <point x="589" y="320"/>
      <point x="612" y="320"/>
      <point x="589" y="320" type="curve"/>
      <point x="589" y="238"/>
      <point x="589" y="158"/>
      <point x="589" y="77" type="curve"/>
      <point x="612" y="77"/>
      <point x="589" y="77"/>
    </contour>
    <contour>
      <point x="597" y="642" type="curve"/>
      <point x="521" y="698"/>
      <point x="449" y="727"/>
      <point x="354" y="727" type="curve"/>
      <point x="154" y="727"/>
      <point x="65" y="581"/>
      <point x="65" y="365" type="curve"/>
      <point x="65" y="143"/>
      <point x="158" y="-5"/>
      <point x="364" y="-5" type="curve"/>
      <point x="465" y="-5"/>
      <point x="528" y="23"/>
      <point x="612" y="77" type="curve"/>
      <point x="597" y="97"/>
      <point x="612" y="77"/>
      <point x="597" y="97" type="curve"/>
      <point x="531" y="51"/>
      <point x="458" y="20"/>
      <point x="365" y="20" type="curve"/>
      <point x="172" y="20"/>
      <point x="91" y="160"/>
      <point x="91" y="367" type="curve"/>
      <point x="91" y="564"/>
      <point x="171" y="702"/>
      <point x="355" y="702" type="curve"/>
      <point x="444" y="702"/>
      <point x="512" y="675"/>
      <point x="585" y="623" type="curve"/>
      <point x="597" y="642"/>
      <point x="585" y="623"/>
    </contour>
    <contour>
      <point x="353" y="825" type="move" name="top"/>
    </contour>
    <contour>
      <point x="368" y="-57" type="move" name="bottom"/>
    </contour>
  </outline>
</glyph>
<glyph name="H" format="1">
  <advance width="776"/>
  <unicode hex="0048"/>
  <outline>
    <contour>
      <point x="609" y="699" type="curve"/>
      <point x="751" y="699"/>
      <point x="594" y="699"/>
      <point x="736" y="699" type="curve"/>
      <point x="736" y="722"/>
      <point x="736" y="699"/>
      <point x="736" y="722" type="curve"/>
      <point x="689" y="722"/>
      <point x="656" y="722"/>
      <point x="609" y="722" type="curve"/>
      <point x="609" y="699"/>
      <point x="609" y="722"/>
    </contour>
    <contour>
      <point x="609" y="0" type="curve"/>
      <point x="656" y="0"/>
      <point x="689" y="0"/>
      <point x="736" y="0" type="curve"/>
      <point x="736" y="23"/>
      <point x="736" y="0"/>
      <point x="736" y="23" type="curve"/>
      <point x="594" y="23"/>
      <point x="751" y="23"/>
      <point x="609" y="23" type="curve"/>
      <point x="609" y="0"/>
      <point x="609" y="23"/>
    </contour>
    <contour>
      <point x="609" y="23" type="curve"/>
      <point x="467" y="23"/>
      <point x="624" y="23"/>
      <point x="482" y="23" type="curve"/>
      <point x="482" y="0"/>
      <point x="482" y="23"/>
      <point x="482" y="0" type="curve"/>
      <point x="529" y="0"/>
      <point x="562" y="0"/>
      <point x="609" y="0" type="curve"/>
      <point x="609" y="23"/>
      <point x="609" y="0"/>
    </contour>
    <contour>
      <point x="609" y="722" type="curve"/>
      <point x="562" y="722"/>
      <point x="529" y="722"/>
      <point x="482" y="722" type="curve"/>
      <point x="482" y="699"/>
      <point x="482" y="722"/>
      <point x="482" y="699" type="curve"/>
      <point x="624" y="699"/>
      <point x="467" y="699"/>
      <point x="609" y="699" type="curve"/>
      <point x="609" y="722"/>
      <point x="609" y="699"/>
    </contour>
    <contour>
      <point x="168" y="699" type="curve"/>
      <point x="310" y="699"/>
      <point x="153" y="699"/>
      <point x="295" y="699" type="curve"/>
      <point x="295" y="722"/>
      <point x="295" y="699"/>
      <point x="295" y="722" type="curve"/>
      <point x="248" y="722"/>
      <point x="215" y="722"/>
      <point x="168" y="722" type="curve"/>
      <point x="168" y="699"/>
      <point x="168" y="722"/>
    </contour>
    <contour>
      <point x="168" y="722" type="curve"/>
      <point x="121" y="722"/>
      <point x="88" y="722"/>
      <point x="41" y="722" type="curve"/>
      <point x="41" y="699"/>
      <point x="41" y="722"/>
      <point x="41" y="699" type="curve"/>
      <point x="182" y="699"/>
      <point x="26" y="699"/>
      <point x="168" y="699" type="curve"/>
      <point x="168" y="722"/>
      <point x="168" y="699"/>
    </contour>
    <contour>
      <point x="168" y="0" type="curve"/>
      <point x="215" y="0"/>
      <point x="153" y="0"/>
      <point x="295" y="0" type="curve"/>
      <point x="295" y="23"/>
      <point x="295" y="0"/>
      <point x="295" y="23" type="curve"/>
      <point x="153" y="23"/>
      <point x="310" y="23"/>
      <point x="168" y="23" type="curve"/>
      <point x="168" y="0"/>
      <point x="168" y="23"/>
    </contour>
    <contour>
      <point x="168" y="23" type="curve"/>
      <point x="26" y="23"/>
      <point x="182" y="23"/>
      <point x="41" y="23" type="curve"/>
      <point x="41" y="0"/>
      <point x="41" y="23"/>
      <point x="41" y="0" type="curve"/>
      <point x="88" y="0"/>
      <point x="121" y="0"/>
      <point x="168" y="0" type="curve"/>
      <point x="168" y="23"/>
      <point x="168" y="0"/>
    </contour>
    <contour>
      <point x="180" y="0" type="curve"/>
      <point x="180" y="722" type="line"/>
      <point x="155" y="722"/>
      <point x="180" y="722"/>
      <point x="155" y="722" type="curve"/>
      <point x="155" y="481"/>
      <point x="155" y="241"/>
      <point x="155" y="0" type="curve"/>
      <point x="180" y="0"/>
      <point x="155" y="0"/>
    </contour>
    <contour>
      <point x="607" y="374" type="curve"/>
      <point x="460" y="374"/>
      <point x="314" y="374"/>
      <point x="168" y="374" type="curve"/>
      <point x="168" y="352"/>
      <point x="168" y="374"/>
      <point x="168" y="352" type="curve"/>
      <point x="314" y="352"/>
      <point x="460" y="352"/>
      <point x="607" y="352" type="curve"/>
      <point x="607" y="374"/>
      <point x="607" y="352"/>
    </contour>
    <contour>
      <point x="621" y="1" type="curve"/>
      <point x="621" y="241"/>
      <point x="621" y="481"/>
      <point x="621" y="721" type="curve"/>
      <point x="595" y="721"/>
      <point x="621" y="721"/>
      <point x="595" y="721" type="curve"/>
      <point x="595" y="1" type="line"/>
      <point x="621" y="1"/>
      <point x="595" y="1"/>
    </contour>
  </outline>
</glyph>
<glyph name="J" format="1">
  <advance width="436"/>
  <unicode hex="004A"/>
  <outline>
    <contour>
      <point x="288" y="722" type="curve"/>
      <point x="242" y="722"/>
      <point x="210" y="722"/>
      <point x="164" y="722" type="curve"/>
      <point x="164" y="699"/>
      <point x="164" y="722"/>
      <point x="164" y="699" type="curve"/>
      <point x="303" y="699"/>
      <point x="149" y="699"/>
      <point x="288" y="699" type="curve"/>
      <point x="288" y="722"/>
      <point x="288" y="699"/>
    </contour>
    <contour>
      <point x="288" y="699" type="curve"/>
      <point x="425" y="699"/>
      <point x="274" y="699"/>
      <point x="411" y="699" type="curve"/>
      <point x="411" y="722"/>
      <point x="411" y="699"/>
      <point x="411" y="722" type="curve"/>
      <point x="365" y="722"/>
      <point x="334" y="722"/>
      <point x="288" y="722" type="curve"/>
      <point x="288" y="699"/>
      <point x="288" y="722"/>
    </contour>
    <contour>
      <point x="31" y="39" type="curve"/>
      <point x="60" y="16"/>
      <point x="94" y="-4"/>
      <point x="140" y="-4" type="curve"/>
      <point x="258" y="-4"/>
      <point x="300" y="81"/>
      <point x="300" y="216" type="curve"/>
      <point x="300" y="401"/>
      <point x="300" y="537"/>
      <point x="300" y="722" type="curve"/>
      <point x="285" y="722"/>
      <point x="289" y="722"/>
      <point x="274" y="722" type="curve"/>
      <point x="274" y="537"/>
      <point x="274" y="401"/>
      <point x="274" y="216" type="curve"/>
      <point x="274" y="102"/>
      <point x="243" y="19"/>
      <point x="140" y="19" type="curve"/>
      <point x="100" y="19"/>
      <point x="73" y="38"/>
      <point x="44" y="57" type="curve"/>
      <point x="37" y="47"/>
      <point x="38" y="49"/>
    </contour>
  </outline>
</glyph>
<glyph name="K" format="1">
  <advance width="639"/>
  <unicode hex="004B"/>
  <outline>
    <contour>
      <point x="490" y="722" type="curve"/>
      <point x="442" y="722"/>
      <point x="424" y="722"/>
      <point x="377" y="722" type="curve"/>
      <point x="377" y="699"/>
      <point x="377" y="722"/>
      <point x="377" y="699" type="curve"/>
      <point x="519" y="699"/>
      <point x="348" y="699"/>
      <point x="490" y="699" type="curve"/>
      <point x="490" y="722"/>
      <point x="490" y="699"/>
    </contour>
    <contour>
      <point x="511" y="0" type="curve"/>
      <point x="557" y="0"/>
      <point x="581" y="0"/>
      <point x="628" y="0" type="curve"/>
      <point x="628" y="23"/>
      <point x="628" y="0"/>
      <point x="628" y="23" type="curve"/>
      <point x="488" y="23"/>
      <point x="651" y="23"/>
      <point x="511" y="23" type="curve"/>
      <point x="511" y="0"/>
      <point x="511" y="23"/>
    </contour>
    <contour>
      <point x="490" y="699" type="curve"/>
      <point x="629" y="699"/>
      <point x="467" y="699"/>
      <point x="607" y="699" type="curve"/>
      <point x="607" y="722"/>
      <point x="607" y="699"/>
      <point x="607" y="722" type="curve"/>
      <point x="560" y="722"/>
      <point x="536" y="722"/>
      <point x="490" y="722" type="curve"/>
      <point x="490" y="699"/>
      <point x="490" y="722"/>
    </contour>
    <contour>
      <point x="168" y="722" type="curve"/>
      <point x="121" y="722"/>
      <point x="88" y="722"/>
      <point x="41" y="722" type="curve"/>
      <point x="41" y="699"/>
      <point x="41" y="722"/>
      <point x="41" y="699" type="curve"/>
      <point x="182" y="699"/>
      <point x="26" y="699"/>
      <point x="168" y="699" type="curve"/>
      <point x="168" y="722"/>
      <point x="168" y="699"/>
    </contour>
    <contour>
      <point x="168" y="699" type="curve"/>
      <point x="310" y="699"/>
      <point x="146" y="699"/>
      <point x="288" y="699" type="curve"/>
      <point x="288" y="722"/>
      <point x="288" y="699"/>
      <point x="288" y="722" type="curve"/>
      <point x="240" y="722"/>
      <point x="215" y="722"/>
      <point x="168" y="722" type="curve"/>
      <point x="168" y="699"/>
      <point x="168" y="722"/>
    </contour>
    <contour>
      <point x="168" y="0" type="curve"/>
      <point x="215" y="0"/>
      <point x="146" y="0"/>
      <point x="288" y="0" type="curve"/>
      <point x="288" y="23"/>
      <point x="288" y="0"/>
      <point x="288" y="23" type="curve"/>
      <point x="146" y="23"/>
      <point x="310" y="23"/>
      <point x="168" y="23" type="curve"/>
      <point x="168" y="0"/>
      <point x="168" y="23"/>
    </contour>
    <contour>
      <point x="168" y="23" type="curve"/>
      <point x="26" y="23"/>
      <point x="182" y="23"/>
      <point x="41" y="23" type="curve"/>
      <point x="41" y="0"/>
      <point x="41" y="23"/>
      <point x="41" y="0" type="curve"/>
      <point x="88" y="0"/>
      <point x="121" y="0"/>
      <point x="168" y="0" type="curve"/>
      <point x="168" y="23"/>
      <point x="168" y="0"/>
    </contour>
    <contour>
      <point x="485" y="722" type="curve"/>
      <point x="166" y="380" type="line"/>
      <point x="202" y="380"/>
      <point x="164" y="380"/>
      <point x="201" y="380" type="curve"/>
      <point x="523" y="721" type="line"/>
      <point x="482" y="721"/>
      <point x="525" y="722"/>
    </contour>
    <contour>
      <point x="181" y="0" type="curve"/>
      <point x="181" y="722" type="line"/>
      <point x="155" y="722"/>
      <point x="181" y="722"/>
      <point x="155" y="722" type="curve"/>
      <point x="155" y="481"/>
      <point x="155" y="241"/>
      <point x="155" y="0" type="curve"/>
      <point x="181" y="0"/>
      <point x="155" y="0"/>
    </contour>
    <contour>
      <point x="545" y="1" type="curve"/>
      <point x="201" y="380" type="line"/>
      <point x="164" y="380"/>
      <point x="202" y="380"/>
      <point x="166" y="380" type="curve"/>
      <point x="505" y="0" type="line"/>
      <point x="547" y="0"/>
      <point x="502" y="1"/>
    </contour>
    <contour>
      <point x="363" y="-58" type="move" name="bottom"/>
    </contour>
  </outline>
</glyph>
<glyph name="M" format="1">
  <advance width="907"/>
  <unicode hex="004D"/>
  <outline>
    <contour>
      <point x="755" y="0" type="curve"/>
      <point x="802" y="0"/>
      <point x="835" y="0"/>
      <point x="882" y="0" type="curve"/>
      <point x="882" y="23"/>
      <point x="882" y="0"/>
      <point x="882" y="23" type="curve"/>
      <point x="740" y="23"/>
      <point x="897" y="23"/>
      <point x="755" y="23" type="curve"/>
      <point x="755" y="0"/>
      <point x="755" y="23"/>
    </contour>
    <contour>
      <point x="755" y="23" type="curve"/>
      <point x="613" y="23"/>
      <point x="770" y="23"/>
      <point x="627" y="23" type="curve"/>
      <point x="627" y="0"/>
      <point x="627" y="23"/>
      <point x="627" y="0" type="curve"/>
      <point x="675" y="0"/>
      <point x="707" y="0"/>
      <point x="755" y="0" type="curve"/>
      <point x="755" y="23"/>
      <point x="755" y="0"/>
    </contour>
    <contour>
      <point x="153" y="23" type="curve"/>
      <point x="12" y="23"/>
      <point x="168" y="23"/>
      <point x="26" y="23" type="curve"/>
      <point x="26" y="0"/>
      <point x="26" y="23"/>
      <point x="26" y="0" type="curve"/>
      <point x="73" y="0"/>
      <point x="106" y="0"/>
      <point x="153" y="0" type="curve"/>
      <point x="153" y="23"/>
      <point x="153" y="0"/>
    </contour>
    <contour>
      <point x="206" y="722" type="curve"/>
      <point x="157" y="722"/>
      <point x="125" y="722"/>
      <point x="78" y="722" type="curve"/>
      <point x="78" y="699"/>
      <point x="78" y="722"/>
      <point x="78" y="699" type="curve"/>
      <point x="220" y="699"/>
      <point x="63" y="699"/>
      <point x="206" y="699" type="curve"/>
      <point x="206" y="722"/>
      <point x="206" y="699"/>
    </contour>
    <contour>
      <point x="702" y="699" type="curve"/>
      <point x="844" y="699"/>
      <point x="687" y="699"/>
      <point x="829" y="699" type="curve"/>
      <point x="829" y="722"/>
      <point x="829" y="699"/>
      <point x="829" y="722" type="curve"/>
      <point x="782" y="722"/>
      <point x="749" y="722"/>
      <point x="702" y="722" type="curve"/>
      <point x="702" y="699"/>
      <point x="702" y="722"/>
    </contour>
    <contour>
      <point x="153" y="0" type="curve"/>
      <point x="201" y="0"/>
      <point x="139" y="0"/>
      <point x="281" y="0" type="curve"/>
      <point x="281" y="23"/>
      <point x="281" y="0"/>
      <point x="281" y="23" type="curve"/>
      <point x="139" y="23"/>
      <point x="295" y="23"/>
      <point x="153" y="23" type="curve"/>
      <point x="153" y="0"/>
      <point x="153" y="23"/>
    </contour>
    <contour>
      <point x="767" y="0" type="curve"/>
      <point x="748" y="241"/>
      <point x="731" y="481"/>
      <point x="712" y="722" type="curve"/>
      <point x="689" y="722"/>
      <point x="712" y="722"/>
      <point x="689" y="722" type="curve"/>
      <point x="707" y="481"/>
      <point x="724" y="241"/>
      <point x="742" y="0" type="curve"/>
      <point x="767" y="0"/>
      <point x="742" y="0"/>
    </contour>
    <contour>
      <point x="166" y="0" type="curve"/>
      <point x="182" y="241"/>
      <point x="198" y="481"/>
      <point x="215" y="722" type="curve"/>
      <point x="192" y="722"/>
      <point x="215" y="722"/>
      <point x="192" y="722" type="curve"/>
      <point x="175" y="481"/>
      <point x="157" y="241"/>
      <point x="140" y="0" type="curve"/>
      <point x="166" y="0"/>
      <point x="140" y="0"/>
    </contour>
    <contour>
      <point x="463" y="0" type="curve"/>
      <point x="381" y="241"/>
      <point x="300" y="481"/>
      <point x="218" y="722" type="curve"/>
      <point x="194" y="722"/>
      <point x="217" y="722"/>
      <point x="193" y="722" type="curve"/>
      <point x="275" y="481"/>
      <point x="356" y="241"/>
      <point x="438" y="0" type="curve"/>
      <point x="463" y="0"/>
      <point x="438" y="0"/>
    </contour>
    <contour>
      <point x="471" y="0" type="curve"/>
      <point x="551" y="241"/>
      <point x="631" y="481"/>
      <point x="711" y="722" type="curve"/>
      <point x="688" y="722"/>
      <point x="710" y="722"/>
      <point x="687" y="722" type="curve"/>
      <point x="606" y="481"/>
      <point x="525" y="241"/>
      <point x="444" y="0" type="curve"/>
      <point x="470" y="0"/>
      <point x="445" y="0"/>
    </contour>
  </outline>
</glyph>
<glyph name="P" format="1">
  <advance width="555"/>
  <unicode hex="0050"/>
  <outline>
    <contour>
      <point x="169" y="722" type="curve"/>
      <point x="122" y="722"/>
      <point x="89" y="722"/>
      <point x="42" y="722" type="curve"/>
      <point x="42" y="699"/>
      <point x="42" y="722"/>
      <point x="42" y="699" type="curve"/>
      <point x="184" y="699"/>
      <point x="27" y="699"/>
      <point x="169" y="699" type="curve"/>
      <point x="169" y="722"/>
      <point x="169" y="699"/>
    </contour>
    <contour>
      <point x="169" y="23" type="curve"/>
      <point x="27" y="23"/>
      <point x="184" y="23"/>
      <point x="42" y="23" type="curve"/>
      <point x="42" y="0"/>
      <point x="42" y="23"/>
      <point x="42" y="0" type="curve"/>
      <point x="89" y="0"/>
      <point x="122" y="0"/>
      <point x="169" y="0" type="curve"/>
      <point x="169" y="23"/>
      <point x="169" y="0"/>
    </contour>
    <contour>
      <point x="169" y="0" type="curve"/>
      <point x="216" y="0"/>
      <point x="154" y="0"/>
      <point x="296" y="0" type="curve"/>
      <point x="296" y="23"/>
      <point x="296" y="0"/>
      <point x="296" y="23" type="curve"/>
      <point x="154" y="23"/>
      <point x="310" y="23"/>
      <point x="169" y="23" type="curve"/>
      <point x="169" y="0"/>
      <point x="169" y="23"/>
    </contour>
    <contour>
      <point x="166" y="325" type="curve"/>
      <point x="209" y="299"/>
      <point x="252" y="280"/>
      <point x="304" y="280" type="curve"/>
      <point x="427" y="282"/>
      <point x="497" y="363"/>
      <point x="497" y="494" type="curve"/>
      <point x="497" y="630"/>
      <point x="417" y="722"/>
      <point x="283" y="722" type="curve"/>
      <point x="246" y="722"/>
      <point x="209" y="722"/>
      <point x="172" y="722" type="curve"/>
      <point x="172" y="699"/>
      <point x="172" y="722"/>
      <point x="172" y="699" type="curve"/>
      <point x="208" y="699"/>
      <point x="244" y="699"/>
      <point x="280" y="699" type="curve"/>
      <point x="401" y="699"/>
      <point x="472" y="616"/>
      <point x="472" y="493" type="curve"/>
      <point x="472" y="381"/>
      <point x="412" y="303"/>
      <point x="305" y="303" type="curve"/>
      <point x="253" y="303"/>
      <point x="219" y="320"/>
      <point x="175" y="346" type="curve"/>
      <point x="166" y="326"/>
      <point x="175" y="346"/>
    </contour>
    <contour>
      <point x="181" y="0" type="curve"/>
      <point x="181" y="241"/>
      <point x="181" y="481"/>
      <point x="181" y="722" type="curve"/>
      <point x="155" y="722"/>
      <point x="181" y="722"/>
      <point x="155" y="722" type="curve"/>
      <point x="155" y="481"/>
      <point x="155" y="241"/>
      <point x="155" y="0" type="curve"/>
      <point x="181" y="0"/>
      <point x="155" y="0"/>
    </contour>
  </outline>
</glyph>
<glyph name="Q" format="1">
  <advance width="689"/>
  <unicode hex="0051"/>
  <outline>
    <contour>
      <point x="330" y="4" type="curve"/>
      <point x="413" y="-163"/>
      <point x="512" y="-240"/>
      <point x="687" y="-240" type="curve"/>
      <point x="687" y="-216"/>
      <point x="687" y="-240"/>
      <point x="687" y="-216" type="curve"/>
      <point x="523" y="-216"/>
      <point x="431" y="-142"/>
      <point x="352" y="16" type="curve"/>
      <point x="330" y="4"/>
      <point x="352" y="16"/>
    </contour>
    <contour>
      <point x="93" y="360" type="curve"/>
      <point x="93" y="551"/>
      <point x="158" y="703"/>
      <point x="333" y="703" type="curve"/>
      <point x="507" y="703"/>
      <point x="574" y="553"/>
      <point x="574" y="363" type="curve"/>
      <point x="574" y="172"/>
      <point x="510" y="20"/>
      <point x="336" y="20" type="curve"/>
      <point x="159" y="20"/>
      <point x="93" y="169"/>
      <point x="93" y="360" type="curve"/>
      <point x="68" y="360"/>
      <point x="93" y="360"/>
      <point x="68" y="360" type="curve"/>
      <point x="68" y="153"/>
      <point x="145" y="-5"/>
      <point x="335" y="-5" type="curve"/>
      <point x="525" y="-5"/>
      <point x="599" y="156"/>
      <point x="599" y="364" type="curve"/>
      <point x="599" y="570"/>
      <point x="523" y="727"/>
      <point x="334" y="727" type="curve"/>
      <point x="144" y="727"/>
      <point x="68" y="567"/>
      <point x="68" y="360" type="curve"/>
      <point x="93" y="360"/>
      <point x="68" y="360"/>
    </contour>
  </outline>
</glyph>
<glyph name="R" format="1">
  <advance width="694"/>
  <unicode hex="0052"/>
  <outline>
    <contour>
      <point x="547" y="0" type="curve"/>
      <point x="594" y="0"/>
      <point x="626" y="0"/>
      <point x="674" y="0" type="curve"/>
      <point x="674" y="23"/>
      <point x="674" y="0"/>
      <point x="674" y="23" type="curve"/>
      <point x="532" y="23"/>
      <point x="688" y="23"/>
      <point x="547" y="23" type="curve"/>
      <point x="547" y="0"/>
      <point x="547" y="23"/>
    </contour>
    <contour>
      <point x="167" y="722" type="curve"/>
      <point x="120" y="722"/>
      <point x="87" y="722"/>
      <point x="40" y="722" type="curve"/>
      <point x="40" y="699"/>
      <point x="40" y="722"/>
      <point x="40" y="699" type="curve"/>
      <point x="182" y="699"/>
      <point x="25" y="699"/>
      <point x="167" y="699" type="curve"/>
      <point x="167" y="722"/>
      <point x="167" y="699"/>
    </contour>
    <contour>
      <point x="167" y="23" type="curve"/>
      <point x="25" y="23"/>
      <point x="182" y="23"/>
      <point x="40" y="23" type="curve"/>
      <point x="40" y="0"/>
      <point x="40" y="23"/>
      <point x="40" y="0" type="curve"/>
      <point x="87" y="0"/>
      <point x="120" y="0"/>
      <point x="167" y="0" type="curve"/>
      <point x="167" y="23"/>
      <point x="167" y="0"/>
    </contour>
    <contour>
      <point x="167" y="0" type="curve"/>
      <point x="214" y="0"/>
      <point x="152" y="0"/>
      <point x="295" y="0" type="curve"/>
      <point x="295" y="23"/>
      <point x="295" y="0"/>
      <point x="295" y="23" type="curve"/>
      <point x="152" y="23"/>
      <point x="310" y="23"/>
      <point x="167" y="23" type="curve"/>
      <point x="167" y="0"/>
      <point x="167" y="23"/>
    </contour>
    <contour>
      <point x="333" y="354" type="curve"/>
      <point x="377" y="267"/>
      <point x="499" y="87"/>
      <point x="543" y="0" type="curve"/>
      <point x="573" y="0"/>
      <point x="542" y="0"/>
      <point x="572" y="0" type="curve"/>
      <point x="529" y="87"/>
      <point x="406" y="267"/>
      <point x="362" y="354" type="curve"/>
      <point x="332" y="354"/>
      <point x="363" y="354"/>
    </contour>
    <contour>
      <point x="181" y="0" type="curve"/>
      <point x="181" y="241"/>
      <point x="181" y="481"/>
      <point x="181" y="722" type="curve"/>
      <point x="155" y="722"/>
      <point x="181" y="722"/>
      <point x="155" y="722" type="curve"/>
      <point x="155" y="481"/>
      <point x="155" y="241"/>
      <point x="155" y="0" type="curve"/>
      <point x="181" y="0"/>
      <point x="155" y="0"/>
    </contour>
    <contour>
      <point x="170" y="340" type="curve"/>
      <point x="219" y="340"/>
      <point x="269" y="340"/>
      <point x="318" y="340" type="curve"/>
      <point x="442" y="340"/>
      <point x="512" y="411"/>
      <point x="512" y="537" type="curve"/>
      <point x="512" y="658"/>
      <point x="441" y="722"/>
      <point x="319" y="722" type="curve"/>
      <point x="267" y="722"/>
      <point x="222" y="722"/>
      <point x="170" y="722" type="curve"/>
      <point x="170" y="699"/>
      <point x="170" y="722"/>
      <point x="170" y="699" type="curve"/>
      <point x="221" y="699"/>
      <point x="263" y="699"/>
      <point x="314" y="699" type="curve"/>
      <point x="423" y="699"/>
      <point x="486" y="642"/>
      <point x="486" y="535" type="curve"/>
      <point x="486" y="426"/>
      <point x="428" y="362"/>
      <point x="321" y="362" type="curve"/>
      <point x="271" y="362"/>
      <point x="220" y="362"/>
      <point x="170" y="362" type="curve"/>
      <point x="170" y="340"/>
      <point x="170" y="362"/>
    </contour>
    <contour>
      <point x="286" y="825" type="move" name="top"/>
    </contour>
    <contour>
      <point x="351" y="-57" type="move" name="bottom"/>
    </contour>
  </outline>
</glyph>
<glyph name="S" format="1">
  <advance width="515"/>
  <unicode hex="0053"/>
  <outline>
    <contour>
      <point x="395" y="663" type="curve"/>
      <point x="395" y="543"/>
      <point x="395" y="670"/>
      <point x="395" y="550" type="curve"/>
      <point x="418" y="550"/>
      <point x="395" y="550"/>
      <point x="418" y="550" type="curve"/>
      <point x="418" y="670"/>
      <point x="418" y="543"/>
      <point x="418" y="663" type="curve"/>
      <point x="395" y="663"/>
      <point x="418" y="663"/>
    </contour>
    <contour>
      <point x="94" y="58" type="curve"/>
      <point x="94" y="178"/>
      <point x="94" y="51"/>
      <point x="94" y="171" type="curve"/>
      <point x="71" y="171"/>
      <point x="94" y="171"/>
      <point x="71" y="171" type="curve"/>
      <point x="71" y="51"/>
      <point x="71" y="178"/>
      <point x="71" y="58" type="curve"/>
      <point x="94" y="58"/>
      <point x="71" y="58"/>
    </contour>
    <contour>
      <point x="71" y="58" type="curve"/>
      <point x="119" y="22"/>
      <point x="178" y="-5"/>
      <point x="247" y="-5" type="curve"/>
      <point x="367" y="-5"/>
      <point x="443" y="54"/>
      <point x="443" y="169" type="curve"/>
      <point x="443" y="282"/>
      <point x="368" y="330"/>
      <point x="270" y="387" type="curve" smooth="yes"/>
      <point x="186" y="434"/>
      <point x="117" y="471"/>
      <point x="117" y="563" type="curve"/>
      <point x="117" y="650"/>
      <point x="171" y="704"/>
      <point x="257" y="704" type="curve"/>
      <point x="316" y="704"/>
      <point x="367" y="675"/>
      <point x="405" y="645" type="curve"/>
      <point x="413" y="655"/>
      <point x="411" y="653"/>
      <point x="418" y="663" type="curve"/>
      <point x="370" y="701"/>
      <point x="323" y="726"/>
      <point x="258" y="726" type="curve"/>
      <point x="155" y="726"/>
      <point x="91" y="664"/>
      <point x="91" y="562" type="curve"/>
      <point x="91" y="459"/>
      <point x="163" y="418"/>
      <point x="254" y="367" type="curve" smooth="yes"/>
      <point x="346" y="315"/>
      <point x="418" y="271"/>
      <point x="418" y="169" type="curve"/>
      <point x="418" y="73"/>
      <point x="347" y="18"/>
      <point x="249" y="18" type="curve"/>
      <point x="184" y="18"/>
      <point x="129" y="47"/>
      <point x="85" y="79" type="curve"/>
      <point x="77" y="67"/>
      <point x="79" y="70"/>
    </contour>
    <contour>
      <point x="260" y="825" type="move" name="top"/>
    </contour>
    <contour>
      <point x="253" y="-58" type="move" name="bottom"/>
    </contour>
  </outline>
</glyph>
<glyph name="T" format="1">
  <advance width="638"/>
  <unicode hex="0054"/>
  <outline>
    <contour>
      <point x="49" y="710" type="curve"/>
      <point x="49" y="590"/>
      <point x="49" y="718"/>
      <point x="49" y="598" type="curve"/>
      <point x="71" y="598"/>
      <point x="49" y="598"/>
      <point x="71" y="598" type="curve"/>
      <point x="71" y="718"/>
      <point x="71" y="590"/>
      <point x="71" y="710" type="curve"/>
      <point x="49" y="710"/>
      <point x="71" y="710"/>
    </contour>
    <contour>
      <point x="567" y="710" type="curve"/>
      <point x="567" y="590"/>
      <point x="567" y="718"/>
      <point x="567" y="598" type="curve"/>
      <point x="590" y="598"/>
      <point x="567" y="598"/>
      <point x="590" y="598" type="curve"/>
      <point x="590" y="718"/>
      <point x="590" y="590"/>
      <point x="590" y="710" type="curve"/>
      <point x="567" y="710"/>
      <point x="590" y="710"/>
    </contour>
    <contour>
      <point x="319" y="0" type="curve"/>
      <point x="363" y="0"/>
      <point x="402" y="0"/>
      <point x="446" y="0" type="curve"/>
      <point x="446" y="23"/>
      <point x="446" y="0"/>
      <point x="446" y="23" type="curve"/>
      <point x="312" y="23"/>
      <point x="452" y="23"/>
      <point x="319" y="23" type="curve"/>
      <point x="319" y="0"/>
      <point x="319" y="23"/>
    </contour>
    <contour>
      <point x="319" y="23" type="curve"/>
      <point x="184" y="23"/>
      <point x="325" y="23"/>
      <point x="191" y="23" type="curve"/>
      <point x="191" y="0"/>
      <point x="191" y="23"/>
      <point x="191" y="0" type="curve"/>
      <point x="235" y="0"/>
      <point x="274" y="0"/>
      <point x="319" y="0" type="curve"/>
      <point x="319" y="23"/>
      <point x="319" y="0"/>
    </contour>
    <contour>
      <point x="332" y="0" type="curve"/>
      <point x="332" y="237"/>
      <point x="332" y="473"/>
      <point x="332" y="710" type="curve"/>
      <point x="307" y="710"/>
      <point x="332" y="710"/>
      <point x="307" y="710" type="curve"/>
      <point x="307" y="473"/>
      <point x="307" y="237"/>
      <point x="307" y="0" type="curve"/>
      <point x="332" y="0"/>
      <point x="307" y="0"/>
    </contour>
    <contour>
      <point x="49" y="697" type="curve"/>
      <point x="229" y="697"/>
      <point x="410" y="697"/>
      <point x="590" y="697" type="curve"/>
      <point x="590" y="722"/>
      <point x="590" y="697"/>
      <point x="590" y="722" type="curve"/>
      <point x="410" y="722"/>
      <point x="229" y="722"/>
      <point x="49" y="722" type="curve"/>
      <point x="49" y="697"/>
      <point x="49" y="722"/>
    </contour>
    <contour>
      <point x="318" y="825" type="move" name="top"/>
    </contour>
    <contour>
      <point x="323" y="-58" type="move" name="bottom"/>
    </contour>
  </outline>
</glyph>
<glyph name="V" format="1">
  <advance width="727"/>
  <unicode hex="0056"/>
  <outline>
    <contour>
      <point x="581" y="722" type="curve"/>
      <point x="535" y="722"/>
      <point x="495" y="722"/>
      <point x="448" y="722" type="curve"/>
      <point x="448" y="699"/>
      <point x="448" y="722"/>
      <point x="448" y="699" type="curve"/>
      <point x="587" y="699"/>
      <point x="442" y="699"/>
      <point x="581" y="699" type="curve"/>
      <point x="581" y="722"/>
      <point x="581" y="699"/>
    </contour>
    <contour>
      <point x="108" y="722" type="curve"/>
      <point x="64" y="722"/>
      <point x="25" y="722"/>
      <point x="-19" y="722" type="curve"/>
      <point x="-19" y="699"/>
      <point x="-19" y="722"/>
      <point x="-19" y="699" type="curve"/>
      <point x="115" y="699"/>
      <point x="-26" y="699"/>
      <point x="108" y="699" type="curve"/>
      <point x="108" y="722"/>
      <point x="108" y="699"/>
    </contour>
    <contour>
      <point x="581" y="699" type="curve"/>
      <point x="715" y="699"/>
      <point x="574" y="699"/>
      <point x="708" y="699" type="curve"/>
      <point x="708" y="722"/>
      <point x="708" y="699"/>
      <point x="708" y="722" type="curve"/>
      <point x="664" y="722"/>
      <point x="625" y="722"/>
      <point x="581" y="722" type="curve"/>
      <point x="581" y="699"/>
      <point x="581" y="722"/>
    </contour>
    <contour>
      <point x="108" y="699" type="curve"/>
      <point x="248" y="699"/>
      <point x="102" y="699"/>
      <point x="241" y="699" type="curve"/>
      <point x="241" y="722"/>
      <point x="241" y="699"/>
      <point x="241" y="722" type="curve"/>
      <point x="195" y="722"/>
      <point x="155" y="722"/>
      <point x="108" y="722" type="curve"/>
      <point x="108" y="699"/>
      <point x="108" y="722"/>
    </contour>
    <contour>
      <point x="578" y="722" type="curve"/>
      <point x="497" y="481"/>
      <point x="416" y="241"/>
      <point x="335" y="0" type="curve"/>
      <point x="364" y="0"/>
      <point x="335" y="0"/>
      <point x="363" y="0" type="curve"/>
      <point x="444" y="241"/>
      <point x="525" y="481"/>
      <point x="605" y="722" type="curve"/>
      <point x="578" y="722"/>
      <point x="605" y="722"/>
    </contour>
    <contour>
      <point x="84" y="722" type="curve"/>
      <point x="166" y="481"/>
      <point x="248" y="241"/>
      <point x="330" y="0" type="curve"/>
      <point x="358" y="0"/>
      <point x="330" y="0"/>
      <point x="358" y="0" type="curve"/>
      <point x="276" y="241"/>
      <point x="194" y="481"/>
      <point x="113" y="722" type="curve"/>
      <point x="84" y="722"/>
      <point x="113" y="722"/>
    </contour>
  </outline>
</glyph>
<glyph name="W" format="1">
  <advance width="902"/>
  <unicode hex="0057"/>
  <outline>
    <contour>
      <point x="119" y="699" type="curve"/>
      <point x="254" y="699"/>
      <point x="113" y="699"/>
      <point x="247" y="699" type="curve"/>
      <point x="247" y="722"/>
      <point x="247" y="699"/>
      <point x="247" y="722" type="curve"/>
      <point x="202" y="722"/>
      <point x="164" y="722"/>
      <point x="119" y="722" type="curve"/>
      <point x="119" y="699"/>
      <point x="119" y="722"/>
    </contour>
    <contour>
      <point x="119" y="722" type="curve"/>
      <point x="75" y="722"/>
      <point x="36" y="722"/>
      <point x="-8" y="722" type="curve"/>
      <point x="-8" y="699"/>
      <point x="-8" y="722"/>
      <point x="-8" y="699" type="curve"/>
      <point x="126" y="699"/>
      <point x="-14" y="699"/>
      <point x="119" y="699" type="curve"/>
      <point x="119" y="722"/>
      <point x="119" y="699"/>
    </contour>
    <contour>
      <point x="762" y="722" type="curve"/>
      <point x="717" y="722"/>
      <point x="679" y="722"/>
      <point x="635" y="722" type="curve"/>
      <point x="635" y="699"/>
      <point x="635" y="722"/>
      <point x="635" y="699" type="curve"/>
      <point x="768" y="699"/>
      <point x="628" y="699"/>
      <point x="762" y="699" type="curve"/>
      <point x="762" y="722"/>
      <point x="762" y="699"/>
    </contour>
    <contour>
      <point x="762" y="699" type="curve"/>
      <point x="896" y="699"/>
      <point x="755" y="699"/>
      <point x="889" y="699" type="curve"/>
      <point x="889" y="722"/>
      <point x="889" y="699"/>
      <point x="889" y="722" type="curve"/>
      <point x="845" y="722"/>
      <point x="806" y="722"/>
      <point x="762" y="722" type="curve"/>
      <point x="762" y="699"/>
      <point x="762" y="722"/>
    </contour>
    <contour>
      <point x="279" y="0" type="curve"/>
      <point x="338" y="241"/>
      <point x="396" y="481"/>
      <point x="454" y="722" type="curve"/>
      <point x="430" y="722"/>
      <point x="455" y="722"/>
      <point x="431" y="722" type="curve"/>
      <point x="374" y="481"/>
      <point x="315" y="241"/>
      <point x="258" y="0" type="curve"/>
      <point x="277" y="0"/>
      <point x="260" y="0"/>
    </contour>
    <contour>
      <point x="437" y="722" type="curve"/>
      <point x="490" y="481"/>
      <point x="542" y="241"/>
      <point x="595" y="0" type="curve"/>
      <point x="614" y="0"/>
      <point x="597" y="0"/>
      <point x="616" y="0" type="curve"/>
      <point x="565" y="241"/>
      <point x="513" y="481"/>
      <point x="461" y="722" type="curve"/>
      <point x="437" y="722"/>
      <point x="461" y="722"/>
    </contour>
    <contour>
      <point x="96" y="722" type="curve"/>
      <point x="149" y="481"/>
      <point x="202" y="241"/>
      <point x="255" y="0" type="curve"/>
      <point x="274" y="0"/>
      <point x="258" y="0"/>
      <point x="276" y="0" type="curve"/>
      <point x="225" y="241"/>
      <point x="173" y="481"/>
      <point x="122" y="722" type="curve"/>
      <point x="96" y="722"/>
      <point x="122" y="722"/>
    </contour>
    <contour>
      <point x="760" y="722" type="curve"/>
      <point x="705" y="481"/>
      <point x="651" y="241"/>
      <point x="598" y="0" type="curve"/>
      <point x="618" y="0"/>
      <point x="600" y="0"/>
      <point x="620" y="0" type="curve"/>
      <point x="675" y="241"/>
      <point x="730" y="481"/>
      <point x="786" y="722" type="curve"/>
      <point x="760" y="722"/>
      <point x="786" y="722"/>
    </contour>
  </outline>
</glyph>
<glyph name="X" format="1">
  <advance width="683"/>
  <unicode hex="0058"/>
  <outline>
    <contour>
      <point x="125" y="0" type="curve"/>
      <point x="170" y="0"/>
      <point x="119" y="0"/>
      <point x="253" y="0" type="curve"/>
      <point x="253" y="23"/>
      <point x="253" y="0"/>
      <point x="253" y="23" type="curve"/>
      <point x="119" y="23"/>
      <point x="259" y="23"/>
      <point x="125" y="23" type="curve"/>
      <point x="125" y="0"/>
      <point x="125" y="23"/>
    </contour>
    <contour>
      <point x="125" y="23" type="curve"/>
      <point x="-8" y="23"/>
      <point x="132" y="23"/>
      <point x="-2" y="23" type="curve"/>
      <point x="-2" y="0"/>
      <point x="-2" y="23"/>
      <point x="-2" y="0" type="curve"/>
      <point x="43" y="0"/>
      <point x="81" y="0"/>
      <point x="125" y="0" type="curve"/>
      <point x="125" y="23"/>
      <point x="125" y="0"/>
    </contour>
    <contour>
      <point x="555" y="0" type="curve"/>
      <point x="599" y="0"/>
      <point x="638" y="0"/>
      <point x="682" y="0" type="curve"/>
      <point x="682" y="23"/>
      <point x="682" y="0"/>
      <point x="682" y="23" type="curve"/>
      <point x="548" y="23"/>
      <point x="688" y="23"/>
      <point x="555" y="23" type="curve"/>
      <point x="555" y="0"/>
      <point x="555" y="23"/>
    </contour>
    <contour>
      <point x="555" y="23" type="curve"/>
      <point x="421" y="23"/>
      <point x="561" y="23"/>
      <point x="427" y="23" type="curve"/>
      <point x="427" y="0"/>
      <point x="427" y="23"/>
      <point x="427" y="0" type="curve"/>
      <point x="472" y="0"/>
      <point x="510" y="0"/>
      <point x="555" y="0" type="curve"/>
      <point x="555" y="23"/>
      <point x="555" y="0"/>
    </contour>
    <contour>
      <point x="532" y="699" type="curve"/>
      <point x="666" y="699"/>
      <point x="526" y="699"/>
      <point x="659" y="699" type="curve"/>
      <point x="659" y="722"/>
      <point x="659" y="699"/>
      <point x="659" y="722" type="curve"/>
      <point x="615" y="722"/>
      <point x="576" y="722"/>
      <point x="532" y="722" type="curve"/>
      <point x="532" y="699"/>
      <point x="532" y="722"/>
    </contour>
    <contour>
      <point x="532" y="722" type="curve"/>
      <point x="488" y="722"/>
      <point x="449" y="722"/>
      <point x="405" y="722" type="curve"/>
      <point x="405" y="699"/>
      <point x="405" y="722"/>
      <point x="405" y="699" type="curve"/>
      <point x="539" y="699"/>
      <point x="398" y="699"/>
      <point x="532" y="699" type="curve"/>
      <point x="532" y="722"/>
      <point x="532" y="699"/>
    </contour>
    <contour>
      <point x="152" y="722" type="curve"/>
      <point x="107" y="722"/>
      <point x="69" y="722"/>
      <point x="24" y="722" type="curve"/>
      <point x="24" y="699"/>
      <point x="24" y="722"/>
      <point x="24" y="699" type="curve"/>
      <point x="158" y="699"/>
      <point x="18" y="699"/>
      <point x="152" y="699" type="curve"/>
      <point x="152" y="722"/>
      <point x="152" y="699"/>
    </contour>
    <contour>
      <point x="152" y="699" type="curve"/>
      <point x="285" y="699"/>
      <point x="145" y="699"/>
      <point x="279" y="699" type="curve"/>
      <point x="279" y="722"/>
      <point x="279" y="699"/>
      <point x="279" y="722" type="curve"/>
      <point x="235" y="722"/>
      <point x="196" y="722"/>
      <point x="152" y="722" type="curve"/>
      <point x="152" y="699"/>
      <point x="152" y="722"/>
    </contour>
    <contour>
      <point x="532" y="722" type="curve"/>
      <point x="386" y="481"/>
      <point x="241" y="241"/>
      <point x="96" y="0" type="curve"/>
      <point x="128" y="0"/>
      <point x="96" y="0"/>
      <point x="128" y="0" type="curve"/>
      <point x="273" y="241"/>
      <point x="416" y="481"/>
      <point x="561" y="722" type="curve"/>
      <point x="532" y="722"/>
      <point x="561" y="722"/>
    </contour>
    <contour>
      <point x="125" y="722" type="curve"/>
      <point x="268" y="481"/>
      <point x="411" y="241"/>
      <point x="554" y="0" type="curve"/>
      <point x="586" y="0"/>
      <point x="554" y="0"/>
      <point x="586" y="0" type="curve"/>
      <point x="442" y="241"/>
      <point x="298" y="481"/>
      <point x="155" y="722" type="curve"/>
      <point x="125" y="722"/>
      <point x="155" y="722"/>
    </contour>
  </outline>
</glyph>
<glyph name="Y" format="1">
  <advance width="651"/>
  <unicode hex="0059"/>
  <outline>
    <contour>
      <point x="307" y="23" type="curve"/>
      <point x="173" y="23"/>
      <point x="314" y="23"/>
      <point x="180" y="23" type="curve"/>
      <point x="180" y="0"/>
      <point x="180" y="23"/>
      <point x="180" y="0" type="curve"/>
      <point x="224" y="0"/>
      <point x="263" y="0"/>
      <point x="307" y="0" type="curve"/>
      <point x="307" y="23"/>
      <point x="307" y="0"/>
    </contour>
    <contour>
      <point x="307" y="0" type="curve"/>
      <point x="351" y="0"/>
      <point x="390" y="0"/>
      <point x="434" y="0" type="curve"/>
      <point x="434" y="23"/>
      <point x="434" y="0"/>
      <point x="434" y="23" type="curve"/>
      <point x="301" y="23"/>
      <point x="441" y="23"/>
      <point x="307" y="23" type="curve"/>
      <point x="307" y="0"/>
      <point x="307" y="23"/>
    </contour>
    <contour>
      <point x="507" y="722" type="curve"/>
      <point x="463" y="722"/>
      <point x="425" y="722"/>
      <point x="380" y="722" type="curve"/>
      <point x="380" y="699"/>
      <point x="380" y="722"/>
      <point x="380" y="699" type="curve"/>
      <point x="514" y="699"/>
      <point x="374" y="699"/>
      <point x="507" y="699" type="curve"/>
      <point x="507" y="722"/>
      <point x="507" y="699"/>
    </contour>
    <contour>
      <point x="118" y="722" type="curve"/>
      <point x="74" y="722"/>
      <point x="35" y="722"/>
      <point x="-9" y="722" type="curve"/>
      <point x="-9" y="699"/>
      <point x="-9" y="722"/>
      <point x="-9" y="699" type="curve"/>
      <point x="125" y="699"/>
      <point x="-15" y="699"/>
      <point x="118" y="699" type="curve"/>
      <point x="118" y="722"/>
      <point x="118" y="699"/>
    </contour>
    <contour>
      <point x="118" y="699" type="curve"/>
      <point x="252" y="699"/>
      <point x="112" y="699"/>
      <point x="245" y="699" type="curve"/>
      <point x="245" y="722"/>
      <point x="245" y="699"/>
      <point x="245" y="722" type="curve"/>
      <point x="201" y="722"/>
      <point x="162" y="722"/>
      <point x="118" y="722" type="curve"/>
      <point x="118" y="699"/>
      <point x="118" y="722"/>
    </contour>
    <contour>
      <point x="508" y="699" type="curve"/>
      <point x="641" y="699"/>
      <point x="501" y="699"/>
      <point x="635" y="699" type="curve"/>
      <point x="635" y="722"/>
      <point x="635" y="699"/>
      <point x="635" y="722" type="curve"/>
      <point x="590" y="722"/>
      <point x="552" y="722"/>
      <point x="508" y="722" type="curve"/>
      <point x="508" y="699"/>
      <point x="508" y="722"/>
    </contour>
    <contour>
      <point x="88" y="722" type="curve"/>
      <point x="157" y="594"/>
      <point x="225" y="465"/>
      <point x="293" y="337" type="curve"/>
      <point x="321" y="337"/>
      <point x="293" y="338"/>
      <point x="321" y="338" type="curve"/>
      <point x="252" y="466"/>
      <point x="184" y="594"/>
      <point x="117" y="722" type="curve"/>
      <point x="88" y="722"/>
      <point x="117" y="722"/>
    </contour>
    <contour>
      <point x="509" y="722" type="curve"/>
      <point x="437" y="594"/>
      <point x="366" y="466"/>
      <point x="294" y="338" type="curve"/>
      <point x="321" y="338"/>
      <point x="294" y="337"/>
      <point x="321" y="337" type="curve"/>
      <point x="393" y="465"/>
      <point x="465" y="594"/>
      <point x="537" y="722" type="curve"/>
      <point x="509" y="722"/>
      <point x="537" y="722"/>
    </contour>
    <contour>
      <point x="321" y="0" type="curve"/>
      <point x="321" y="115"/>
      <point x="321" y="231"/>
      <point x="321" y="346" type="curve"/>
      <point x="293" y="346"/>
      <point x="321" y="346"/>
      <point x="293" y="346" type="curve"/>
      <point x="293" y="231"/>
      <point x="293" y="115"/>
      <point x="293" y="0" type="curve"/>
      <point x="321" y="0"/>
      <point x="293" y="0"/>
    </contour>
    <contour>
      <point x="309" y="825" type="move" name="top"/>
    </contour>
  </outline>
</glyph>
<glyph name="Z" format="1">
  <advance width="591"/>
  <unicode hex="005A"/>
  <outline>
    <contour>
      <point x="79" y="711" type="curve"/>
      <point x="79" y="591"/>
      <point x="79" y="718"/>
      <point x="79" y="598" type="curve"/>
      <point x="101" y="598"/>
      <point x="79" y="598"/>
      <point x="101" y="598" type="curve"/>
      <point x="101" y="718"/>
      <point x="101" y="591"/>
      <point x="101" y="711" type="curve"/>
      <point x="79" y="711"/>
      <point x="101" y="711"/>
    </contour>
    <contour>
      <point x="548" y="11" type="curve"/>
      <point x="548" y="131"/>
      <point x="548" y="4"/>
      <point x="548" y="124" type="curve"/>
      <point x="526" y="124"/>
      <point x="548" y="124"/>
      <point x="526" y="124" type="curve"/>
      <point x="526" y="4"/>
      <point x="526" y="131"/>
      <point x="526" y="11" type="curve"/>
      <point x="548" y="11"/>
      <point x="526" y="11"/>
    </contour>
    <contour>
      <point x="79" y="699" type="curve"/>
      <point x="220" y="699"/>
      <point x="361" y="699"/>
      <point x="502" y="699" type="curve"/>
      <point x="500" y="702"/>
      <point x="497" y="704"/>
      <point x="495" y="706" type="curve"/>
      <point x="493" y="708"/>
      <point x="492" y="710"/>
      <point x="490" y="712" type="curve"/>
      <point x="487" y="708"/>
      <point x="484" y="705"/>
      <point x="482" y="701" type="curve"/>
      <point x="41" y="23" type="line"/>
      <point x="41" y="10"/>
      <point x="41" y="23"/>
      <point x="41" y="10" type="curve"/>
      <point x="41" y="0"/>
      <point x="41" y="10"/>
      <point x="41" y="0" type="curve"/>
      <point x="48" y="0"/>
      <point x="41" y="0"/>
      <point x="48" y="0" type="curve"/>
      <point x="553" y="0"/>
      <point x="380" y="0"/>
      <point x="548" y="0" type="curve"/>
      <point x="548" y="23"/>
      <point x="548" y="0"/>
      <point x="548" y="23" type="curve"/>
      <point x="380" y="23"/>
      <point x="217" y="23"/>
      <point x="48" y="23" type="curve"/>
      <point x="50" y="21"/>
      <point x="53" y="19"/>
      <point x="55" y="17" type="curve"/>
      <point x="58" y="15"/>
      <point x="59" y="12"/>
      <point x="61" y="10" type="curve"/>
      <point x="64" y="14"/>
      <point x="67" y="17"/>
      <point x="70" y="21" type="curve"/>
      <point x="511" y="699" type="line"/>
      <point x="511" y="712"/>
      <point x="511" y="699"/>
      <point x="511" y="712" type="curve"/>
      <point x="511" y="722"/>
      <point x="511" y="712"/>
      <point x="511" y="722" type="curve"/>
      <point x="502" y="722"/>
      <point x="511" y="722"/>
      <point x="502" y="722" type="curve"/>
      <point x="361" y="722"/>
      <point x="220" y="722"/>
      <point x="79" y="722" type="curve"/>
      <point x="79" y="699"/>
      <point x="79" y="722"/>
    </contour>
    <contour>
      <point x="300" y="825" type="move" name="top"/>
    </contour>
  </outline>
</glyph>
<glyph name="backslash" format="1">
  <advance width="452"/>
  <unicode hex="005C"/>
  <outline>
    <contour>
      <point x="410" y="-68" type="curve"/>
      <point x="297" y="236"/>
      <point x="183" y="540"/>
      <point x="69" y="844" type="curve"/>
      <point x="42" y="844"/>
      <point x="69" y="844"/>
      <point x="42" y="844" type="curve"/>
      <point x="156" y="540"/>
      <point x="270" y="236"/>
      <point x="384" y="-68" type="curve"/>
      <point x="410" y="-68"/>
      <point x="384" y="-68"/>
    </contour>
  </outline>
</glyph>
<glyph name="bracketright" format="1">
  <advance width="262"/>
  <unicode hex="005D"/>
  <outline>
    <contour>
      <point x="40" y="746" type="curve"/>
      <point x="84" y="746"/>
      <point x="129" y="746"/>
      <point x="174" y="746" type="curve"/>
      <point x="170" y="749"/>
      <point x="166" y="751"/>
      <point x="164" y="755" type="curve"/>
      <point x="161" y="758"/>
      <point x="157" y="761"/>
      <point x="155" y="764" type="curve"/>
      <point x="155" y="470"/>
      <point x="154" y="175"/>
      <point x="155" y="-119" type="curve"/>
      <point x="158" y="-116"/>
      <point x="162" y="-112"/>
      <point x="165" y="-108" type="curve"/>
      <point x="168" y="-105"/>
      <point x="172" y="-103"/>
      <point x="174" y="-99" type="curve"/>
      <point x="129" y="-99"/>
      <point x="84" y="-99"/>
      <point x="40" y="-99" type="curve"/>
      <point x="40" y="-124"/>
      <point x="40" y="-99"/>
      <point x="40" y="-124" type="curve"/>
      <point x="84" y="-124"/>
      <point x="129" y="-124"/>
      <point x="174" y="-124" type="curve"/>
      <point x="180" y="-124"/>
      <point x="174" y="-124"/>
      <point x="180" y="-124" type="curve"/>
      <point x="180" y="-119"/>
      <point x="180" y="-124"/>
      <point x="180" y="-119" type="curve"/>
      <point x="180" y="175"/>
      <point x="180" y="470"/>
      <point x="180" y="764" type="curve"/>
      <point x="180" y="771"/>
      <point x="180" y="764"/>
      <point x="180" y="771" type="curve"/>
      <point x="174" y="771"/>
      <point x="180" y="771"/>
      <point x="174" y="771" type="curve"/>
      <point x="129" y="771"/>
      <point x="84" y="771"/>
      <point x="40" y="771" type="curve"/>
      <point x="40" y="746"/>
      <point x="40" y="771"/>
    </contour>
  </outline>
</glyph>
<glyph name="asciicircum" format="1">
  <advance width="480"/>
  <unicode hex="005E"/>
  <outline>
    <contour>
      <point x="100" y="466" type="curve"/>
      <point x="151" y="581"/>
      <point x="202" y="695"/>
      <point x="252" y="809" type="curve"/>
      <point x="227" y="809"/>
      <point x="252" y="809"/>
      <point x="227" y="809" type="curve"/>
      <point x="176" y="695"/>
      <point x="126" y="581"/>
      <point x="75" y="466" type="curve"/>
      <point x="100" y="466"/>
      <point x="75" y="466"/>
    </contour>
    <contour>
      <point x="407" y="466" type="curve"/>
      <point x="357" y="577"/>
      <point x="303" y="699"/>
      <point x="253" y="809" type="curve"/>
      <point x="228" y="809"/>
      <point x="252" y="809"/>
      <point x="227" y="809" type="curve"/>
      <point x="277" y="699"/>
      <point x="331" y="577"/>
      <point x="381" y="466" type="curve"/>
      <point x="406" y="466"/>
      <point x="382" y="466"/>
    </contour>
  </outline>
</glyph>
<glyph name="underscore" format="1">
  <advance width="596"/>
  <unicode hex="005F"/>
  <outline>
    <contour>
      <point x="-1" y="-210" type="curve"/>
      <point x="199" y="-210"/>
      <point x="398" y="-210"/>
      <point x="596" y="-210" type="curve"/>
      <point x="596" y="-187"/>
      <point x="596" y="-210"/>
      <point x="596" y="-187" type="curve"/>
      <point x="398" y="-187"/>
      <point x="199" y="-187"/>
      <point x="-1" y="-187" type="curve"/>
      <point x="-1" y="-210"/>
      <point x="-1" y="-187"/>
    </contour>
  </outline>
</glyph>
<glyph name="grave" format="1">
  <advance width="382"/>
  <unicode hex="0060"/>
  <outline>
    <contour>
      <point x="191" y="590" type="line"/>
      <point x="93" y="756" type="line"/>
      <point x="58" y="756" type="line"/>
      <point x="164" y="590" type="line"/>
    </contour>
    <contour>
      <point x="175" y="590" type="move" name="_top"/>
    </contour>
  </outline>
</glyph>
<glyph name="b" format="1">
  <advance width="578"/>
  <unicode hex="0062"/>
  <outline>
    <contour>
      <point x="135" y="800" type="curve"/>
      <point x="90" y="800"/>
      <point x="52" y="800"/>
      <point x="7" y="800" type="curve"/>
      <point x="7" y="777"/>
      <point x="7" y="800"/>
      <point x="7" y="777" type="curve"/>
      <point x="141" y="777"/>
      <point x="1" y="777"/>
      <point x="135" y="777" type="curve"/>
      <point x="135" y="800"/>
      <point x="135" y="777"/>
    </contour>
    <contour>
      <point x="140" y="405" type="curve"/>
      <point x="167" y="453"/>
      <point x="232" y="515"/>
      <point x="315" y="515" type="curve"/>
      <point x="434" y="515"/>
      <point x="489" y="404"/>
      <point x="489" y="267" type="curve"/>
      <point x="489" y="136"/>
      <point x="429" y="17"/>
      <point x="314" y="18" type="curve"/>
      <point x="242" y="18"/>
      <point x="183" y="63"/>
      <point x="141" y="130" type="curve"/>
      <point x="124" y="116"/>
      <point x="143" y="126"/>
      <point x="126" y="112" type="curve"/>
      <point x="172" y="42"/>
      <point x="232" y="-5"/>
      <point x="315" y="-5" type="curve"/>
      <point x="453" y="-5"/>
      <point x="514" y="115"/>
      <point x="514" y="268" type="curve"/>
      <point x="514" y="417"/>
      <point x="454" y="538"/>
      <point x="316" y="538" type="curve"/>
      <point x="225" y="538"/>
      <point x="156" y="480"/>
      <point x="127" y="427" type="curve"/>
      <point x="140" y="410"/>
      <point x="127" y="422"/>
    </contour>
    <contour>
      <point x="145" y="0" type="curve"/>
      <point x="145" y="267"/>
      <point x="145" y="533"/>
      <point x="145" y="800" type="curve"/>
      <point x="120" y="800"/>
      <point x="145" y="800"/>
      <point x="120" y="800" type="curve"/>
      <point x="120" y="533"/>
      <point x="120" y="267"/>
      <point x="120" y="0" type="curve"/>
      <point x="145" y="0"/>
      <point x="120" y="0"/>
    </contour>
    <contour>
      <point x="135" y="23" type="curve"/>
      <point x="1" y="23"/>
      <point x="141" y="23"/>
      <point x="7" y="23" type="curve"/>
      <point x="7" y="0"/>
      <point x="7" y="23"/>
      <point x="7" y="0" type="curve"/>
      <point x="52" y="0"/>
      <point x="90" y="0"/>
      <point x="135" y="0" type="curve"/>
      <point x="135" y="23"/>
      <point x="135" y="0"/>
    </contour>
  </outline>
</glyph>
<glyph name="c" format="1">
  <advance width="479"/>
  <unicode hex="0063"/>
  <outline>
    <contour>
      <point x="392" y="473" type="curve"/>
      <point x="392" y="353"/>
      <point x="392" y="480"/>
      <point x="392" y="360" type="curve"/>
      <point x="415" y="360"/>
      <point x="392" y="360"/>
      <point x="415" y="360" type="curve"/>
      <point x="415" y="480"/>
      <point x="415" y="353"/>
      <point x="415" y="473" type="curve"/>
      <point x="392" y="473"/>
      <point x="415" y="473"/>
    </contour>
    <contour>
      <point x="415" y="473" type="curve"/>
      <point x="377" y="508"/>
      <point x="327" y="538"/>
      <point x="273" y="538" type="curve"/>
      <point x="124" y="538"/>
      <point x="65" y="430"/>
      <point x="65" y="267" type="curve"/>
      <point x="65" y="104"/>
      <point x="122" y="-5"/>
      <point x="271" y="-5" type="curve"/>
      <point x="333" y="-5"/>
      <point x="388" y="32"/>
      <point x="425" y="86" type="curve"/>
      <point x="406" y="99"/>
      <point x="425" y="86"/>
      <point x="406" y="99" type="curve"/>
      <point x="376" y="58"/>
      <point x="327" y="18"/>
      <point x="271" y="18" type="curve"/>
      <point x="140" y="18"/>
      <point x="90" y="120"/>
      <point x="90" y="267" type="curve"/>
      <point x="90" y="414"/>
      <point x="143" y="515"/>
      <point x="271" y="515" type="curve"/>
      <point x="320" y="515"/>
      <point x="365" y="488"/>
      <point x="400" y="457" type="curve"/>
      <point x="415" y="473"/>
      <point x="400" y="457"/>
    </contour>
    <contour>
      <point x="269" y="670" type="move" name="top"/>
    </contour>
    <contour>
      <point x="273" y="-4" type="move" name="bottom"/>
    </contour>
  </outline>
</glyph>
<glyph name="f" format="1">
  <advance width="422"/>
  <unicode hex="0066"/>
  <outline>
    <contour>
      <point x="392" y="776" type="curve"/>
      <point x="392" y="656"/>
      <point x="392" y="783"/>
      <point x="392" y="663" type="curve"/>
      <point x="414" y="663"/>
      <point x="392" y="663"/>
      <point x="414" y="663" type="curve"/>
      <point x="414" y="783"/>
      <point x="414" y="656"/>
      <point x="414" y="776" type="curve"/>
      <point x="392" y="776"/>
      <point x="414" y="776"/>
    </contour>
    <contour>
      <point x="200" y="0" type="curve"/>
      <point x="244" y="0"/>
      <point x="283" y="0"/>
      <point x="327" y="0" type="curve"/>
      <point x="327" y="23"/>
      <point x="327" y="0"/>
      <point x="327" y="23" type="curve"/>
      <point x="194" y="23"/>
      <point x="334" y="23"/>
      <point x="200" y="23" type="curve"/>
      <point x="200" y="0"/>
      <point x="200" y="23"/>
    </contour>
    <contour>
      <point x="200" y="23" type="curve"/>
      <point x="66" y="23"/>
      <point x="207" y="23"/>
      <point x="73" y="23" type="curve"/>
      <point x="73" y="0"/>
      <point x="73" y="23"/>
      <point x="73" y="0" type="curve"/>
      <point x="117" y="0"/>
      <point x="156" y="0"/>
      <point x="200" y="0" type="curve"/>
      <point x="200" y="23"/>
      <point x="200" y="0"/>
    </contour>
    <contour>
      <point x="38" y="510" type="curve"/>
      <point x="382" y="510" type="line"/>
      <point x="382" y="533"/>
      <point x="382" y="510"/>
      <point x="382" y="533" type="curve"/>
      <point x="38" y="533" type="line"/>
      <point x="38" y="510"/>
      <point x="38" y="533"/>
    </contour>
    <contour>
      <point x="213" y="0" type="curve"/>
      <point x="213" y="640" type="line"/>
      <point x="213" y="722"/>
      <point x="246" y="783"/>
      <point x="320" y="783" type="curve"/>
      <point x="350" y="783"/>
      <point x="378" y="772"/>
      <point x="404" y="758" type="curve"/>
      <point x="414" y="776"/>
      <point x="404" y="758"/>
      <point x="414" y="776" type="curve"/>
      <point x="385" y="792"/>
      <point x="353" y="805"/>
      <point x="320" y="805" type="curve"/>
      <point x="231" y="805"/>
      <point x="187" y="734"/>
      <point x="188" y="640" type="curve"/>
      <point x="188" y="0" type="line"/>
      <point x="213" y="0"/>
      <point x="188" y="0"/>
    </contour>
  </outline>
</glyph>
<glyph name="g" format="1">
  <advance width="485"/>
  <unicode hex="0067"/>
  <outline>
    <contour>
      <point x="334" y="499" type="curve"/>
      <point x="464" y="579" type="line"/>
      <point x="453" y="592"/>
      <point x="460" y="585"/>
      <point x="449" y="599" type="curve"/>
      <point x="320" y="517" type="line"/>
      <point x="334" y="499"/>
      <point x="320" y="517"/>
    </contour>
    <contour>
      <point x="108" y="358" type="curve"/>
      <point x="108" y="448"/>
      <point x="160" y="516"/>
      <point x="249" y="516" type="curve"/>
      <point x="337" y="516"/>
      <point x="386" y="451"/>
      <point x="386" y="361" type="curve"/>
      <point x="386" y="275"/>
      <point x="335" y="210"/>
      <point x="247" y="210" type="curve"/>
      <point x="162" y="210"/>
      <point x="108" y="271"/>
      <point x="108" y="358" type="curve"/>
      <point x="83" y="357"/>
      <point x="108" y="358"/>
      <point x="83" y="357" type="curve"/>
      <point x="83" y="256"/>
      <point x="146" y="189"/>
      <point x="245" y="189" type="curve"/>
      <point x="347" y="189"/>
      <point x="411" y="258"/>
      <point x="411" y="362" type="curve"/>
      <point x="411" y="465"/>
      <point x="350" y="538"/>
      <point x="249" y="538" type="curve"/>
      <point x="144" y="538"/>
      <point x="83" y="463"/>
      <point x="83" y="357" type="curve"/>
      <point x="108" y="358"/>
      <point x="83" y="357"/>
    </contour>
    <contour>
      <point x="153" y="228" type="curve"/>
      <point x="111" y="198"/>
      <point x="87" y="162"/>
      <point x="87" y="109" type="curve"/>
      <point x="87" y="29"/>
      <point x="156" y="-4"/>
      <point x="242" y="-13" type="curve"/>
      <point x="345" y="-23"/>
      <point x="435" y="-51"/>
      <point x="435" y="-144" type="curve"/>
      <point x="435" y="-237"/>
      <point x="350" y="-282"/>
      <point x="245" y="-282" type="curve"/>
      <point x="144" y="-282"/>
      <point x="70" y="-228"/>
      <point x="70" y="-134" type="curve"/>
      <point x="70" y="-66"/>
      <point x="103" y="-20"/>
      <point x="164" y="10" type="curve"/>
      <point x="152" y="25"/>
      <point x="164" y="10"/>
      <point x="152" y="25" type="curve"/>
      <point x="84" y="-9"/>
      <point x="44" y="-59"/>
      <point x="44" y="-135" type="curve"/>
      <point x="44" y="-244"/>
      <point x="129" y="-304"/>
      <point x="244" y="-304" type="curve"/>
      <point x="363" y="-304"/>
      <point x="460" y="-254"/>
      <point x="458" y="-142" type="curve"/>
      <point x="458" y="-37"/>
      <point x="361" y="-3"/>
      <point x="247" y="9" type="curve"/>
      <point x="172" y="14"/>
      <point x="112" y="42"/>
      <point x="112" y="112" type="curve"/>
      <point x="112" y="157"/>
      <point x="129" y="188"/>
      <point x="167" y="214" type="curve"/>
      <point x="153" y="228"/>
      <point x="167" y="214"/>
    </contour>
    <contour>
      <point x="249" y="670" type="move" name="top"/>
    </contour>
  </outline>
</glyph>
<glyph name="h" format="1">
  <advance width="590"/>
  <unicode hex="0068"/>
  <outline>
    <contour>
      <point x="458" y="0" type="curve"/>
      <point x="503" y="0"/>
      <point x="541" y="0"/>
      <point x="586" y="0" type="curve"/>
      <point x="586" y="23"/>
      <point x="586" y="0"/>
      <point x="586" y="23" type="curve"/>
      <point x="452" y="23"/>
      <point x="592" y="23"/>
      <point x="458" y="23" type="curve"/>
      <point x="458" y="0"/>
      <point x="458" y="23"/>
    </contour>
    <contour>
      <point x="134" y="0" type="curve"/>
      <point x="173" y="0"/>
      <point x="128" y="0"/>
      <point x="246" y="0" type="curve"/>
      <point x="246" y="23"/>
      <point x="246" y="0"/>
      <point x="246" y="23" type="curve"/>
      <point x="128" y="23"/>
      <point x="252" y="23"/>
      <point x="134" y="23" type="curve"/>
      <point x="134" y="0"/>
      <point x="134" y="23"/>
    </contour>
    <contour>
      <point x="134" y="800" type="curve"/>
      <point x="90" y="800"/>
      <point x="51" y="800"/>
      <point x="7" y="800" type="curve"/>
      <point x="7" y="777"/>
      <point x="7" y="800"/>
      <point x="7" y="777" type="curve"/>
      <point x="141" y="777"/>
      <point x="0" y="777"/>
      <point x="134" y="777" type="curve"/>
      <point x="134" y="800"/>
      <point x="134" y="777"/>
    </contour>
    <contour>
      <point x="134" y="23" type="curve"/>
      <point x="0" y="23"/>
      <point x="141" y="23"/>
      <point x="7" y="23" type="curve"/>
      <point x="7" y="0"/>
      <point x="7" y="23"/>
      <point x="7" y="0" type="curve"/>
      <point x="51" y="0"/>
      <point x="90" y="0"/>
      <point x="134" y="0" type="curve"/>
      <point x="134" y="23"/>
      <point x="134" y="0"/>
    </contour>
    <contour>
      <point x="141" y="353" type="curve"/>
      <point x="164" y="434"/>
      <point x="231" y="515"/>
      <point x="318" y="515" type="curve"/>
      <point x="413" y="515"/>
      <point x="447" y="443"/>
      <point x="447" y="341" type="curve"/>
      <point x="447" y="228"/>
      <point x="447" y="114"/>
      <point x="447" y="0" type="curve"/>
      <point x="472" y="0"/>
      <point x="447" y="0"/>
      <point x="472" y="0" type="curve"/>
      <point x="472" y="115"/>
      <point x="472" y="229"/>
      <point x="472" y="344" type="curve"/>
      <point x="472" y="460"/>
      <point x="429" y="538"/>
      <point x="321" y="538" type="curve"/>
      <point x="225" y="538"/>
      <point x="149" y="460"/>
      <point x="129" y="368" type="curve"/>
      <point x="143" y="355"/>
      <point x="126" y="366"/>
    </contour>
    <contour>
      <point x="147" y="0" type="curve"/>
      <point x="147" y="267"/>
      <point x="147" y="533"/>
      <point x="147" y="800" type="curve"/>
      <point x="122" y="800"/>
      <point x="147" y="800"/>
      <point x="122" y="800" type="curve"/>
      <point x="122" y="533"/>
      <point x="122" y="267"/>
      <point x="122" y="0" type="curve"/>
      <point x="147" y="0"/>
      <point x="122" y="0"/>
    </contour>
  </outline>
</glyph>
<glyph name="i" format="1">
  <advance width="290"/>
  <unicode hex="0069"/>
  <outline>
    <contour>
      <point x="162" y="23" type="curve"/>
      <point x="28" y="23"/>
      <point x="168" y="23"/>
      <point x="34" y="23" type="curve"/>
      <point x="34" y="0"/>
      <point x="34" y="23"/>
      <point x="34" y="0" type="curve"/>
      <point x="79" y="0"/>
      <point x="117" y="0"/>
      <point x="162" y="0" type="curve"/>
      <point x="162" y="23"/>
      <point x="162" y="0"/>
    </contour>
    <contour>
      <point x="162" y="0" type="curve"/>
      <point x="203" y="0"/>
      <point x="239" y="0"/>
      <point x="280" y="0" type="curve"/>
      <point x="280" y="23"/>
      <point x="280" y="0"/>
      <point x="280" y="23" type="curve"/>
      <point x="155" y="23"/>
      <point x="287" y="23"/>
      <point x="162" y="23" type="curve"/>
      <point x="162" y="0"/>
      <point x="162" y="23"/>
    </contour>
    <contour>
      <point x="162" y="533" type="curve"/>
      <point x="117" y="533"/>
      <point x="79" y="533"/>
      <point x="34" y="533" type="curve"/>
      <point x="34" y="510"/>
      <point x="34" y="533"/>
      <point x="34" y="510" type="curve"/>
      <point x="168" y="510"/>
      <point x="28" y="510"/>
      <point x="162" y="510" type="curve"/>
      <point x="162" y="533"/>
      <point x="162" y="510"/>
    </contour>
    <contour>
      <point x="176" y="0" type="curve"/>
      <point x="176" y="178"/>
      <point x="176" y="355"/>
      <point x="176" y="533" type="curve"/>
      <point x="148" y="533"/>
      <point x="176" y="533"/>
      <point x="148" y="533" type="curve"/>
      <point x="148" y="355"/>
      <point x="148" y="178"/>
      <point x="148" y="0" type="curve"/>
      <point x="176" y="0"/>
      <point x="148" y="0"/>
    </contour>
    <contour>
      <point x="179" y="685" type="curve"/>
      <point x="179" y="696"/>
      <point x="172" y="703"/>
      <point x="160" y="703" type="curve"/>
      <point x="149" y="703"/>
      <point x="142" y="695"/>
      <point x="142" y="685" type="curve"/>
      <point x="173" y="685"/>
      <point x="148" y="685"/>
      <point x="179" y="685" type="curve"/>
      <point x="179" y="673"/>
      <point x="172" y="667"/>
      <point x="160" y="667" type="curve"/>
      <point x="149" y="667"/>
      <point x="142" y="673"/>
      <point x="142" y="685" type="curve"/>
      <point x="173" y="685"/>
      <point x="148" y="685"/>
    </contour>
    <contour>
      <point x="161" y="670" type="move" name="top"/>
    </contour>
    <contour>
      <point x="175" y="0" type="move" name="bottom"/>
    </contour>
  </outline>
</glyph>
<glyph name="k" format="1">
  <advance width="537"/>
  <unicode hex="006B"/>
  <outline>
    <contour>
      <point x="134" y="23" type="curve"/>
      <point x="0" y="23"/>
      <point x="141" y="23"/>
      <point x="7" y="23" type="curve"/>
      <point x="7" y="0"/>
      <point x="7" y="23"/>
      <point x="7" y="0" type="curve"/>
      <point x="51" y="0"/>
      <point x="90" y="0"/>
      <point x="134" y="0" type="curve"/>
      <point x="134" y="23"/>
      <point x="134" y="0"/>
    </contour>
    <contour>
      <point x="403" y="0" type="curve"/>
      <point x="444" y="0"/>
      <point x="480" y="0"/>
      <point x="522" y="0" type="curve"/>
      <point x="522" y="23"/>
      <point x="522" y="0"/>
      <point x="522" y="23" type="curve"/>
      <point x="397" y="23"/>
      <point x="528" y="23"/>
      <point x="403" y="23" type="curve"/>
      <point x="403" y="0"/>
      <point x="403" y="23"/>
    </contour>
    <contour>
      <point x="380" y="510" type="curve"/>
      <point x="495" y="510"/>
      <point x="375" y="510"/>
      <point x="489" y="510" type="curve"/>
      <point x="489" y="533"/>
      <point x="489" y="510"/>
      <point x="489" y="533" type="curve"/>
      <point x="451" y="533"/>
      <point x="418" y="533"/>
      <point x="380" y="533" type="curve"/>
      <point x="380" y="510"/>
      <point x="380" y="533"/>
    </contour>
    <contour>
      <point x="134" y="0" type="curve"/>
      <point x="173" y="0"/>
      <point x="129" y="0"/>
      <point x="243" y="0" type="curve"/>
      <point x="243" y="23"/>
      <point x="243" y="0"/>
      <point x="243" y="23" type="curve"/>
      <point x="129" y="23"/>
      <point x="249" y="23"/>
      <point x="134" y="23" type="curve"/>
      <point x="134" y="0"/>
      <point x="134" y="23"/>
    </contour>
    <contour>
      <point x="381" y="533" type="curve"/>
      <point x="339" y="533"/>
      <point x="303" y="533"/>
      <point x="261" y="533" type="curve"/>
      <point x="261" y="510"/>
      <point x="261" y="533"/>
      <point x="261" y="510" type="curve"/>
      <point x="387" y="510"/>
      <point x="254" y="510"/>
      <point x="381" y="510" type="curve"/>
      <point x="381" y="533"/>
      <point x="381" y="510"/>
    </contour>
    <contour>
      <point x="136" y="800" type="curve"/>
      <point x="91" y="800"/>
      <point x="53" y="800"/>
      <point x="8" y="800" type="curve"/>
      <point x="8" y="777"/>
      <point x="8" y="800"/>
      <point x="8" y="777" type="curve"/>
      <point x="143" y="777"/>
      <point x="2" y="777"/>
      <point x="136" y="777" type="curve"/>
      <point x="136" y="800"/>
      <point x="136" y="777"/>
    </contour>
    <contour>
      <point x="147" y="0" type="curve"/>
      <point x="147" y="800" type="line"/>
      <point x="122" y="800"/>
      <point x="147" y="800"/>
      <point x="122" y="800" type="curve"/>
      <point x="122" y="533"/>
      <point x="122" y="267"/>
      <point x="122" y="0" type="curve"/>
      <point x="147" y="0"/>
      <point x="122" y="0"/>
    </contour>
    <contour>
      <point x="376" y="533" type="curve"/>
      <point x="134" y="275" type="line"/>
      <point x="173" y="275"/>
      <point x="131" y="275"/>
      <point x="170" y="275" type="curve"/>
      <point x="412" y="532" type="line"/>
      <point x="373" y="532"/>
      <point x="415" y="533"/>
    </contour>
    <contour>
      <point x="435" y="1" type="curve"/>
      <point x="170" y="275" type="line"/>
      <point x="131" y="275"/>
      <point x="173" y="275"/>
      <point x="134" y="275" type="curve"/>
      <point x="397" y="0" type="line"/>
      <point x="438" y="0"/>
      <point x="394" y="1"/>
    </contour>
    <contour>
      <point x="320" y="-57" type="move" name="bottom"/>
    </contour>
  </outline>
</glyph>
<glyph name="l" format="1">
  <advance width="285"/>
  <unicode hex="006C"/>
  <outline>
    <contour>
      <point x="143" y="23" type="curve"/>
      <point x="8" y="23"/>
      <point x="143" y="23"/>
      <point x="8" y="23" type="curve"/>
      <point x="8" y="0"/>
      <point x="8" y="23"/>
      <point x="8" y="0" type="curve"/>
      <point x="53" y="0"/>
      <point x="98" y="0"/>
      <point x="143" y="0" type="curve"/>
      <point x="143" y="23"/>
      <point x="143" y="0"/>
    </contour>
    <contour>
      <point x="144" y="800" type="curve"/>
      <point x="99" y="800"/>
      <point x="55" y="800"/>
      <point x="10" y="800" type="curve"/>
      <point x="10" y="777"/>
      <point x="10" y="800"/>
      <point x="10" y="777" type="curve"/>
      <point x="144" y="777"/>
      <point x="10" y="777"/>
      <point x="144" y="777" type="curve"/>
      <point x="144" y="800"/>
      <point x="144" y="777"/>
    </contour>
    <contour>
      <point x="143" y="0" type="curve"/>
      <point x="188" y="0"/>
      <point x="232" y="0"/>
      <point x="278" y="0" type="curve"/>
      <point x="278" y="23"/>
      <point x="278" y="0"/>
      <point x="278" y="23" type="curve"/>
      <point x="143" y="23"/>
      <point x="278" y="23"/>
      <point x="143" y="23" type="curve"/>
      <point x="143" y="0"/>
      <point x="143" y="23"/>
    </contour>
    <contour>
      <point x="154" y="0" type="curve"/>
      <point x="154" y="267"/>
      <point x="154" y="533"/>
      <point x="154" y="800" type="curve"/>
      <point x="129" y="800"/>
      <point x="154" y="800"/>
      <point x="129" y="800" type="curve"/>
      <point x="129" y="533"/>
      <point x="129" y="267"/>
      <point x="129" y="0" type="curve"/>
      <point x="154" y="0"/>
      <point x="129" y="0"/>
    </contour>
    <contour>
      <point x="142" y="895" type="move" name="top"/>
    </contour>
    <contour>
      <point x="145" y="-57" type="move" name="bottom"/>
    </contour>
  </outline>
</glyph>
<glyph name="m" format="1">
  <advance width="874"/>
  <unicode hex="006D"/>
  <outline>
    <contour>
      <point x="452" y="0" type="curve"/>
      <point x="560" y="0"/>
      <point x="453" y="0"/>
      <point x="561" y="0" type="curve"/>
      <point x="561" y="23"/>
      <point x="561" y="0"/>
      <point x="561" y="23" type="curve"/>
      <point x="453" y="23"/>
      <point x="560" y="23"/>
      <point x="452" y="23" type="curve"/>
      <point x="452" y="0"/>
      <point x="452" y="23"/>
    </contour>
    <contour>
      <point x="743" y="0" type="curve"/>
      <point x="787" y="0"/>
      <point x="826" y="0"/>
      <point x="870" y="0" type="curve"/>
      <point x="870" y="23"/>
      <point x="870" y="0"/>
      <point x="870" y="23" type="curve"/>
      <point x="736" y="23"/>
      <point x="876" y="23"/>
      <point x="743" y="23" type="curve"/>
      <point x="743" y="0"/>
      <point x="743" y="23"/>
    </contour>
    <contour>
      <point x="162" y="23" type="curve"/>
      <point x="28" y="23"/>
      <point x="169" y="23"/>
      <point x="35" y="23" type="curve"/>
      <point x="35" y="0"/>
      <point x="35" y="23"/>
      <point x="35" y="0" type="curve"/>
      <point x="79" y="0"/>
      <point x="118" y="0"/>
      <point x="162" y="0" type="curve"/>
      <point x="162" y="23"/>
      <point x="162" y="0"/>
    </contour>
    <contour>
      <point x="162" y="0" type="curve"/>
      <point x="201" y="0"/>
      <point x="148" y="0"/>
      <point x="265" y="0" type="curve"/>
      <point x="265" y="23"/>
      <point x="265" y="0"/>
      <point x="265" y="23" type="curve"/>
      <point x="148" y="23"/>
      <point x="278" y="23"/>
      <point x="162" y="23" type="curve"/>
      <point x="162" y="0"/>
      <point x="162" y="23"/>
    </contour>
    <contour>
      <point x="162" y="533" type="curve"/>
      <point x="118" y="533"/>
      <point x="79" y="533"/>
      <point x="35" y="533" type="curve"/>
      <point x="35" y="510"/>
      <point x="35" y="533"/>
      <point x="35" y="510" type="curve"/>
      <point x="169" y="510"/>
      <point x="28" y="510"/>
      <point x="162" y="510" type="curve"/>
      <point x="162" y="533"/>
      <point x="162" y="510"/>
    </contour>
    <contour>
      <point x="459" y="353" type="curve"/>
      <point x="488" y="439"/>
      <point x="536" y="516"/>
      <point x="617" y="516" type="curve"/>
      <point x="712" y="516"/>
      <point x="729" y="448"/>
      <point x="729" y="341" type="curve"/>
      <point x="729" y="228"/>
      <point x="729" y="114"/>
      <point x="729" y="0" type="curve"/>
      <point x="754" y="0"/>
      <point x="729" y="0"/>
      <point x="754" y="0" type="curve"/>
      <point x="754" y="115"/>
      <point x="754" y="229"/>
      <point x="754" y="344" type="curve"/>
      <point x="754" y="463"/>
      <point x="730" y="538"/>
      <point x="621" y="538" type="curve"/>
      <point x="525" y="538"/>
      <point x="471" y="462"/>
      <point x="446" y="365" type="curve"/>
      <point x="459" y="353"/>
      <point x="446" y="365"/>
    </contour>
    <contour>
      <point x="169" y="353" type="curve"/>
      <point x="196" y="438"/>
      <point x="244" y="517"/>
      <point x="326" y="517" type="curve"/>
      <point x="422" y="517"/>
      <point x="439" y="448"/>
      <point x="439" y="341" type="curve"/>
      <point x="439" y="228"/>
      <point x="439" y="114"/>
      <point x="439" y="0" type="curve"/>
      <point x="465" y="0"/>
      <point x="439" y="0"/>
      <point x="465" y="0" type="curve"/>
      <point x="465" y="115"/>
      <point x="465" y="229"/>
      <point x="465" y="344" type="curve"/>
      <point x="465" y="463"/>
      <point x="441" y="539"/>
      <point x="332" y="539" type="curve"/>
      <point x="233" y="539"/>
      <point x="182" y="463"/>
      <point x="157" y="365" type="curve"/>
      <point x="169" y="353"/>
      <point x="157" y="365"/>
    </contour>
    <contour>
      <point x="175" y="0" type="curve"/>
      <point x="175" y="178"/>
      <point x="175" y="355"/>
      <point x="175" y="533" type="curve"/>
      <point x="149" y="533"/>
      <point x="175" y="533"/>
      <point x="149" y="533" type="curve"/>
      <point x="149" y="355"/>
      <point x="149" y="178"/>
      <point x="149" y="0" type="curve"/>
      <point x="175" y="0"/>
      <point x="149" y="0"/>
    </contour>
  </outline>
</glyph>
<glyph name="o" format="1">
  <advance width="531"/>
  <unicode hex="006F"/>
  <outline>
    <contour>
      <point x="90" y="268" type="curve"/>
      <point x="90" y="412"/>
      <point x="138" y="516"/>
      <point x="262" y="516" type="curve"/>
      <point x="392" y="516"/>
      <point x="441" y="410"/>
      <point x="441" y="266" type="curve"/>
      <point x="441" y="123"/>
      <point x="392" y="18"/>
      <point x="266" y="18" type="curve"/>
      <point x="133" y="18"/>
      <point x="90" y="125"/>
      <point x="90" y="268" type="curve"/>
      <point x="66" y="268"/>
      <point x="89" y="268"/>
      <point x="65" y="268" type="curve"/>
      <point x="65" y="110"/>
      <point x="120" y="-5"/>
      <point x="265" y="-5" type="curve"/>
      <point x="410" y="-5"/>
      <point x="466" y="108"/>
      <point x="466" y="266" type="curve"/>
      <point x="466" y="424"/>
      <point x="410" y="538"/>
      <point x="264" y="538" type="curve"/>
      <point x="120" y="538"/>
      <point x="65" y="423"/>
      <point x="65" y="268" type="curve"/>
      <point x="89" y="268"/>
      <point x="66" y="268"/>
    </contour>
    <contour>
      <point x="262" y="670" type="move" name="top"/>
    </contour>
  </outline>
</glyph>
<glyph name="p" format="1">
  <advance width="586"/>
  <unicode hex="0070"/>
  <outline>
    <contour>
      <point x="136" y="-277" type="curve"/>
      <point x="-1" y="-277"/>
      <point x="143" y="-277"/>
      <point x="6" y="-277" type="curve"/>
      <point x="6" y="-300"/>
      <point x="6" y="-277"/>
      <point x="6" y="-300" type="curve"/>
      <point x="51" y="-300"/>
      <point x="91" y="-300"/>
      <point x="136" y="-300" type="curve"/>
      <point x="136" y="-277"/>
      <point x="136" y="-300"/>
    </contour>
    <contour>
      <point x="136" y="-300" type="curve"/>
      <point x="179" y="-300"/>
      <point x="215" y="-300"/>
      <point x="257" y="-300" type="curve"/>
      <point x="257" y="-277"/>
      <point x="257" y="-300"/>
      <point x="257" y="-277" type="curve"/>
      <point x="129" y="-277"/>
      <point x="264" y="-277"/>
      <point x="136" y="-277" type="curve"/>
      <point x="136" y="-300"/>
      <point x="136" y="-277"/>
    </contour>
    <contour>
      <point x="137" y="533" type="curve"/>
      <point x="92" y="533"/>
      <point x="52" y="533"/>
      <point x="7" y="533" type="curve"/>
      <point x="7" y="510"/>
      <point x="7" y="533"/>
      <point x="7" y="510" type="curve"/>
      <point x="144" y="510"/>
      <point x="1" y="510"/>
      <point x="137" y="510" type="curve"/>
      <point x="137" y="533"/>
      <point x="137" y="510"/>
    </contour>
    <contour>
      <point x="142" y="409" type="curve"/>
      <point x="170" y="458"/>
      <point x="239" y="516"/>
      <point x="320" y="516" type="curve"/>
      <point x="444" y="516"/>
      <point x="496" y="409"/>
      <point x="496" y="276" type="curve"/>
      <point x="499" y="134"/>
      <point x="445" y="17"/>
      <point x="320" y="18" type="curve"/>
      <point x="242" y="18"/>
      <point x="190" y="62"/>
      <point x="144" y="122" type="curve"/>
      <point x="128" y="110"/>
      <point x="144" y="122"/>
      <point x="128" y="110" type="curve"/>
      <point x="177" y="40"/>
      <point x="234" y="-5"/>
      <point x="320" y="-5" type="curve"/>
      <point x="467" y="-5"/>
      <point x="522" y="122"/>
      <point x="521" y="278" type="curve"/>
      <point x="521" y="423"/>
      <point x="461" y="538"/>
      <point x="322" y="538" type="curve"/>
      <point x="231" y="538"/>
      <point x="162" y="483"/>
      <point x="130" y="430" type="curve"/>
      <point x="145" y="411"/>
      <point x="127" y="428"/>
    </contour>
    <contour>
      <point x="149" y="-300" type="curve"/>
      <point x="149" y="-22"/>
      <point x="149" y="255"/>
      <point x="149" y="533" type="curve"/>
      <point x="124" y="533"/>
      <point x="149" y="533"/>
      <point x="124" y="533" type="curve"/>
      <point x="124" y="255"/>
      <point x="124" y="-22"/>
      <point x="124" y="-300" type="curve"/>
      <point x="149" y="-300"/>
      <point x="124" y="-300"/>
    </contour>
  </outline>
</glyph>
<glyph name="q" format="1">
  <advance width="575"/>
  <unicode hex="0071"/>
  <outline>
    <contour>
      <point x="450" y="510" type="curve"/>
      <point x="574" y="510"/>
      <point x="443" y="510"/>
      <point x="568" y="510" type="curve"/>
      <point x="568" y="533"/>
      <point x="568" y="510"/>
      <point x="568" y="533" type="curve"/>
      <point x="527" y="533"/>
      <point x="491" y="533"/>
      <point x="450" y="533" type="curve"/>
      <point x="450" y="510"/>
      <point x="450" y="533"/>
    </contour>
    <contour>
      <point x="450" y="-277" type="curve"/>
      <point x="316" y="-277"/>
      <point x="456" y="-277"/>
      <point x="322" y="-277" type="curve"/>
      <point x="322" y="-300"/>
      <point x="322" y="-277"/>
      <point x="322" y="-300" type="curve"/>
      <point x="367" y="-300"/>
      <point x="405" y="-300"/>
      <point x="450" y="-300" type="curve"/>
      <point x="450" y="-278"/>
      <point x="450" y="-300"/>
    </contour>
    <contour>
      <point x="450" y="-300" type="curve"/>
      <point x="491" y="-300"/>
      <point x="526" y="-300"/>
      <point x="568" y="-300" type="curve"/>
      <point x="568" y="-277"/>
      <point x="568" y="-300"/>
      <point x="568" y="-277" type="curve"/>
      <point x="443" y="-277"/>
      <point x="574" y="-277"/>
      <point x="450" y="-277" type="curve"/>
      <point x="450" y="-300"/>
      <point x="450" y="-278"/>
    </contour>
    <contour>
      <point x="455" y="436" type="curve"/>
      <point x="412" y="503"/>
      <point x="337" y="538"/>
      <point x="263" y="538" type="curve"/>
      <point x="120" y="538"/>
      <point x="63" y="416"/>
      <point x="63" y="264" type="curve"/>
      <point x="63" y="113"/>
      <point x="125" y="-6"/>
      <point x="267" y="-6" type="curve"/>
      <point x="348" y="-6"/>
      <point x="418" y="51"/>
      <point x="454" y="121" type="curve"/>
      <point x="440" y="135"/>
      <point x="456" y="126"/>
      <point x="442" y="140" type="curve"/>
      <point x="406" y="72"/>
      <point x="341" y="17"/>
      <point x="267" y="17" type="curve"/>
      <point x="142" y="17"/>
      <point x="89" y="127"/>
      <point x="89" y="265" type="curve"/>
      <point x="89" y="403"/>
      <point x="140" y="515"/>
      <point x="264" y="515" type="curve"/>
      <point x="333" y="515"/>
      <point x="401" y="479"/>
      <point x="444" y="417" type="curve"/>
      <point x="456" y="431"/>
      <point x="442" y="422"/>
    </contour>
    <contour>
      <point x="461" y="-300" type="curve"/>
      <point x="461" y="-22"/>
      <point x="461" y="255"/>
      <point x="461" y="533" type="curve"/>
      <point x="435" y="533"/>
      <point x="461" y="533"/>
      <point x="435" y="533" type="curve"/>
      <point x="435" y="255"/>
      <point x="435" y="-22"/>
      <point x="435" y="-300" type="curve"/>
      <point x="461" y="-300"/>
      <point x="435" y="-300"/>
    </contour>
  </outline>
</glyph>
<glyph name="r" format="1">
  <advance width="410"/>
  <unicode hex="0072"/>
  <outline>
    <contour>
      <point x="162" y="0" type="curve"/>
      <point x="204" y="0"/>
      <point x="240" y="0"/>
      <point x="281" y="0" type="curve"/>
      <point x="281" y="23"/>
      <point x="281" y="0"/>
      <point x="281" y="23" type="curve"/>
      <point x="156" y="23"/>
      <point x="287" y="23"/>
      <point x="162" y="23" type="curve"/>
      <point x="162" y="0"/>
      <point x="162" y="23"/>
    </contour>
    <contour>
      <point x="162" y="23" type="curve"/>
      <point x="29" y="23"/>
      <point x="169" y="23"/>
      <point x="35" y="23" type="curve"/>
      <point x="35" y="0"/>
      <point x="35" y="23"/>
      <point x="35" y="0" type="curve"/>
      <point x="79" y="0"/>
      <point x="118" y="0"/>
      <point x="162" y="0" type="curve"/>
      <point x="162" y="23"/>
      <point x="162" y="0"/>
    </contour>
    <contour>
      <point x="162" y="533" type="curve"/>
      <point x="117" y="533"/>
      <point x="79" y="533"/>
      <point x="35" y="533" type="curve"/>
      <point x="35" y="510"/>
      <point x="35" y="533"/>
      <point x="35" y="510" type="curve"/>
      <point x="168" y="510"/>
      <point x="28" y="510"/>
      <point x="162" y="510" type="curve"/>
      <point x="162" y="533"/>
      <point x="162" y="510"/>
    </contour>
    <contour>
      <point x="175" y="0" type="curve"/>
      <point x="175" y="178"/>
      <point x="175" y="355"/>
      <point x="175" y="533" type="curve"/>
      <point x="150" y="533"/>
      <point x="175" y="533"/>
      <point x="150" y="533" type="curve"/>
      <point x="150" y="355"/>
      <point x="150" y="178"/>
      <point x="150" y="0" type="curve"/>
      <point x="175" y="0"/>
      <point x="150" y="0"/>
    </contour>
    <contour>
      <point x="169" y="365" type="curve"/>
      <point x="200" y="462"/>
      <point x="287" y="515"/>
      <point x="380" y="515" type="curve"/>
      <point x="380" y="541"/>
      <point x="380" y="512"/>
      <point x="380" y="538" type="curve"/>
      <point x="280" y="538"/>
      <point x="188" y="485"/>
      <point x="158" y="388" type="curve"/>
      <point x="171" y="374"/>
      <point x="159" y="378"/>
    </contour>
    <contour>
      <point x="165" y="670" type="move" name="top"/>
    </contour>
    <contour>
      <point x="173" y="-57" type="move" name="bottom"/>
    </contour>
  </outline>
</glyph>
<glyph name="t" format="1">
  <advance width="382"/>
  <unicode hex="0074"/>
  <outline>
    <contour>
      <point x="20" y="510" type="curve"/>
      <point x="361" y="510" type="line"/>
      <point x="361" y="533"/>
      <point x="361" y="510"/>
      <point x="361" y="533" type="curve"/>
      <point x="20" y="533" type="line"/>
      <point x="20" y="510"/>
      <point x="20" y="533"/>
    </contour>
    <contour>
      <point x="339" y="47" type="curve"/>
      <point x="311" y="31"/>
      <point x="289" y="19"/>
      <point x="255" y="19" type="curve"/>
      <point x="190" y="19"/>
      <point x="167" y="68"/>
      <point x="167" y="145" type="curve"/>
      <point x="167" y="679" type="line"/>
      <point x="160" y="674"/>
      <point x="149" y="661"/>
      <point x="142" y="657" type="curve"/>
      <point x="142" y="143" type="line"/>
      <point x="142" y="52"/>
      <point x="172" y="-5"/>
      <point x="253" y="-5" type="curve"/>
      <point x="292" y="-5"/>
      <point x="318" y="6"/>
      <point x="351" y="25" type="curve"/>
      <point x="339" y="47"/>
      <point x="351" y="25"/>
    </contour>
    <contour>
      <point x="255" y="-58" type="move" name="bottom"/>
    </contour>
  </outline>
</glyph>
<glyph name="v" format="1">
  <advance width="607"/>
  <unicode hex="0076"/>
  <outline>
    <contour>
      <point x="128" y="533" type="curve"/>
      <point x="84" y="533"/>
      <point x="45" y="533"/>
      <point x="1" y="533" type="curve"/>
      <point x="1" y="510"/>
      <point x="1" y="533"/>
      <point x="1" y="510" type="curve"/>
      <point x="135" y="510"/>
      <point x="-5" y="510"/>
      <point x="128" y="510" type="curve"/>
      <point x="128" y="533"/>
      <point x="128" y="510"/>
    </contour>
    <contour>
      <point x="128" y="510" type="curve"/>
      <point x="240" y="510"/>
      <point x="122" y="510"/>
      <point x="234" y="510" type="curve"/>
      <point x="234" y="533"/>
      <point x="234" y="510"/>
      <point x="234" y="533" type="curve"/>
      <point x="197" y="533"/>
      <point x="165" y="533"/>
      <point x="128" y="533" type="curve"/>
      <point x="128" y="510"/>
      <point x="128" y="533"/>
    </contour>
    <contour>
      <point x="486" y="533" type="curve"/>
      <point x="446" y="533"/>
      <point x="412" y="533"/>
      <point x="373" y="533" type="curve"/>
      <point x="373" y="510"/>
      <point x="373" y="533"/>
      <point x="373" y="510" type="curve"/>
      <point x="492" y="510"/>
      <point x="366" y="510"/>
      <point x="486" y="510" type="curve"/>
      <point x="486" y="533"/>
      <point x="486" y="510"/>
    </contour>
    <contour>
      <point x="486" y="510" type="curve"/>
      <point x="611" y="510"/>
      <point x="480" y="510"/>
      <point x="605" y="510" type="curve"/>
      <point x="605" y="533"/>
      <point x="605" y="510"/>
      <point x="605" y="533" type="curve"/>
      <point x="563" y="533"/>
      <point x="528" y="533"/>
      <point x="486" y="533" type="curve"/>
      <point x="486" y="510"/>
      <point x="486" y="533"/>
    </contour>
    <contour>
      <point x="106" y="533" type="curve"/>
      <point x="167" y="355"/>
      <point x="228" y="178"/>
      <point x="287" y="0" type="curve"/>
      <point x="313" y="0"/>
      <point x="287" y="0"/>
      <point x="313" y="0" type="curve"/>
      <point x="253" y="178"/>
      <point x="193" y="355"/>
      <point x="134" y="533" type="curve"/>
      <point x="106" y="533"/>
      <point x="134" y="533"/>
    </contour>
    <contour>
      <point x="481" y="533" type="curve"/>
      <point x="291" y="0" type="line"/>
      <point x="318" y="0"/>
      <point x="291" y="0"/>
      <point x="318" y="0" type="curve"/>
      <point x="381" y="178"/>
      <point x="445" y="355"/>
      <point x="508" y="533" type="curve"/>
      <point x="481" y="533"/>
      <point x="508" y="533"/>
    </contour>
  </outline>
</glyph>
<glyph name="w" format="1">
  <advance width="898"/>
  <unicode hex="0077"/>
  <outline>
    <contour>
      <point x="769" y="510" type="curve"/>
      <point x="902" y="510"/>
      <point x="762" y="510"/>
      <point x="896" y="510" type="curve"/>
      <point x="896" y="533"/>
      <point x="896" y="510"/>
      <point x="896" y="533" type="curve"/>
      <point x="852" y="533"/>
      <point x="813" y="533"/>
      <point x="769" y="533" type="curve"/>
      <point x="769" y="510"/>
      <point x="769" y="533"/>
    </contour>
    <contour>
      <point x="769" y="533" type="curve"/>
      <point x="725" y="533"/>
      <point x="700" y="533"/>
      <point x="656" y="533" type="curve"/>
      <point x="656" y="510"/>
      <point x="656" y="533"/>
      <point x="656" y="510" type="curve"/>
      <point x="788" y="510"/>
      <point x="637" y="510"/>
      <point x="769" y="510" type="curve"/>
      <point x="769" y="533"/>
      <point x="769" y="510"/>
    </contour>
    <contour>
      <point x="128" y="533" type="curve"/>
      <point x="84" y="533"/>
      <point x="45" y="533"/>
      <point x="1" y="533" type="curve"/>
      <point x="1" y="510"/>
      <point x="1" y="533"/>
      <point x="1" y="510" type="curve"/>
      <point x="135" y="510"/>
      <point x="-5" y="510"/>
      <point x="128" y="510" type="curve"/>
      <point x="128" y="533"/>
      <point x="128" y="510"/>
    </contour>
    <contour>
      <point x="128" y="510" type="curve"/>
      <point x="261" y="510"/>
      <point x="115" y="510"/>
      <point x="248" y="510" type="curve"/>
      <point x="248" y="533"/>
      <point x="248" y="510"/>
      <point x="248" y="533" type="curve"/>
      <point x="204" y="533"/>
      <point x="172" y="533"/>
      <point x="128" y="533" type="curve"/>
      <point x="128" y="510"/>
      <point x="128" y="533"/>
    </contour>
    <contour>
      <point x="288" y="0" type="curve"/>
      <point x="348" y="178"/>
      <point x="406" y="355"/>
      <point x="466" y="533" type="curve"/>
      <point x="438" y="533"/>
      <point x="466" y="533"/>
      <point x="438" y="533" type="curve"/>
      <point x="380" y="355"/>
      <point x="321" y="178"/>
      <point x="264" y="0" type="curve"/>
      <point x="288" y="0"/>
      <point x="264" y="0"/>
    </contour>
    <contour>
      <point x="767" y="533" type="curve"/>
      <point x="713" y="355"/>
      <point x="658" y="178"/>
      <point x="604" y="0" type="curve"/>
      <point x="628" y="0"/>
      <point x="604" y="0"/>
      <point x="628" y="0" type="curve"/>
      <point x="684" y="178"/>
      <point x="739" y="355"/>
      <point x="795" y="533" type="curve"/>
      <point x="767" y="533"/>
      <point x="795" y="533"/>
    </contour>
    <contour>
      <point x="444" y="533" type="curve"/>
      <point x="497" y="355"/>
      <point x="550" y="178"/>
      <point x="603" y="0" type="curve"/>
      <point x="627" y="0"/>
      <point x="603" y="0"/>
      <point x="627" y="0" type="curve"/>
      <point x="575" y="178"/>
      <point x="522" y="355"/>
      <point x="470" y="533" type="curve"/>
      <point x="444" y="533"/>
      <point x="470" y="533"/>
    </contour>
    <contour>
      <point x="103" y="533" type="curve"/>
      <point x="157" y="355"/>
      <point x="210" y="178"/>
      <point x="263" y="0" type="curve"/>
      <point x="287" y="0"/>
      <point x="263" y="0"/>
      <point x="287" y="0" type="curve"/>
      <point x="235" y="178"/>
      <point x="183" y="355"/>
      <point x="131" y="533" type="curve"/>
      <point x="103" y="533"/>
      <point x="131" y="533"/>
    </contour>
  </outline>
</glyph>
<glyph name="x" format="1">
  <advance width="625"/>
  <unicode hex="0078"/>
  <outline>
    <contour>
      <point x="132" y="23" type="curve"/>
      <point x="-1" y="23"/>
      <point x="139" y="23"/>
      <point x="5" y="23" type="curve"/>
      <point x="5" y="0"/>
      <point x="5" y="23"/>
      <point x="5" y="0" type="curve"/>
      <point x="49" y="0"/>
      <point x="88" y="0"/>
      <point x="132" y="0" type="curve"/>
      <point x="132" y="23"/>
      <point x="132" y="0"/>
    </contour>
    <contour>
      <point x="492" y="23" type="curve"/>
      <point x="367" y="23"/>
      <point x="504" y="23"/>
      <point x="379" y="23" type="curve"/>
      <point x="379" y="0"/>
      <point x="379" y="23"/>
      <point x="379" y="0" type="curve"/>
      <point x="421" y="0"/>
      <point x="450" y="0"/>
      <point x="492" y="0" type="curve"/>
      <point x="492" y="23"/>
      <point x="492" y="0"/>
    </contour>
    <contour>
      <point x="492" y="0" type="curve"/>
      <point x="536" y="0"/>
      <point x="575" y="0"/>
      <point x="619" y="0" type="curve"/>
      <point x="619" y="23"/>
      <point x="619" y="0"/>
      <point x="619" y="23" type="curve"/>
      <point x="485" y="23"/>
      <point x="625" y="23"/>
      <point x="492" y="23" type="curve"/>
      <point x="492" y="0"/>
      <point x="492" y="23"/>
    </contour>
    <contour>
      <point x="132" y="0" type="curve"/>
      <point x="173" y="0"/>
      <point x="120" y="0"/>
      <point x="245" y="0" type="curve"/>
      <point x="245" y="23"/>
      <point x="245" y="0"/>
      <point x="245" y="23" type="curve"/>
      <point x="120" y="23"/>
      <point x="257" y="23"/>
      <point x="132" y="23" type="curve"/>
      <point x="132" y="0"/>
      <point x="132" y="23"/>
    </contour>
    <contour>
      <point x="477" y="510" type="curve"/>
      <point x="611" y="510"/>
      <point x="471" y="510"/>
      <point x="605" y="510" type="curve"/>
      <point x="605" y="533"/>
      <point x="605" y="510"/>
      <point x="605" y="533" type="curve"/>
      <point x="560" y="533"/>
      <point x="522" y="533"/>
      <point x="477" y="533" type="curve"/>
      <point x="477" y="510"/>
      <point x="477" y="533"/>
    </contour>
    <contour>
      <point x="150" y="533" type="curve"/>
      <point x="105" y="533"/>
      <point x="67" y="533"/>
      <point x="23" y="533" type="curve"/>
      <point x="23" y="510"/>
      <point x="23" y="533"/>
      <point x="23" y="510" type="curve"/>
      <point x="156" y="510"/>
      <point x="16" y="510"/>
      <point x="150" y="510" type="curve"/>
      <point x="150" y="533"/>
      <point x="150" y="510"/>
    </contour>
    <contour>
      <point x="149" y="510" type="curve"/>
      <point x="273" y="510"/>
      <point x="131" y="510"/>
      <point x="255" y="510" type="curve"/>
      <point x="255" y="533"/>
      <point x="255" y="510"/>
      <point x="255" y="533" type="curve"/>
      <point x="213" y="533"/>
      <point x="191" y="533"/>
      <point x="149" y="533" type="curve"/>
      <point x="149" y="510"/>
      <point x="149" y="533"/>
    </contour>
    <contour>
      <point x="478" y="533" type="curve"/>
      <point x="436" y="533"/>
      <point x="413" y="533"/>
      <point x="372" y="533" type="curve"/>
      <point x="372" y="510"/>
      <point x="372" y="533"/>
      <point x="372" y="510" type="curve"/>
      <point x="496" y="510"/>
      <point x="354" y="510"/>
      <point x="478" y="510" type="curve"/>
      <point x="478" y="533"/>
      <point x="478" y="510"/>
    </contour>
    <contour>
      <point x="519" y="0" type="curve"/>
      <point x="398" y="177"/>
      <point x="275" y="357"/>
      <point x="154" y="533" type="curve"/>
      <point x="125" y="533"/>
      <point x="154" y="532"/>
      <point x="125" y="532" type="curve"/>
      <point x="245" y="356"/>
      <point x="368" y="176"/>
      <point x="487" y="0" type="curve"/>
      <point x="519" y="0"/>
      <point x="487" y="0"/>
    </contour>
    <contour>
      <point x="475" y="533" type="curve"/>
      <point x="353" y="357"/>
      <point x="227" y="177"/>
      <point x="106" y="1" type="curve"/>
      <point x="138" y="1"/>
      <point x="106" y="0"/>
      <point x="138" y="0" type="curve"/>
      <point x="258" y="176"/>
      <point x="383" y="356"/>
      <point x="504" y="533" type="curve"/>
      <point x="475" y="533"/>
      <point x="504" y="533"/>
    </contour>
  </outline>
</glyph>
<glyph name="y" format="1">
  <advance width="663"/>
  <unicode hex="0079"/>
  <outline>
    <contour>
      <point x="212" y="-277" type="curve"/>
      <point x="79" y="-277"/>
      <point x="218" y="-277"/>
      <point x="86" y="-277" type="curve"/>
      <point x="86" y="-300"/>
      <point x="86" y="-277"/>
      <point x="86" y="-300" type="curve"/>
      <point x="130" y="-300"/>
      <point x="168" y="-300"/>
      <point x="212" y="-300" type="curve"/>
      <point x="212" y="-277"/>
      <point x="212" y="-300"/>
    </contour>
    <contour>
      <point x="132" y="533" type="curve"/>
      <point x="88" y="533"/>
      <point x="50" y="533"/>
      <point x="5" y="533" type="curve"/>
      <point x="5" y="510"/>
      <point x="5" y="533"/>
      <point x="5" y="510" type="curve"/>
      <point x="139" y="510"/>
      <point x="-1" y="510"/>
      <point x="132" y="510" type="curve"/>
      <point x="132" y="533"/>
      <point x="132" y="510"/>
    </contour>
    <contour>
      <point x="132" y="510" type="curve"/>
      <point x="259" y="510"/>
      <point x="126" y="510"/>
      <point x="252" y="510" type="curve"/>
      <point x="252" y="533"/>
      <point x="252" y="510"/>
      <point x="252" y="533" type="curve"/>
      <point x="210" y="533"/>
      <point x="175" y="533"/>
      <point x="132" y="533" type="curve"/>
      <point x="132" y="510"/>
      <point x="132" y="533"/>
    </contour>
    <contour>
      <point x="531" y="533" type="curve"/>
      <point x="492" y="533"/>
      <point x="457" y="533"/>
      <point x="418" y="533" type="curve"/>
      <point x="418" y="510"/>
      <point x="418" y="533"/>
      <point x="418" y="510" type="curve"/>
      <point x="538" y="510"/>
      <point x="412" y="510"/>
      <point x="531" y="510" type="curve"/>
      <point x="531" y="533"/>
      <point x="531" y="510"/>
    </contour>
    <contour>
      <point x="531" y="510" type="curve"/>
      <point x="663" y="510"/>
      <point x="525" y="510"/>
      <point x="657" y="510" type="curve"/>
      <point x="657" y="533"/>
      <point x="657" y="510"/>
      <point x="657" y="533" type="curve"/>
      <point x="613" y="533"/>
      <point x="575" y="533"/>
      <point x="531" y="533" type="curve"/>
      <point x="531" y="510"/>
      <point x="531" y="533"/>
    </contour>
    <contour>
      <point x="339" y="7" type="curve"/>
      <point x="311" y="55"/>
      <point x="164" y="486"/>
      <point x="136" y="533" type="curve"/>
      <point x="107" y="533"/>
      <point x="136" y="533"/>
      <point x="107" y="533" type="curve"/>
      <point x="136" y="485"/>
      <point x="286" y="47"/>
      <point x="315" y="0" type="curve"/>
      <point x="339" y="0"/>
      <point x="315" y="7"/>
    </contour>
    <contour>
      <point x="216" y="-300" type="curve"/>
      <point x="265" y="-225"/>
      <point x="507" y="458"/>
      <point x="556" y="533" type="curve"/>
      <point x="528" y="533"/>
      <point x="556" y="533"/>
      <point x="528" y="533" type="curve"/>
      <point x="479" y="458"/>
      <point x="236" y="-225"/>
      <point x="187" y="-300" type="curve"/>
      <point x="216" y="-300"/>
      <point x="187" y="-300"/>
    </contour>
    <contour>
      <point x="342" y="671" type="move" name="top"/>
    </contour>
  </outline>
</glyph>
<glyph name="z" format="1">
  <advance width="475"/>
  <unicode hex="007A"/>
  <outline>
    <contour>
      <point x="69" y="510" type="curve"/>
      <point x="177" y="510"/>
      <point x="281" y="510"/>
      <point x="390" y="510" type="curve"/>
      <point x="388" y="513"/>
      <point x="385" y="515"/>
      <point x="382" y="517" type="curve"/>
      <point x="380" y="519"/>
      <point x="380" y="521"/>
      <point x="378" y="523" type="curve"/>
      <point x="375" y="519"/>
      <point x="371" y="516"/>
      <point x="369" y="512" type="curve"/>
      <point x="54" y="23" type="line"/>
      <point x="54" y="10"/>
      <point x="54" y="23"/>
      <point x="54" y="10" type="curve"/>
      <point x="54" y="0"/>
      <point x="54" y="10"/>
      <point x="54" y="0" type="curve"/>
      <point x="61" y="0"/>
      <point x="54" y="0"/>
      <point x="61" y="0" type="curve"/>
      <point x="425" y="0"/>
      <point x="302" y="0"/>
      <point x="424" y="0" type="curve"/>
      <point x="424" y="23"/>
      <point x="424" y="0"/>
      <point x="424" y="23" type="curve"/>
      <point x="302" y="23"/>
      <point x="182" y="23"/>
      <point x="61" y="23" type="curve"/>
      <point x="63" y="21"/>
      <point x="66" y="19"/>
      <point x="68" y="17" type="curve"/>
      <point x="70" y="15"/>
      <point x="72" y="12"/>
      <point x="74" y="10" type="curve"/>
      <point x="77" y="14"/>
      <point x="79" y="17"/>
      <point x="81" y="21" type="curve"/>
      <point x="397" y="510" type="line"/>
      <point x="397" y="523"/>
      <point x="397" y="510"/>
      <point x="397" y="523" type="curve"/>
      <point x="397" y="533"/>
      <point x="397" y="523"/>
      <point x="397" y="533" type="curve"/>
      <point x="390" y="533"/>
      <point x="397" y="533"/>
      <point x="390" y="533" type="curve"/>
      <point x="281" y="533"/>
      <point x="177" y="533"/>
      <point x="69" y="533" type="curve"/>
      <point x="69" y="510"/>
      <point x="69" y="533"/>
    </contour>
    <contour>
      <point x="69" y="522" type="curve"/>
      <point x="69" y="402"/>
      <point x="69" y="529"/>
      <point x="69" y="409" type="curve"/>
      <point x="91" y="409"/>
      <point x="69" y="409"/>
      <point x="91" y="409" type="curve"/>
      <point x="91" y="529"/>
      <point x="91" y="402"/>
      <point x="91" y="522" type="curve"/>
      <point x="69" y="522"/>
      <point x="91" y="522"/>
    </contour>
    <contour>
      <point x="424" y="11" type="curve"/>
      <point x="424" y="131"/>
      <point x="424" y="4"/>
      <point x="424" y="124" type="curve"/>
      <point x="401" y="124"/>
      <point x="424" y="124"/>
      <point x="401" y="124" type="curve"/>
      <point x="401" y="4"/>
      <point x="401" y="131"/>
      <point x="401" y="11" type="curve"/>
      <point x="424" y="11"/>
      <point x="401" y="11"/>
    </contour>
    <contour>
      <point x="236" y="670" type="move" name="top"/>
    </contour>
  </outline>
</glyph>
<glyph name="braceleft" format="1">
  <advance width="289"/>
  <unicode hex="007B"/>
  <outline>
    <contour>
      <point x="241" y="-101" type="curve"/>
      <point x="174" y="-101"/>
      <point x="152" y="-46"/>
      <point x="152" y="26" type="curve"/>
      <point x="152" y="85"/>
      <point x="152" y="144"/>
      <point x="152" y="203" type="curve"/>
      <point x="152" y="287"/>
      <point x="118" y="351"/>
      <point x="39" y="351" type="curve"/>
      <point x="39" y="327"/>
      <point x="39" y="351"/>
      <point x="39" y="327" type="curve"/>
      <point x="103" y="327"/>
      <point x="129" y="275"/>
      <point x="129" y="205" type="curve"/>
      <point x="129" y="146"/>
      <point x="129" y="86"/>
      <point x="129" y="27" type="curve"/>
      <point x="129" y="-59"/>
      <point x="162" y="-124"/>
      <point x="241" y="-124" type="curve"/>
      <point x="241" y="-101"/>
      <point x="241" y="-124"/>
    </contour>
    <contour>
      <point x="241" y="800" type="curve"/>
      <point x="161" y="800"/>
      <point x="129" y="737"/>
      <point x="129" y="650" type="curve"/>
      <point x="129" y="590"/>
      <point x="129" y="530"/>
      <point x="129" y="470" type="curve"/>
      <point x="129" y="400"/>
      <point x="103" y="351"/>
      <point x="39" y="351" type="curve"/>
      <point x="39" y="327"/>
      <point x="39" y="351"/>
      <point x="39" y="327" type="curve"/>
      <point x="118" y="327"/>
      <point x="151" y="388"/>
      <point x="151" y="473" type="curve"/>
      <point x="151" y="532"/>
      <point x="151" y="591"/>
      <point x="151" y="650" type="curve"/>
      <point x="151" y="722"/>
      <point x="174" y="777"/>
      <point x="241" y="777" type="curve"/>
      <point x="241" y="800"/>
      <point x="241" y="777"/>
    </contour>
  </outline>
</glyph>
<glyph name="braceright" format="1">
  <advance width="289"/>
  <unicode hex="007D"/>
  <outline>
    <contour>
      <point x="48" y="-124" type="curve"/>
      <point x="128" y="-124"/>
      <point x="161" y="-59"/>
      <point x="161" y="27" type="curve"/>
      <point x="161" y="86"/>
      <point x="161" y="146"/>
      <point x="161" y="205" type="curve"/>
      <point x="161" y="275"/>
      <point x="186" y="327"/>
      <point x="249" y="327" type="curve"/>
      <point x="249" y="350"/>
      <point x="249" y="327"/>
      <point x="249" y="350" type="curve"/>
      <point x="172" y="350"/>
      <point x="138" y="287"/>
      <point x="138" y="203" type="curve"/>
      <point x="138" y="144"/>
      <point x="138" y="85"/>
      <point x="138" y="26" type="curve"/>
      <point x="138" y="-46"/>
      <point x="115" y="-101"/>
      <point x="48" y="-101" type="curve"/>
      <point x="48" y="-124"/>
      <point x="48" y="-101"/>
    </contour>
    <contour>
      <point x="48" y="777" type="curve"/>
      <point x="115" y="777"/>
      <point x="138" y="722"/>
      <point x="138" y="650" type="curve"/>
      <point x="138" y="591"/>
      <point x="138" y="532"/>
      <point x="138" y="473" type="curve"/>
      <point x="138" y="388"/>
      <point x="172" y="327"/>
      <point x="249" y="327" type="curve"/>
      <point x="249" y="350"/>
      <point x="249" y="327"/>
      <point x="249" y="350" type="curve"/>
      <point x="186" y="350"/>
      <point x="160" y="400"/>
      <point x="160" y="470" type="curve"/>
      <point x="160" y="530"/>
      <point x="160" y="590"/>
      <point x="160" y="650" type="curve"/>
      <point x="160" y="736"/>
      <point x="128" y="800"/>
      <point x="48" y="800" type="curve"/>
      <point x="48" y="777"/>
      <point x="48" y="800"/>
    </contour>
  </outline>
</glyph>
<glyph name="asciitilde" format="1">
  <advance width="617"/>
  <unicode hex="007E"/>
  <outline>
    <contour>
      <point x="506" y="344" type="curve"/>
      <point x="491" y="297"/>
      <point x="475" y="242"/>
      <point x="418" y="242" type="curve"/>
      <point x="375" y="242"/>
      <point x="348" y="260"/>
      <point x="317" y="290" type="curve"/>
      <point x="283" y="323"/>
      <point x="255" y="345"/>
      <point x="208" y="345" type="curve"/>
      <point x="133" y="345"/>
      <point x="106" y="296"/>
      <point x="90" y="225" type="curve"/>
      <point x="110" y="219"/>
      <point x="91" y="225"/>
      <point x="111" y="219" type="curve"/>
      <point x="124" y="274"/>
      <point x="144" y="323"/>
      <point x="206" y="323" type="curve"/>
      <point x="245" y="323"/>
      <point x="268" y="305"/>
      <point x="295" y="279" type="curve"/>
      <point x="333" y="243"/>
      <point x="363" y="220"/>
      <point x="416" y="220" type="curve"/>
      <point x="488" y="220"/>
      <point x="509" y="274"/>
      <point x="528" y="339" type="curve"/>
      <point x="507" y="344"/>
      <point x="527" y="339"/>
    </contour>
  </outline>
</glyph>
<glyph name="exclamdown" format="1">
  <advance width="219"/>
  <unicode hex="00A1"/>
  <outline>
    <contour>
      <point x="96" y="301" type="line"/>
      <point x="93" y="-192" type="line"/>
      <point x="125" y="-192" type="line"/>
      <point x="122" y="301" type="line"/>
    </contour>
    <contour>
      <point x="90" y="518" type="curve"/>
      <point x="90" y="506"/>
      <point x="97" y="500"/>
      <point x="109" y="500" type="curve"/>
      <point x="120" y="500"/>
      <point x="127" y="507"/>
      <point x="127" y="518" type="curve"/>
      <point x="96" y="518"/>
      <point x="120" y="518"/>
      <point x="90" y="518" type="curve"/>
      <point x="90" y="529"/>
      <point x="97" y="535"/>
      <point x="109" y="535" type="curve"/>
      <point x="120" y="535"/>
      <point x="127" y="529"/>
      <point x="127" y="518" type="curve"/>
      <point x="96" y="518"/>
      <point x="120" y="518"/>
    </contour>
  </outline>
</glyph>
<glyph name="cent" format="1">
  <advance width="564"/>
  <unicode hex="00A2"/>
  <outline>
    <contour>
      <point x="305" y="-53" type="curve"/>
      <point x="305" y="-13"/>
      <point x="305" y="27"/>
      <point x="305" y="67" type="curve"/>
      <point x="279" y="67"/>
      <point x="305" y="67"/>
      <point x="279" y="67" type="curve"/>
      <point x="279" y="27"/>
      <point x="279" y="-13"/>
      <point x="279" y="-53" type="curve"/>
      <point x="305" y="-53"/>
      <point x="279" y="-53"/>
    </contour>
    <contour>
      <point x="298" y="778" type="curve"/>
      <point x="298" y="742"/>
      <point x="298" y="706"/>
      <point x="298" y="670" type="curve"/>
      <point x="323" y="670"/>
      <point x="298" y="670"/>
      <point x="323" y="670" type="curve"/>
      <point x="323" y="706"/>
      <point x="323" y="742"/>
      <point x="323" y="778" type="curve"/>
      <point x="298" y="778"/>
      <point x="323" y="778"/>
    </contour>
    <contour>
      <point x="502" y="605" type="curve"/>
      <point x="443" y="656"/>
      <point x="390" y="679"/>
      <point x="314" y="679" type="curve"/>
      <point x="142" y="679"/>
      <point x="61" y="549"/>
      <point x="61" y="366" type="curve"/>
      <point x="61" y="188"/>
      <point x="126" y="54"/>
      <point x="290" y="54" type="curve"/>
      <point x="378" y="54"/>
      <point x="436" y="87"/>
      <point x="501" y="148" type="curve"/>
      <point x="484" y="164"/>
      <point x="501" y="148"/>
      <point x="484" y="164" type="curve"/>
      <point x="426" y="109"/>
      <point x="374" y="77"/>
      <point x="292" y="77" type="curve"/>
      <point x="144" y="77"/>
      <point x="86" y="203"/>
      <point x="86" y="367" type="curve"/>
      <point x="86" y="535"/>
      <point x="159" y="655"/>
      <point x="312" y="655" type="curve"/>
      <point x="384" y="655"/>
      <point x="433" y="634"/>
      <point x="486" y="589" type="curve"/>
      <point x="502" y="605"/>
      <point x="486" y="589"/>
    </contour>
    <contour>
      <point x="479" y="605" type="curve"/>
      <point x="479" y="485"/>
      <point x="479" y="604"/>
      <point x="479" y="484" type="curve"/>
      <point x="502" y="484"/>
      <point x="479" y="484"/>
      <point x="502" y="484" type="curve"/>
      <point x="502" y="604"/>
      <point x="502" y="485"/>
      <point x="502" y="605" type="curve"/>
      <point x="479" y="605"/>
      <point x="502" y="605"/>
    </contour>
  </outline>
</glyph>
<glyph name="sterling" format="1">
  <advance width="466"/>
  <unicode hex="00A3"/>
  <outline>
    <contour>
      <point x="398" y="23" type="curve"/>
      <point x="279" y="23"/>
      <point x="164" y="23"/>
      <point x="47" y="23" type="curve"/>
      <point x="47" y="0"/>
      <point x="47" y="23"/>
      <point x="47" y="0" type="curve"/>
      <point x="164" y="0"/>
      <point x="281" y="0"/>
      <point x="398" y="0" type="curve"/>
      <point x="398" y="23"/>
      <point x="398" y="0"/>
    </contour>
    <contour>
      <point x="357" y="388" type="curve"/>
      <point x="264" y="388"/>
      <point x="170" y="388"/>
      <point x="77" y="388" type="curve"/>
      <point x="77" y="366"/>
      <point x="77" y="388"/>
      <point x="77" y="366" type="curve"/>
      <point x="170" y="366"/>
      <point x="264" y="366"/>
      <point x="357" y="366" type="curve"/>
      <point x="357" y="388"/>
      <point x="357" y="366"/>
    </contour>
    <contour>
      <point x="409" y="676" type="curve"/>
      <point x="370" y="708"/>
      <point x="339" y="725"/>
      <point x="290" y="725" type="curve"/>
      <point x="139" y="725"/>
      <point x="124" y="562"/>
      <point x="157" y="375" type="curve"/>
      <point x="190" y="191"/>
      <point x="192" y="23"/>
      <point x="47" y="23" type="curve"/>
      <point x="47" y="0"/>
      <point x="47" y="23"/>
      <point x="47" y="0" type="curve"/>
      <point x="215" y="0"/>
      <point x="217" y="179"/>
      <point x="182" y="379" type="curve"/>
      <point x="153" y="549"/>
      <point x="163" y="702"/>
      <point x="289" y="702" type="curve"/>
      <point x="333" y="702"/>
      <point x="362" y="686"/>
      <point x="394" y="660" type="curve"/>
      <point x="409" y="676"/>
      <point x="394" y="660"/>
    </contour>
  </outline>
</glyph>
<glyph name="yen" format="1">
  <advance width="739"/>
  <unicode hex="00A5"/>
  <outline>
    <contour>
      <point x="564" y="372" type="curve"/>
      <point x="502" y="372"/>
      <point x="441" y="372"/>
      <point x="380" y="372" type="curve"/>
      <point x="380" y="347"/>
      <point x="380" y="372"/>
      <point x="380" y="347" type="curve"/>
      <point x="441" y="347"/>
      <point x="502" y="347"/>
      <point x="564" y="347" type="curve"/>
      <point x="564" y="372"/>
      <point x="564" y="347"/>
    </contour>
    <contour>
      <point x="355" y="372" type="curve"/>
      <point x="294" y="372"/>
      <point x="234" y="372"/>
      <point x="174" y="372" type="curve"/>
      <point x="174" y="347"/>
      <point x="174" y="372"/>
      <point x="174" y="347" type="curve"/>
      <point x="234" y="347"/>
      <point x="294" y="347"/>
      <point x="355" y="347" type="curve"/>
      <point x="355" y="372"/>
      <point x="355" y="347"/>
    </contour>
    <contour>
      <point x="564" y="252" type="curve"/>
      <point x="434" y="252"/>
      <point x="304" y="252"/>
      <point x="174" y="252" type="curve"/>
      <point x="174" y="228"/>
      <point x="174" y="252"/>
      <point x="174" y="228" type="curve"/>
      <point x="304" y="228"/>
      <point x="434" y="228"/>
      <point x="564" y="228" type="curve"/>
      <point x="564" y="252"/>
      <point x="564" y="228"/>
    </contour>
    <contour>
      <point x="364" y="23" type="curve"/>
      <point x="222" y="23"/>
      <point x="370" y="23"/>
      <point x="228" y="23" type="curve"/>
      <point x="228" y="0"/>
      <point x="228" y="23"/>
      <point x="228" y="0" type="curve"/>
      <point x="275" y="0"/>
      <point x="317" y="0"/>
      <point x="364" y="0" type="curve"/>
      <point x="364" y="23"/>
      <point x="364" y="0"/>
    </contour>
    <contour>
      <point x="364" y="0" type="curve"/>
      <point x="411" y="0"/>
      <point x="452" y="0"/>
      <point x="499" y="0" type="curve"/>
      <point x="499" y="23"/>
      <point x="499" y="0"/>
      <point x="499" y="23" type="curve"/>
      <point x="357" y="23"/>
      <point x="505" y="23"/>
      <point x="364" y="23" type="curve"/>
      <point x="364" y="0"/>
      <point x="364" y="23"/>
    </contour>
    <contour>
      <point x="569" y="722" type="curve"/>
      <point x="522" y="722"/>
      <point x="481" y="722"/>
      <point x="434" y="722" type="curve"/>
      <point x="434" y="699"/>
      <point x="434" y="722"/>
      <point x="434" y="699" type="curve"/>
      <point x="576" y="699"/>
      <point x="428" y="699"/>
      <point x="569" y="699" type="curve"/>
      <point x="569" y="722"/>
      <point x="569" y="699"/>
    </contour>
    <contour>
      <point x="169" y="722" type="curve"/>
      <point x="123" y="722"/>
      <point x="81" y="722"/>
      <point x="34" y="722" type="curve"/>
      <point x="34" y="699"/>
      <point x="34" y="722"/>
      <point x="34" y="699" type="curve"/>
      <point x="176" y="699"/>
      <point x="28" y="699"/>
      <point x="169" y="699" type="curve"/>
      <point x="169" y="722"/>
      <point x="169" y="699"/>
    </contour>
    <contour>
      <point x="169" y="699" type="curve"/>
      <point x="311" y="699"/>
      <point x="163" y="699"/>
      <point x="305" y="699" type="curve"/>
      <point x="305" y="722"/>
      <point x="305" y="699"/>
      <point x="305" y="722" type="curve"/>
      <point x="258" y="722"/>
      <point x="216" y="722"/>
      <point x="169" y="722" type="curve"/>
      <point x="169" y="699"/>
      <point x="169" y="722"/>
    </contour>
    <contour>
      <point x="569" y="699" type="curve"/>
      <point x="711" y="699"/>
      <point x="563" y="699"/>
      <point x="704" y="699" type="curve"/>
      <point x="704" y="722"/>
      <point x="704" y="699"/>
      <point x="704" y="722" type="curve"/>
      <point x="657" y="722"/>
      <point x="616" y="722"/>
      <point x="569" y="722" type="curve"/>
      <point x="569" y="699"/>
      <point x="569" y="722"/>
    </contour>
    <contour>
      <point x="145" y="722" type="curve"/>
      <point x="213" y="594"/>
      <point x="282" y="465"/>
      <point x="350" y="336" type="curve"/>
      <point x="377" y="336"/>
      <point x="350" y="336"/>
      <point x="377" y="336" type="curve"/>
      <point x="308" y="465"/>
      <point x="240" y="594"/>
      <point x="172" y="722" type="curve"/>
      <point x="145" y="722"/>
      <point x="172" y="722"/>
    </contour>
    <contour>
      <point x="566" y="722" type="curve"/>
      <point x="494" y="593"/>
      <point x="422" y="465"/>
      <point x="350" y="336" type="curve"/>
      <point x="377" y="336"/>
      <point x="350" y="336"/>
      <point x="377" y="336" type="curve"/>
      <point x="449" y="465"/>
      <point x="521" y="594"/>
      <point x="594" y="722" type="curve"/>
      <point x="566" y="722"/>
      <point x="594" y="722"/>
    </contour>
    <contour>
      <point x="377" y="0" type="curve"/>
      <point x="377" y="114"/>
      <point x="377" y="229"/>
      <point x="377" y="343" type="curve"/>
      <point x="350" y="343"/>
      <point x="377" y="343"/>
      <point x="350" y="343" type="curve"/>
      <point x="350" y="229"/>
      <point x="350" y="114"/>
      <point x="350" y="0" type="curve"/>
      <point x="377" y="0"/>
      <point x="350" y="0"/>
    </contour>
  </outline>
</glyph>
<glyph name="section" format="1">
  <advance width="443"/>
  <unicode hex="00A7"/>
  <outline>
    <contour>
      <point x="352" y="709" type="curve"/>
      <point x="309" y="736"/>
      <point x="275" y="752"/>
      <point x="223" y="752" type="curve"/>
      <point x="144" y="752"/>
      <point x="99" y="703"/>
      <point x="99" y="627" type="curve"/>
      <point x="99" y="555"/>
      <point x="140" y="513"/>
      <point x="207" y="484" type="curve"/>
      <point x="283" y="454"/>
      <point x="354" y="437"/>
      <point x="354" y="361" type="curve"/>
      <point x="354" y="291"/>
      <point x="318" y="245"/>
      <point x="247" y="229" type="curve"/>
      <point x="262" y="211"/>
      <point x="247" y="229"/>
      <point x="262" y="211" type="curve"/>
      <point x="339" y="233"/>
      <point x="379" y="282"/>
      <point x="379" y="361" type="curve"/>
      <point x="378" y="449"/>
      <point x="305" y="474"/>
      <point x="220" y="505" type="curve"/>
      <point x="161" y="529"/>
      <point x="123" y="565"/>
      <point x="123" y="627" type="curve"/>
      <point x="123" y="688"/>
      <point x="157" y="729"/>
      <point x="221" y="729" type="curve"/>
      <point x="269" y="729"/>
      <point x="300" y="715"/>
      <point x="339" y="692" type="curve"/>
      <point x="352" y="709"/>
      <point x="339" y="692"/>
    </contour>
    <contour>
      <point x="180" y="513" type="curve"/>
      <point x="109" y="487"/>
      <point x="69" y="442"/>
      <point x="69" y="367" type="curve"/>
      <point x="69" y="283"/>
      <point x="133" y="250"/>
      <point x="215" y="220" type="curve"/>
      <point x="278" y="194"/>
      <point x="329" y="166"/>
      <point x="329" y="100" type="curve"/>
      <point x="329" y="35"/>
      <point x="291" y="-7"/>
      <point x="225" y="-7" type="curve"/>
      <point x="169" y="-7"/>
      <point x="135" y="12"/>
      <point x="92" y="45" type="curve"/>
      <point x="77" y="28"/>
      <point x="92" y="45"/>
      <point x="77" y="28" type="curve"/>
      <point x="124" y="-10"/>
      <point x="164" y="-30"/>
      <point x="224" y="-30" type="curve"/>
      <point x="304" y="-30"/>
      <point x="354" y="19"/>
      <point x="354" y="100" type="curve"/>
      <point x="353" y="175"/>
      <point x="303" y="213"/>
      <point x="231" y="240" type="curve"/>
      <point x="158" y="269"/>
      <point x="94" y="294"/>
      <point x="94" y="367" type="curve"/>
      <point x="94" y="433"/>
      <point x="128" y="473"/>
      <point x="192" y="497" type="curve"/>
      <point x="180" y="513"/>
      <point x="192" y="497"/>
    </contour>
    <contour>
      <point x="100" y="28" type="curve"/>
      <point x="100" y="148"/>
      <point x="100" y="28"/>
      <point x="100" y="148" type="curve"/>
      <point x="77" y="148"/>
      <point x="100" y="148"/>
      <point x="77" y="148" type="curve"/>
      <point x="77" y="28"/>
      <point x="77" y="148"/>
      <point x="77" y="28" type="curve"/>
      <point x="100" y="28"/>
      <point x="77" y="28"/>
    </contour>
    <contour>
      <point x="352" y="589" type="curve"/>
      <point x="352" y="709"/>
      <point x="352" y="589"/>
      <point x="352" y="709" type="curve"/>
      <point x="329" y="709"/>
      <point x="352" y="709"/>
      <point x="329" y="709" type="curve"/>
      <point x="329" y="589"/>
      <point x="329" y="709"/>
      <point x="329" y="589" type="curve"/>
      <point x="352" y="589"/>
      <point x="329" y="589"/>
    </contour>
  </outline>
</glyph>
<glyph name="dieresis" format="1">
  <advance width="349"/>
  <unicode hex="00A8"/>
  <outline>
    <contour>
      <point x="90" y="669" type="curve"/>
      <point x="90" y="680"/>
      <point x="83" y="687"/>
      <point x="71" y="687" type="curve"/>
      <point x="60" y="687"/>
      <point x="53" y="679"/>
      <point x="53" y="669" type="curve"/>
      <point x="84" y="669"/>
      <point x="60" y="669"/>
      <point x="90" y="669" type="curve"/>
      <point x="90" y="657"/>
      <point x="83" y="651"/>
      <point x="71" y="651" type="curve"/>
      <point x="60" y="651"/>
      <point x="53" y="657"/>
      <point x="53" y="669" type="curve"/>
      <point x="84" y="669"/>
      <point x="60" y="669"/>
    </contour>
    <contour>
      <point x="196" y="669" type="curve"/>
      <point x="196" y="680"/>
      <point x="189" y="687"/>
      <point x="177" y="687" type="curve"/>
      <point x="166" y="687"/>
      <point x="159" y="679"/>
      <point x="159" y="669" type="curve"/>
      <point x="190" y="669"/>
      <point x="165" y="669"/>
      <point x="196" y="669" type="curve"/>
      <point x="196" y="657"/>
      <point x="189" y="651"/>
      <point x="177" y="651" type="curve"/>
      <point x="166" y="651"/>
      <point x="159" y="657"/>
      <point x="159" y="669" type="curve"/>
      <point x="190" y="669"/>
      <point x="165" y="669"/>
    </contour>
    <contour>
      <point x="125" y="653" type="move" name="_top"/>
    </contour>
  </outline>
</glyph>
<glyph name="copyright" format="1">
  <advance width="684"/>
  <unicode hex="00A9"/>
  <outline>
    <contour>
      <point x="91" y="319" type="curve"/>
      <point x="91" y="493"/>
      <point x="180" y="624"/>
      <point x="345" y="624" type="curve"/>
      <point x="507" y="624"/>
      <point x="594" y="491"/>
      <point x="594" y="318" type="curve"/>
      <point x="594" y="149"/>
      <point x="510" y="18"/>
      <point x="351" y="18" type="curve"/>
      <point x="186" y="18"/>
      <point x="91" y="145"/>
      <point x="91" y="319" type="curve"/>
      <point x="66" y="319"/>
      <point x="91" y="319"/>
      <point x="66" y="319" type="curve"/>
      <point x="66" y="133"/>
      <point x="170" y="-5"/>
      <point x="350" y="-5" type="curve"/>
      <point x="524" y="-5"/>
      <point x="618" y="135"/>
      <point x="618" y="319" type="curve"/>
      <point x="618" y="505"/>
      <point x="521" y="646"/>
      <point x="345" y="646" type="curve"/>
      <point x="167" y="646"/>
      <point x="66" y="506"/>
      <point x="66" y="319" type="curve"/>
      <point x="91" y="319"/>
      <point x="66" y="319"/>
    </contour>
    <contour>
      <point x="428" y="452" type="curve"/>
      <point x="428" y="429"/>
      <point x="428" y="405"/>
      <point x="428" y="381" type="curve"/>
      <point x="450" y="381"/>
      <point x="428" y="381"/>
      <point x="450" y="381" type="curve"/>
      <point x="450" y="409"/>
      <point x="450" y="436"/>
      <point x="450" y="464" type="curve"/>
      <point x="428" y="452"/>
      <point x="450" y="464"/>
    </contour>
    <contour>
      <point x="451" y="464" type="curve"/>
      <point x="419" y="487"/>
      <point x="391" y="496"/>
      <point x="351" y="496" type="curve"/>
      <point x="253" y="496"/>
      <point x="205" y="422"/>
      <point x="205" y="319" type="curve"/>
      <point x="205" y="219"/>
      <point x="246" y="146"/>
      <point x="340" y="146" type="curve"/>
      <point x="389" y="146"/>
      <point x="424" y="159"/>
      <point x="461" y="193" type="curve"/>
      <point x="445" y="208"/>
      <point x="461" y="193"/>
      <point x="445" y="208" type="curve"/>
      <point x="414" y="181"/>
      <point x="384" y="168"/>
      <point x="341" y="168" type="curve"/>
      <point x="261" y="168"/>
      <point x="230" y="234"/>
      <point x="230" y="320" type="curve"/>
      <point x="230" y="409"/>
      <point x="266" y="474"/>
      <point x="350" y="474" type="curve"/>
      <point x="383" y="474"/>
      <point x="404" y="466"/>
      <point x="428" y="452" type="curve"/>
      <point x="451" y="464"/>
      <point x="428" y="452"/>
    </contour>
  </outline>
</glyph>
<glyph name="ordfeminine" format="1">
  <advance width="422"/>
  <unicode hex="00AA"/>
  <outline>
    <contour>
      <point x="93" y="717" type="curve"/>
      <point x="93" y="694"/>
      <point x="93" y="681"/>
      <point x="93" y="658" type="curve"/>
      <point x="101" y="658"/>
      <point x="106" y="658"/>
      <point x="115" y="658" type="curve"/>
      <point x="115" y="681"/>
      <point x="115" y="694"/>
      <point x="115" y="717" type="curve"/>
      <point x="106" y="717"/>
      <point x="101" y="717"/>
    </contour>
    <contour>
      <point x="299" y="429" type="curve"/>
      <point x="299" y="522"/>
      <point x="299" y="588"/>
      <point x="299" y="681" type="curve"/>
      <point x="299" y="738"/>
      <point x="257" y="766"/>
      <point x="197" y="766" type="curve"/>
      <point x="153" y="766"/>
      <point x="120" y="746"/>
      <point x="93" y="717" type="curve"/>
      <point x="98" y="710"/>
      <point x="101" y="706"/>
      <point x="106" y="698" type="curve"/>
      <point x="127" y="720"/>
      <point x="154" y="743"/>
      <point x="194" y="743" type="curve"/>
      <point x="241" y="743"/>
      <point x="274" y="720"/>
      <point x="274" y="674" type="curve"/>
      <point x="274" y="583"/>
      <point x="274" y="520"/>
      <point x="274" y="429" type="curve"/>
      <point x="284" y="429"/>
      <point x="289" y="429"/>
    </contour>
    <contour>
      <point x="288" y="429" type="curve"/>
      <point x="309" y="429"/>
      <point x="322" y="429"/>
      <point x="343" y="429" type="curve"/>
      <point x="343" y="438"/>
      <point x="343" y="443"/>
      <point x="343" y="451" type="curve"/>
      <point x="322" y="451"/>
      <point x="310" y="451"/>
      <point x="288" y="451" type="curve"/>
      <point x="288" y="443"/>
      <point x="288" y="438"/>
    </contour>
    <contour>
      <point x="286" y="632" type="curve"/>
      <point x="245" y="625"/>
      <point x="217" y="623"/>
      <point x="176" y="617" type="curve"/>
      <point x="120" y="607"/>
      <point x="80" y="576"/>
      <point x="80" y="518" type="curve"/>
      <point x="80" y="461"/>
      <point x="117" y="426"/>
      <point x="177" y="426" type="curve"/>
      <point x="234" y="426"/>
      <point x="266" y="464"/>
      <point x="293" y="512" type="curve"/>
      <point x="288" y="516"/>
      <point x="285" y="519"/>
      <point x="280" y="524" type="curve"/>
      <point x="257" y="483"/>
      <point x="231" y="449"/>
      <point x="182" y="449" type="curve"/>
      <point x="134" y="449"/>
      <point x="104" y="475"/>
      <point x="104" y="520" type="curve"/>
      <point x="104" y="564"/>
      <point x="133" y="589"/>
      <point x="175" y="597" type="curve"/>
      <point x="216" y="603"/>
      <point x="246" y="606"/>
      <point x="287" y="612" type="curve"/>
      <point x="287" y="620"/>
      <point x="286" y="624"/>
    </contour>
  </outline>
</glyph>
<glyph name="guillemotleft" format="1">
  <advance width="584"/>
  <unicode hex="00AB"/>
  <outline>
    <contour>
      <point x="289" y="400" type="curve"/>
      <point x="288" y="400"/>
      <point x="76" y="289"/>
      <point x="76" y="289" type="curve"/>
      <point x="76" y="264"/>
      <point x="76" y="289"/>
      <point x="76" y="264" type="curve"/>
      <point x="76" y="264"/>
      <point x="288" y="375"/>
      <point x="289" y="375" type="curve"/>
      <point x="289" y="400"/>
      <point x="289" y="375"/>
    </contour>
    <contour>
      <point x="290" y="177" type="curve"/>
      <point x="289" y="178"/>
      <point x="76" y="288"/>
      <point x="76" y="289" type="curve"/>
      <point x="76" y="264"/>
      <point x="76" y="289"/>
      <point x="76" y="264" type="curve"/>
      <point x="76" y="263"/>
      <point x="289" y="153"/>
      <point x="290" y="153" type="curve"/>
      <point x="290" y="177"/>
      <point x="290" y="153"/>
    </contour>
    <contour>
      <point x="487" y="400" type="curve"/>
      <point x="274" y="289" type="line"/>
      <point x="274" y="264"/>
      <point x="274" y="289"/>
      <point x="274" y="264" type="curve"/>
      <point x="487" y="375" type="line"/>
      <point x="487" y="400"/>
      <point x="487" y="375"/>
    </contour>
    <contour>
      <point x="488" y="177" type="curve"/>
      <point x="487" y="178"/>
      <point x="274" y="288"/>
      <point x="274" y="289" type="curve"/>
      <point x="274" y="264"/>
      <point x="274" y="289"/>
      <point x="274" y="264" type="curve"/>
      <point x="274" y="263"/>
      <point x="487" y="153"/>
      <point x="488" y="153" type="curve"/>
      <point x="488" y="177"/>
      <point x="488" y="153"/>
    </contour>
  </outline>
</glyph>
<glyph name="registered" format="1">
  <advance width="684"/>
  <unicode hex="00AE"/>
  <outline>
    <contour>
      <point x="91" y="319" type="curve"/>
      <point x="91" y="493"/>
      <point x="180" y="624"/>
      <point x="345" y="624" type="curve"/>
      <point x="507" y="624"/>
      <point x="594" y="492"/>
      <point x="594" y="318" type="curve"/>
      <point x="594" y="149"/>
      <point x="510" y="18"/>
      <point x="351" y="18" type="curve"/>
      <point x="186" y="18"/>
      <point x="91" y="145"/>
      <point x="91" y="319" type="curve"/>
      <point x="66" y="319"/>
      <point x="90" y="319"/>
      <point x="66" y="319" type="curve"/>
      <point x="66" y="133"/>
      <point x="170" y="-5"/>
      <point x="350" y="-5" type="curve"/>
      <point x="524" y="-5"/>
      <point x="618" y="135"/>
      <point x="618" y="319" type="curve"/>
      <point x="618" y="505"/>
      <point x="521" y="646"/>
      <point x="345" y="646" type="curve"/>
      <point x="167" y="646"/>
      <point x="66" y="507"/>
      <point x="66" y="319" type="curve"/>
      <point x="90" y="319"/>
      <point x="66" y="319"/>
    </contour>
    <contour>
      <point x="429" y="149" type="curve"/>
      <point x="449" y="149"/>
      <point x="469" y="149"/>
      <point x="490" y="149" type="curve"/>
      <point x="490" y="170"/>
      <point x="490" y="149"/>
      <point x="490" y="170" type="curve"/>
      <point x="476" y="170"/>
      <point x="461" y="170"/>
      <point x="447" y="170" type="curve"/>
      <point x="429" y="150"/>
      <point x="446" y="171"/>
    </contour>
    <contour>
      <point x="292" y="491" type="curve"/>
      <point x="265" y="491"/>
      <point x="239" y="491"/>
      <point x="213" y="491" type="curve"/>
      <point x="213" y="469"/>
      <point x="213" y="491"/>
      <point x="213" y="469" type="curve"/>
      <point x="231" y="469"/>
      <point x="249" y="469"/>
      <point x="266" y="469" type="curve"/>
      <point x="292" y="491"/>
      <point x="266" y="469"/>
    </contour>
    <contour>
      <point x="292" y="171" type="curve"/>
      <point x="265" y="171"/>
      <point x="239" y="171"/>
      <point x="213" y="171" type="curve"/>
      <point x="213" y="149"/>
      <point x="213" y="171"/>
      <point x="213" y="149" type="curve"/>
      <point x="231" y="149"/>
      <point x="249" y="149"/>
      <point x="266" y="149" type="curve"/>
      <point x="292" y="171"/>
      <point x="266" y="149"/>
    </contour>
    <contour>
      <point x="266" y="149" type="curve"/>
      <point x="290" y="149"/>
      <point x="312" y="149"/>
      <point x="336" y="149" type="curve"/>
      <point x="336" y="170"/>
      <point x="336" y="149"/>
      <point x="336" y="170" type="curve"/>
      <point x="321" y="170"/>
      <point x="307" y="170"/>
      <point x="291" y="170" type="curve"/>
      <point x="266" y="149"/>
      <point x="291" y="170"/>
    </contour>
    <contour>
      <point x="350" y="309" type="curve"/>
      <point x="376" y="256"/>
      <point x="403" y="202"/>
      <point x="429" y="149" type="curve"/>
      <point x="447" y="170"/>
      <point x="429" y="149"/>
      <point x="447" y="170" type="curve"/>
      <point x="378" y="310" type="line"/>
      <point x="350" y="309"/>
      <point x="378" y="310"/>
    </contour>
    <contour>
      <point x="292" y="171" type="curve"/>
      <point x="292" y="277"/>
      <point x="292" y="384"/>
      <point x="292" y="491" type="curve"/>
      <point x="266" y="469"/>
      <point x="292" y="491"/>
      <point x="266" y="469" type="curve"/>
      <point x="266" y="362"/>
      <point x="266" y="255"/>
      <point x="266" y="149" type="curve"/>
      <point x="292" y="171"/>
      <point x="266" y="149"/>
    </contour>
    <contour>
      <point x="281" y="295" type="curve"/>
      <point x="298" y="295"/>
      <point x="317" y="295"/>
      <point x="335" y="295" type="curve"/>
      <point x="399" y="295"/>
      <point x="438" y="326"/>
      <point x="438" y="392" type="curve"/>
      <point x="438" y="453"/>
      <point x="402" y="491"/>
      <point x="343" y="491" type="curve"/>
      <point x="326" y="491"/>
      <point x="309" y="491"/>
      <point x="292" y="491" type="curve"/>
      <point x="266" y="469"/>
      <point x="292" y="491"/>
      <point x="266" y="469" type="curve"/>
      <point x="290" y="469"/>
      <point x="315" y="469"/>
      <point x="339" y="469" type="curve"/>
      <point x="386" y="469"/>
      <point x="413" y="439"/>
      <point x="413" y="390" type="curve"/>
      <point x="413" y="340"/>
      <point x="386" y="317"/>
      <point x="339" y="317" type="curve"/>
      <point x="319" y="317"/>
      <point x="299" y="317"/>
      <point x="281" y="317" type="curve"/>
      <point x="281" y="295"/>
      <point x="281" y="317"/>
    </contour>
  </outline>
</glyph>
<glyph name="macron" format="1">
  <advance width="326"/>
  <unicode hex="00AF"/>
  <outline>
    <contour>
      <point x="218" y="680" type="curve"/>
      <point x="153" y="680"/>
      <point x="87" y="680"/>
      <point x="22" y="680" type="curve"/>
      <point x="22" y="658"/>
      <point x="22" y="680"/>
      <point x="22" y="658" type="curve"/>
      <point x="87" y="658"/>
      <point x="153" y="658"/>
      <point x="218" y="658" type="curve"/>
      <point x="218" y="680"/>
      <point x="218" y="658"/>
    </contour>
    <contour>
      <point x="123" y="658" type="move" name="_top"/>
    </contour>
  </outline>
</glyph>
<glyph name="degree" format="1">
  <advance width="434"/>
  <unicode hex="00B0"/>
  <outline>
    <contour>
      <point x="362" y="433" type="curve"/>
      <point x="362" y="549"/>
      <point x="323" y="639"/>
      <point x="217" y="639" type="curve"/>
      <point x="111" y="639"/>
      <point x="73" y="550"/>
      <point x="73" y="435" type="curve"/>
      <point x="96" y="435"/>
      <point x="73" y="435"/>
      <point x="96" y="435" type="curve"/>
      <point x="96" y="535"/>
      <point x="122" y="617"/>
      <point x="214" y="617" type="curve"/>
      <point x="307" y="617"/>
      <point x="338" y="535"/>
      <point x="338" y="433" type="curve"/>
      <point x="338" y="326"/>
      <point x="312" y="241"/>
      <point x="217" y="241" type="curve"/>
      <point x="121" y="241"/>
      <point x="96" y="328"/>
      <point x="96" y="435" type="curve"/>
      <point x="73" y="435"/>
      <point x="96" y="435"/>
      <point x="73" y="435" type="curve"/>
      <point x="73" y="314"/>
      <point x="107" y="219"/>
      <point x="216" y="219" type="curve"/>
      <point x="325" y="219"/>
      <point x="362" y="312"/>
    </contour>
  </outline>
</glyph>
<glyph name="plusminus" format="1">
  <advance width="668"/>
  <unicode hex="00B1"/>
  <outline>
    <contour>
      <point x="74" y="18" type="line"/>
      <point x="594" y="18" type="line"/>
      <point x="594" y="43" type="line"/>
      <point x="74" y="43" type="line"/>
    </contour>
    <contour>
      <point x="74" y="297" type="curve"/>
      <point x="594" y="297" type="line"/>
      <point x="594" y="322"/>
      <point x="594" y="297"/>
      <point x="594" y="322" type="curve"/>
      <point x="74" y="322" type="line"/>
      <point x="74" y="297"/>
      <point x="74" y="322"/>
    </contour>
    <contour>
      <point x="345" y="18" type="curve"/>
      <point x="345" y="588" type="line"/>
      <point x="320" y="588"/>
      <point x="345" y="588"/>
      <point x="320" y="588" type="curve"/>
      <point x="320" y="18" type="line"/>
      <point x="345" y="18"/>
      <point x="320" y="18"/>
    </contour>
  </outline>
</glyph>
<glyph name="twosuperior" format="1">
  <advance width="448"/>
  <unicode hex="00B2"/>
  <outline>
    <contour>
      <point x="359" y="285" type="curve"/>
      <point x="359" y="321"/>
      <point x="359" y="334"/>
      <point x="359" y="371" type="curve"/>
      <point x="337" y="371"/>
      <point x="359" y="371"/>
      <point x="337" y="371" type="curve"/>
      <point x="337" y="342"/>
      <point x="337" y="336"/>
      <point x="337" y="307" type="curve"/>
      <point x="359" y="285"/>
      <point x="337" y="307"/>
    </contour>
    <contour>
      <point x="81" y="285" type="curve"/>
      <point x="176" y="285"/>
      <point x="268" y="285"/>
      <point x="359" y="285" type="curve"/>
      <point x="337" y="307"/>
      <point x="359" y="285"/>
      <point x="337" y="307" type="curve"/>
      <point x="252" y="307"/>
      <point x="166" y="307"/>
      <point x="81" y="307" type="curve"/>
      <point x="81" y="285"/>
      <point x="81" y="307"/>
    </contour>
    <contour>
      <point x="127" y="602" type="curve"/>
      <point x="150" y="646"/>
      <point x="176" y="677"/>
      <point x="228" y="677" type="curve"/>
      <point x="286" y="677"/>
      <point x="319" y="639"/>
      <point x="319" y="580" type="curve"/>
      <point x="319" y="526"/>
      <point x="288" y="498"/>
      <point x="251" y="460" type="curve"/>
      <point x="194" y="409"/>
      <point x="137" y="358"/>
      <point x="81" y="307" type="curve"/>
      <point x="91" y="285"/>
      <point x="81" y="307"/>
      <point x="91" y="285" type="curve"/>
      <point x="150" y="338"/>
      <point x="209" y="390"/>
      <point x="267" y="442" type="curve"/>
      <point x="309" y="486"/>
      <point x="342" y="519"/>
      <point x="342" y="581" type="curve"/>
      <point x="342" y="653"/>
      <point x="300" y="699"/>
      <point x="229" y="699" type="curve"/>
      <point x="169" y="699"/>
      <point x="132" y="669"/>
      <point x="107" y="612" type="curve"/>
      <point x="127" y="602"/>
      <point x="107" y="612"/>
    </contour>
    <contour>
      <point x="241" y="699" type="move" name="_top"/>
    </contour>
    <contour>
      <point x="212" y="284" type="move" name="_bottom"/>
    </contour>
  </outline>
</glyph>
<glyph name="threesuperior" format="1">
  <advance width="402"/>
  <unicode hex="00B3"/>
  <outline>
    <contour>
      <point x="108" y="633" type="curve"/>
      <point x="130" y="657"/>
      <point x="156" y="678"/>
      <point x="191" y="678" type="curve"/>
      <point x="248" y="678"/>
      <point x="284" y="648"/>
      <point x="284" y="592" type="curve"/>
      <point x="284" y="531"/>
      <point x="222" y="509"/>
      <point x="153" y="504" type="curve"/>
      <point x="153" y="484"/>
      <point x="153" y="504"/>
      <point x="153" y="484" type="curve"/>
      <point x="239" y="487"/>
      <point x="309" y="516"/>
      <point x="309" y="594" type="curve"/>
      <point x="309" y="663"/>
      <point x="264" y="699"/>
      <point x="194" y="699" type="curve"/>
      <point x="152" y="699"/>
      <point x="115" y="677"/>
      <point x="91" y="646" type="curve"/>
      <point x="108" y="633"/>
      <point x="91" y="646"/>
    </contour>
    <contour>
      <point x="86" y="313" type="curve"/>
      <point x="116" y="292"/>
      <point x="148" y="280"/>
      <point x="184" y="280" type="curve"/>
      <point x="266" y="277"/>
      <point x="324" y="315"/>
      <point x="322" y="392" type="curve"/>
      <point x="322" y="475"/>
      <point x="244" y="494"/>
      <point x="153" y="497" type="curve"/>
      <point x="153" y="480"/>
      <point x="153" y="497"/>
      <point x="153" y="480" type="curve"/>
      <point x="233" y="475"/>
      <point x="298" y="456"/>
      <point x="298" y="391" type="curve"/>
      <point x="297" y="330"/>
      <point x="253" y="300"/>
      <point x="187" y="302" type="curve"/>
      <point x="155" y="302"/>
      <point x="125" y="312"/>
      <point x="98" y="330" type="curve"/>
      <point x="86" y="313"/>
      <point x="98" y="330"/>
    </contour>
    <contour>
      <point x="213" y="699" type="move" name="_top"/>
    </contour>
    <contour>
      <point x="198" y="280" type="move" name="_bottom"/>
    </contour>
  </outline>
</glyph>
